<?xml version="1.0" encoding="utf-8"?>
<!-- Generator: Adobe Illustrator 24.1.3, SVG Export Plug-In . SVG Version: 6.00 Build 0)  -->
<svg version="1.1" xmlns="http://www.w3.org/2000/svg" xmlns:xlink="http://www.w3.org/1999/xlink" x="0px" y="0px"
	 viewBox="0 0 500 500" style="enable-background:new 0 0 500 500;" xml:space="preserve">
<style type="text/css">
	.st0{opacity:0.24;}
	.st1{fill:#518A49;}
	.st2{opacity:0.2;fill:#1E283A;}
	.st3{fill:#1E283A;}
	.st4{fill:#FFFFFF;}
	.st5{opacity:0.2;fill:#FFFFFF;}
	.st6{opacity:0.61;fill:#518A49;}
	.st7{fill:#E6E7E8;}
	.st8{fill:none;stroke:#FFFFFF;stroke-width:0.9133;stroke-miterlimit:10;}
	.st9{fill:none;stroke:#FFFFFF;stroke-width:0.9133;stroke-miterlimit:10;stroke-dasharray:4.3387,4.3387;}
	.st10{opacity:0.5;fill:#FFFFFF;}
	.st11{opacity:0.3;fill:#FFFFFF;}
	.st12{fill:none;stroke:#1E283A;stroke-width:1.2642;stroke-miterlimit:10;}
	.st13{fill:#989899;}
	.st14{fill:#9E7951;}
	.st15{fill:#916A3C;}
</style>
<g id="background">
	<g class="st0">
		<g>
			<path class="st1" d="M252.9,136.24c98.53,0,168.62,49.28,168.62,161.02c0,100.41-56.81,168.6-162.92,168.6
				c-126.96,0-168.65-87.16-168.65-162.93C89.95,210.13,146.8,136.24,252.9,136.24z"/>
		</g>
	</g>
</g>
<g id="designed_by_freepik">
	<path class="st1" d="M967.7-111.94C940.18-9.05,912.65,93.84,885.12,196.74h82.58V-111.94z"/>
	<path class="st1" d="M1087.9-111.94c27.53,102.89,55.06,205.79,82.58,308.68h-82.58V-111.94z"/>
	<g>
		<g>
			<path class="st1" d="M957.15,221.1v77.86h-24.41V268.6h-23.2v30.35h-24.41V221.1h24.41v28.04h23.2V221.1H957.15z"/>
			<path class="st1" d="M992.01,221.1v43.88c0,3.59,0.79,6.43,2.36,8.52c1.58,2.09,4.12,3.13,7.64,3.13c3.52,0,6.12-1.04,7.81-3.13
				c1.69-2.09,2.53-4.93,2.53-8.52V221.1h24.3v43.88c0,7.41-1.54,13.73-4.62,18.97c-3.08,5.24-7.3,9.18-12.65,11.82
				c-5.35,2.64-11.33,3.96-17.92,3.96s-12.45-1.32-17.54-3.96c-5.1-2.64-9.07-6.56-11.93-11.77c-2.86-5.2-4.29-11.55-4.29-19.02
				V221.1H992.01z"/>
			<path class="st1" d="M1107.47,261.18c-2.27,4-5.63,7.17-10.06,9.51c-4.44,2.35-9.81,3.52-16.11,3.52h-9.68v24.74h-24.41V221.1
				h34.09c9.53,0,16.84,2.42,21.94,7.26c5.09,4.84,7.64,11.33,7.64,19.46C1110.88,252.73,1109.74,257.18,1107.47,261.18z
				 M1086.14,247.82c0-4.76-2.53-7.15-7.59-7.15h-6.93v14.3h6.93C1083.61,254.97,1086.14,252.58,1086.14,247.82z"/>
			<path class="st1" d="M1142.99,240.56v9.57h24.19v18.36h-24.19v11h27.49v19.46h-51.9V221.1h51.9v19.46H1142.99z"/>
		</g>
	</g>
	<rect x="1000.82" y="30.74" class="st1" width="53.96" height="63.97"/>
</g>
<g id="objects">
	<g>
		<path class="st2" d="M445.69,424.39c0,2.39-1.94,4.33-4.33,4.33H84.69c-2.39,0-4.33-1.94-4.33-4.33l0,0
			c0-2.39,1.94-4.33,4.33-4.33h356.67C443.75,420.05,445.69,422,445.69,424.39L445.69,424.39z"/>
		<g>
			<g>
				<path class="st3" d="M242.17,411.45c0,7.58-6.15,13.73-13.73,13.73h-108.1c-7.58,0-13.73-6.15-13.73-13.73V186.67
					c0-7.58,6.15-13.73,13.73-13.73h108.1c7.58,0,13.73,6.15,13.73,13.73V411.45z"/>
				<path class="st4" d="M234.53,396.75c0,3.85-3.12,6.97-6.97,6.97H121.24c-3.85,0-6.97-3.12-6.97-6.97v-207.4
					c0-3.85,3.12-6.97,6.97-6.97h106.31c3.85,0,6.97,3.12,6.97,6.97V396.75z"/>
				<circle class="st5" cx="174.4" cy="414.02" r="6.86"/>
				<path class="st5" d="M184.38,177.07c0,0.79-0.64,1.43-1.43,1.43h-17.12c-0.79,0-1.43-0.64-1.43-1.43l0,0
					c0-0.79,0.64-1.43,1.43-1.43h17.12C183.74,175.64,184.38,176.28,184.38,177.07L184.38,177.07z"/>
			</g>
			<g>
				<g>
					<path class="st6" d="M131.94,240.1c0.32-0.38,18.49-22.23,2.82-26.45c-0.93-0.3-1.92-0.47-2.95-0.47
						c-1.53,0-2.98,0.36-4.24,0.98C114.72,219.4,131.63,239.73,131.94,240.1L131.94,240.1C131.93,240.1,131.94,240.1,131.94,240.1
						C131.94,240.1,131.94,240.1,131.94,240.1L131.94,240.1z"/>
					<path class="st1" d="M139.35,216.19l-13.96,13.96c2.66,5.28,6.4,9.78,6.54,9.95l0,0.01c0,0,0,0,0,0c0,0,0,0,0,0l0-0.01
						C132.22,239.77,145.88,223.33,139.35,216.19z"/>
					<path class="st4" d="M128.34,222.36c0,1.99,1.61,3.6,3.6,3.6s3.6-1.61,3.6-3.6c0-1.99-1.61-3.6-3.6-3.6
						S128.34,220.37,128.34,222.36z"/>
				</g>
				<path class="st1" d="M214.18,219.16c0,1.03-0.84,1.87-1.87,1.87H150.8c-1.03,0-1.87-0.84-1.87-1.87l0,0
					c0-1.03,0.84-1.87,1.87-1.87h61.51C213.35,217.29,214.18,218.13,214.18,219.16L214.18,219.16z"/>
				<path class="st1" d="M197.34,227.19c0,1.03-0.84,1.87-1.87,1.87H150.8c-1.03,0-1.87-0.84-1.87-1.87l0,0
					c0-1.03,0.84-1.87,1.87-1.87h44.66C196.5,225.31,197.34,226.15,197.34,227.19L197.34,227.19z"/>
				<path class="st1" d="M204.29,235.21c0,1.03-0.84,1.87-1.87,1.87H150.8c-1.03,0-1.87-0.84-1.87-1.87l0,0
					c0-1.03,0.84-1.87,1.87-1.87h51.61C203.45,233.34,204.29,234.17,204.29,235.21L204.29,235.21z"/>
			</g>
			<g>
				<g>
					<path class="st6" d="M131.94,288.58c0.32-0.38,18.49-22.23,2.82-26.45c-0.93-0.3-1.92-0.47-2.95-0.47
						c-1.53,0-2.98,0.36-4.24,0.98C114.72,267.89,131.63,288.22,131.94,288.58L131.94,288.58
						C131.93,288.59,131.94,288.59,131.94,288.58C131.94,288.59,131.94,288.59,131.94,288.58L131.94,288.58z"/>
					<path class="st1" d="M139.35,264.68l-13.96,13.96c2.66,5.28,6.4,9.78,6.54,9.95l0,0.01c0,0,0,0,0,0c0,0,0,0,0,0l0-0.01
						C132.22,288.26,145.88,271.82,139.35,264.68z"/>
					<path class="st4" d="M128.34,270.84c0,1.99,1.61,3.6,3.6,3.6s3.6-1.61,3.6-3.6c0-1.99-1.61-3.6-3.6-3.6
						S128.34,268.86,128.34,270.84z"/>
				</g>
				<path class="st1" d="M182.89,267.65c0,1.03-0.84,1.87-1.87,1.87H150.8c-1.03,0-1.87-0.84-1.87-1.87l0,0
					c0-1.03,0.84-1.87,1.87-1.87h30.22C182.06,265.78,182.89,266.62,182.89,267.65L182.89,267.65z"/>
				<path class="st1" d="M224.61,275.67c0,1.03-0.84,1.87-1.87,1.87H150.8c-1.03,0-1.87-0.84-1.87-1.87l0,0
					c0-1.03,0.84-1.87,1.87-1.87h71.94C223.77,273.8,224.61,274.64,224.61,275.67L224.61,275.67z"/>
				<path class="st1" d="M174.34,283.7c0,1.03-0.84,1.87-1.87,1.87H150.8c-1.03,0-1.87-0.84-1.87-1.87l0,0
					c0-1.03,0.84-1.87,1.87-1.87h21.66C173.5,281.83,174.34,282.66,174.34,283.7L174.34,283.7z"/>
			</g>
			<g>
				<g>
					<path class="st6" d="M131.94,337.07c0.32-0.38,18.49-22.23,2.82-26.45c-0.93-0.3-1.92-0.47-2.95-0.47
						c-1.53,0-2.98,0.36-4.24,0.98C114.72,316.37,131.63,336.71,131.94,337.07L131.94,337.07
						C131.93,337.08,131.94,337.08,131.94,337.07C131.94,337.08,131.94,337.08,131.94,337.07L131.94,337.07z"/>
					<path class="st1" d="M139.35,313.17l-13.96,13.96c2.66,5.28,6.4,9.78,6.54,9.95l0,0.01c0,0,0,0,0,0c0,0,0,0,0,0l0-0.01
						C132.22,336.75,145.88,320.31,139.35,313.17z"/>
					<path class="st4" d="M128.34,319.33c0,1.99,1.61,3.6,3.6,3.6s3.6-1.61,3.6-3.6c0-1.99-1.61-3.6-3.6-3.6
						S128.34,317.35,128.34,319.33z"/>
				</g>
				<path class="st1" d="M214.18,316.14c0,1.03-0.84,1.87-1.87,1.87H150.8c-1.03,0-1.87-0.84-1.87-1.87l0,0
					c0-1.03,0.84-1.87,1.87-1.87h61.51C213.35,314.27,214.18,315.11,214.18,316.14L214.18,316.14z"/>
				<path class="st1" d="M197.34,324.16c0,1.03-0.84,1.87-1.87,1.87H150.8c-1.03,0-1.87-0.84-1.87-1.87l0,0
					c0-1.03,0.84-1.87,1.87-1.87h44.66C196.5,322.29,197.34,323.13,197.34,324.16L197.34,324.16z"/>
				<path class="st1" d="M204.29,332.19c0,1.03-0.84,1.87-1.87,1.87H150.8c-1.03,0-1.87-0.84-1.87-1.87l0,0
					c0-1.03,0.84-1.87,1.87-1.87h51.61C203.45,330.31,204.29,331.15,204.29,332.19L204.29,332.19z"/>
			</g>
			<g>
				<g>
					<path class="st6" d="M131.94,385.56c0.32-0.38,18.49-22.23,2.82-26.45c-0.93-0.3-1.92-0.47-2.95-0.47
						c-1.53,0-2.98,0.36-4.24,0.98C114.72,364.86,131.63,385.2,131.94,385.56L131.94,385.56
						C131.93,385.57,131.94,385.57,131.94,385.56C131.94,385.57,131.94,385.57,131.94,385.56L131.94,385.56z"/>
					<path class="st1" d="M139.35,361.66l-13.96,13.96c2.66,5.28,6.4,9.78,6.54,9.95l0,0.01c0,0,0,0,0,0c0,0,0,0,0,0l0-0.01
						C132.22,385.23,145.88,368.8,139.35,361.66z"/>
					<path class="st4" d="M128.34,367.82c0,1.99,1.61,3.6,3.6,3.6s3.6-1.61,3.6-3.6c0-1.99-1.61-3.6-3.6-3.6
						S128.34,365.84,128.34,367.82z"/>
				</g>
				<path class="st1" d="M214.18,364.63c0,1.03-0.84,1.87-1.87,1.87H150.8c-1.03,0-1.87-0.84-1.87-1.87l0,0
					c0-1.03,0.84-1.87,1.87-1.87h61.51C213.35,362.76,214.18,363.6,214.18,364.63L214.18,364.63z"/>
				<path class="st1" d="M197.34,372.65c0,1.03-0.84,1.87-1.87,1.87H150.8c-1.03,0-1.87-0.84-1.87-1.87l0,0
					c0-1.03,0.84-1.87,1.87-1.87h44.66C196.5,370.78,197.34,371.62,197.34,372.65L197.34,372.65z"/>
				<path class="st1" d="M204.29,380.68c0,1.03-0.84,1.87-1.87,1.87H150.8c-1.03,0-1.87-0.84-1.87-1.87l0,0
					c0-1.03,0.84-1.87,1.87-1.87h51.61C203.45,378.8,204.29,379.64,204.29,380.68L204.29,380.68z"/>
			</g>
			<path class="st1" d="M234.53,203.1v-13.75c0-3.85-3.12-6.97-6.97-6.97H121.24c-3.85,0-6.97,3.12-6.97,6.97v13.75H234.53z"/>
			<path class="st4" d="M139.84,188.59c0,0.53-0.43,0.96-0.96,0.96h-11.99c-0.53,0-0.96-0.43-0.96-0.96l0,0
				c0-0.53,0.43-0.96,0.96-0.96h11.99C139.41,187.63,139.84,188.06,139.84,188.59L139.84,188.59z"/>
			<path class="st4" d="M139.84,192.42c0,0.53-0.43,0.96-0.96,0.96h-11.99c-0.53,0-0.96-0.43-0.96-0.96l0,0
				c0-0.53,0.43-0.96,0.96-0.96h11.99C139.41,191.46,139.84,191.89,139.84,192.42L139.84,192.42z"/>
			<path class="st4" d="M139.84,196.26c0,0.53-0.43,0.96-0.96,0.96h-11.99c-0.53,0-0.96-0.43-0.96-0.96l0,0
				c0-0.53,0.43-0.96,0.96-0.96h11.99C139.41,195.3,139.84,195.73,139.84,196.26L139.84,196.26z"/>
			<path class="st2" d="M221.87,292.61H106.62v87.22h115.25c2.52,0,4.57-2.04,4.57-4.57v-78.09
				C226.44,294.65,224.39,292.61,221.87,292.61z"/>
		</g>
	</g>
	<g>
		<path class="st7" d="M223.23,371.52c0,2.52-2.04,4.57-4.57,4.57H37.37c-2.52,0-4.57-2.04-4.57-4.57v-78.09
			c0-2.52,2.04-4.57,4.57-4.57h181.29c2.52,0,4.57,2.04,4.57,4.57V371.52z"/>
		<path class="st1" d="M223.23,305.3v-11.87c0-2.52-2.04-4.57-4.57-4.57H37.37c-2.52,0-4.57,2.04-4.57,4.57v11.87H223.23z"/>
		<g>
			<g>
				<line class="st8" x1="184.83" y1="288.66" x2="184.83" y2="290.94"/>
				<line class="st9" x1="184.83" y1="295.28" x2="184.83" y2="371.21"/>
				<line class="st8" x1="184.83" y1="373.38" x2="184.83" y2="375.66"/>
			</g>
		</g>
		<circle class="st1" cx="66.97" cy="338.06" r="26.8"/>
		<path class="st4" d="M143.53,326.24c0,1-1.04,1.81-2.32,1.81h-40.33c-1.28,0-2.32-0.81-2.32-1.81l0,0c0-1,1.04-1.81,2.32-1.81
			h40.33C142.5,324.43,143.53,325.24,143.53,326.24L143.53,326.24z"/>
		<path class="st4" d="M159.29,335.3c0,1-1.04,1.81-2.32,1.81h-56.08c-1.28,0-2.32-0.81-2.32-1.81l0,0c0-1,1.04-1.81,2.32-1.81
			h56.08C158.25,333.49,159.29,334.3,159.29,335.3L159.29,335.3z"/>
		<path class="st10" d="M114.77,297.19c0,1.2-1.24,2.17-2.77,2.17H44.95c-1.53,0-2.77-0.97-2.77-2.17l0,0c0-1.2,1.24-2.17,2.77-2.17
			H112C113.53,295.03,114.77,296,114.77,297.19L114.77,297.19z"/>
		<path class="st4" d="M124.83,344.36c0,1-1.04,1.81-2.32,1.81h-21.63c-1.28,0-2.32-0.81-2.32-1.81l0,0c0-1,1.04-1.81,2.32-1.81
			h21.63C123.79,342.55,124.83,343.36,124.83,344.36L124.83,344.36z"/>
	</g>
	<g>
		<path class="st4" d="M85.14,338.78c-0.5,0.96-0.87,0.96-2.37,0.86c0-2.36,0-4.72,0-7.08c1.13-0.31,1.88-0.05,2.37,0.84
			C85.14,335.19,85.14,336.99,85.14,338.78z"/>
		<path class="st4" d="M77.96,354.04c0,0.74,0,1.46,0,2.18c-0.01,1.59-1,2.58-2.6,2.58c-0.68,0-1.37,0-2.05,0
			c-1.5-0.01-2.51-1.01-2.52-2.51c-0.01-0.74,0-1.49,0-2.25c-3.19,0-6.35,0-9.54,0c-0.01,0.1-0.02,0.2-0.02,0.31
			c0,0.67,0.01,1.34,0,2.02c-0.03,1.41-1.03,2.41-2.44,2.43c-0.76,0.01-1.52,0.01-2.28,0c-1.43-0.02-2.43-1.03-2.45-2.47
			c-0.01-0.76,0-1.52,0-2.2c-0.49-0.2-0.97-0.31-1.37-0.57c-0.75-0.48-1.03-1.24-1.03-2.12c0-3.54,0-7.07,0-10.61
			s-0.01-7.07,0-10.61c0.01-3.2,1.85-5.85,4.87-6.89c0.75-0.26,1.58-0.38,2.38-0.39c4.73-0.03,9.46-0.03,14.19-0.01
			c4.09,0.01,7.24,3.16,7.24,7.25c0.01,7.08,0,14.17,0.01,21.25C80.36,352.7,79.6,353.89,77.96,354.04z M77.95,330.14
			c-7.98,0-15.92,0-23.86,0c0,4.79,0,9.54,0,14.3c7.97,0,15.9,0,23.86,0C77.95,339.67,77.95,334.92,77.95,330.14z M70.79,325.36
			c-3.21,0-6.38,0-9.54,0c0,0.79,0,1.56,0,2.34c3.18,0,6.35,0,9.53,0c0-0.09,0.01-0.16,0.01-0.24
			C70.79,326.77,70.79,326.08,70.79,325.36z M58.84,349.23c-0.01-1.3-1.08-2.37-2.38-2.38c-1.31-0.01-2.4,1.09-2.4,2.4
			c0.01,1.3,1.08,2.37,2.38,2.38C57.75,351.63,58.84,350.54,58.84,349.23z M77.96,349.23c0-1.3-1.07-2.37-2.37-2.38
			c-1.31-0.01-2.4,1.08-2.4,2.39c0,1.3,1.07,2.37,2.37,2.38C76.87,351.64,77.96,350.55,77.96,349.23z"/>
		<path class="st4" d="M49.25,339.67c-0.42,0-0.82,0.02-1.22,0c-0.64-0.03-1.13-0.51-1.14-1.15c-0.02-1.62-0.02-3.23,0-4.85
			c0.01-0.63,0.49-1.11,1.1-1.15c0.41-0.02,0.82,0,1.25,0C49.25,334.89,49.25,337.26,49.25,339.67z"/>
	</g>
	<g>
		<g>
			<g>
				<path class="st3" d="M422.7,419.8c0,2.97,2.41,5.37,5.37,5.37c2.97,0,5.37-2.41,5.37-5.37s-2.41-5.37-5.37-5.37
					C425.1,414.43,422.7,416.84,422.7,419.8z"/>
				<path class="st11" d="M426.17,419.8c0,1.05,0.85,1.9,1.9,1.9c1.05,0,1.9-0.85,1.9-1.9s-0.85-1.9-1.9-1.9
					C427.02,417.91,426.17,418.76,426.17,419.8z"/>
			</g>
			<g>
				<path class="st3" d="M372.76,419.8c0,2.97,2.41,5.37,5.37,5.37c2.97,0,5.37-2.41,5.37-5.37s-2.41-5.37-5.37-5.37
					C375.17,414.43,372.76,416.84,372.76,419.8z"/>
				<path class="st11" d="M376.24,419.8c0,1.05,0.85,1.9,1.9,1.9c1.05,0,1.9-0.85,1.9-1.9s-0.85-1.9-1.9-1.9
					C377.09,417.91,376.24,418.76,376.24,419.8z"/>
			</g>
			<rect x="385.48" y="283.52" class="st3" width="3.57" height="28.57"/>
			<rect x="386.49" y="257.93" class="st3" width="1.56" height="28.57"/>
			<rect x="418.03" y="283.52" class="st3" width="3.57" height="28.57"/>
			<rect x="419.04" y="257.93" class="st3" width="1.56" height="28.57"/>
			<path class="st3" d="M437,373.57c0,2.76,2.24,5,5,5l0,0c2.76,0,5-2.24,5-5v-19.66c0-2.76-2.24-5-5-5l0,0c-2.76,0-5,2.24-5,5
				V373.57z"/>
			<path class="st3" d="M413.25,315.49c2.76,0,5-2.24,5-5l0,0c0-2.76-2.24-5-5-5h-19.66c-2.76,0-5,2.24-5,5l0,0c0,2.76,2.24,5,5,5
				H413.25z"/>
			<path class="st1" d="M363.8,411.9c0,3.49,2.83,6.32,6.32,6.32h66.6c3.49,0,6.32-2.83,6.32-6.32v-96.92
				c0-3.49-2.83-6.32-6.32-6.32h-66.6c-3.49,0-6.32,2.83-6.32,6.32V411.9z"/>
			<path class="st7" d="M390.46,261.47v-4.74h26.55v4.42c0,0.11,0.02,0.21,0.03,0.32h6.26c0.01-0.11,0.03-0.21,0.03-0.32v-7.58
				c0-1.75-1.41-3.16-3.16-3.16H387.3c-1.75,0-3.16,1.42-3.16,3.16v7.9H390.46z"/>
			<path class="st5" d="M435.34,403.69c0,3.49-2.83,6.32-6.32,6.32h-51.2c-3.49,0-6.32-2.83-6.32-6.32v-81.54
				c0-3.49,2.83-6.32,6.32-6.32h51.2c3.49,0,6.32,2.83,6.32,6.32V403.69z"/>
			<rect x="371.81" y="326.89" class="st4" width="63.52" height="6.32"/>
			<path class="st2" d="M431.05,316.17c0.22,0.64,0.34,1.32,0.34,2.03v81.54c0,3.49-2.83,6.32-6.32,6.32h-51.2
				c-0.71,0-1.39-0.12-2.03-0.34c0.85,2.49,3.2,4.29,5.98,4.29h51.2c3.49,0,6.32-2.83,6.32-6.32v-81.54
				C435.34,319.37,433.54,317.01,431.05,316.17z"/>
			<line class="st12" x1="373.71" y1="330.05" x2="432.81" y2="330.05"/>
			<polygon class="st3" points="375.92,337.32 377.3,330.68 379.79,330.68 380.35,338.58 			"/>
			<path class="st12" d="M435.34,403.69c0,3.49-2.83,6.32-6.32,6.32h-51.2c-3.49,0-6.32-2.83-6.32-6.32v-81.54
				c0-3.49,2.83-6.32,6.32-6.32h51.2c3.49,0,6.32,2.83,6.32,6.32V403.69z"/>
		</g>
		<g>
			<g>
				<path class="st7" d="M297.13,413.3c0,0,2.85,9.27,1.07,9.27c-1.78,0-29.6,5.35-27.46,0.71c2.14-4.64,22.11-9.98,22.11-9.98
					H297.13z"/>
				<path class="st3" d="M270.73,423.36c-1.81,4.51,25.7-0.78,27.48-0.78c0.5,0,0.63-0.75,0.56-1.82
					C293.54,421.5,276.8,424.39,270.73,423.36z"/>
			</g>
			<g>
				<path class="st7" d="M316.14,413.3c0,0-2.85,9.27-1.07,9.27c1.78,0,29.6,5.35,27.46,0.71c-2.14-4.64-22.11-9.98-22.11-9.98
					H316.14z"/>
				<path class="st3" d="M342.55,423.36c1.81,4.51-25.7-0.78-27.48-0.78c-0.5,0-0.63-0.75-0.56-1.82
					C319.74,421.5,336.48,424.39,342.55,423.36z"/>
			</g>
			<g>
				<path class="st3" d="M263,420.33c0,2.01-1.63,3.63-3.63,3.63l0,0c-2.01,0-3.63-1.63-3.63-3.63v-14.27
					c0-2.01,1.63-3.63,3.63-3.63l0,0c2.01,0,3.63,1.63,3.63,3.63V420.33z"/>
				<path class="st3" d="M356.14,420.33c0,2.01-1.63,3.63-3.63,3.63l0,0c-2.01,0-3.63-1.63-3.63-3.63v-14.27
					c0-2.01,1.63-3.63,3.63-3.63l0,0c2.01,0,3.63,1.63,3.63,3.63V420.33z"/>
				<path class="st13" d="M346.31,356.68c0,7.73-6.27,14-14,14h-52.74c-7.73,0-14-6.27-14-14v-45.27c0-7.73,6.27-14,14-14h52.74
					c7.73,0,14,6.27,14,14V356.68z"/>
				<path class="st13" d="M366.59,398.78c0,5.02-4.07,9.09-9.09,9.09h-9.54c-5.02,0-9.09-4.07-9.09-9.09v-54.06
					c0-5.02,4.07-9.09,9.09-9.09h9.54c5.02,0,9.09,4.07,9.09,9.09V398.78z"/>
				<path class="st13" d="M273.45,398.78c0,5.02-4.07,9.09-9.09,9.09h-9.54c-5.02,0-9.09-4.07-9.09-9.09v-54.06
					c0-5.02,4.07-9.09,9.09-9.09h9.54c5.02,0,9.09,4.07,9.09,9.09V398.78z"/>
				<path class="st7" d="M345.69,372.52c0,5.22-4.07,9.45-9.09,9.45h-64.51c-5.02,0-9.09-4.23-9.09-9.45v-8.98
					c0-5.22,4.07-9.45,9.09-9.45h64.51c5.02,0,9.09,4.23,9.09,9.45V372.52z"/>
				<path class="st13" d="M355.23,398.78c0,5.02-4.07,9.09-9.09,9.09H268c-5.02,0-9.09-4.07-9.09-9.09v-8.63
					c0-5.02,4.07-9.09,9.09-9.09h78.14c5.02,0,9.09,4.07,9.09,9.09V398.78z"/>
			</g>
			<path class="st3" d="M358.24,353.11c-2.5-7.84-28.37-20.68-28.37-20.68l-17.69-0.97l-0.3-0.46l-4.02,0.22l-4.02-0.22l-0.4,0.46
				l-17.59,0.96c0,0-25.67,9.98-28.17,17.83c-2.5,7.84,26.61,65.54,26.61,65.54l14.26-2.14l-16.63-51.99l17.12-7.13h16.05l18.9,6.77
				l-19.23,52.35l14.26,2.14C329.03,415.8,360.74,360.96,358.24,353.11z"/>
			<path class="st1" d="M283.36,332.79c0,0,27.81,7.13,46.51-0.36c0,0,14.1-60.26,1.27-65.61c-12.84-5.35-53.13-5.35-54.56,2.85
				C275.16,277.87,283.36,332.79,283.36,332.79z"/>
			<path class="st2" d="M278.38,295.64c2.05,17.53,4.98,37.14,4.98,37.14s27.81,7.13,46.51-0.36c0,0,5.89-25.2,6.59-44.46
				C317.14,290.8,297.78,293.36,278.38,295.64z"/>
			<path class="st14" d="M293.08,294.54c0,0,1.65-8.38,2.54-8.74c0.89-0.36,7.27-0.8,7.27-0.8l-0.62,7.76l-4.46,5.26
				c0,0-1.34,4.1-4.64,3.12C289.87,300.16,293.08,294.54,293.08,294.54z"/>
			<path class="st3" d="M313.8,303.16c0,0.95-0.77,1.73-1.73,1.73h-13.59c-0.95,0-1.73-0.77-1.73-1.73V274.9
				c0-0.95,0.77-1.73,1.73-1.73h13.59c0.95,0,1.73,0.77,1.73,1.73V303.16z"/>
			<path class="st14" d="M316.7,294.45l-2.41-0.71c0,0,1.17-3.66-0.27-5.35c-1.52-1.78-6.51-6.33-2.05,1.07
				c0,0-14.62-12.57-1.78,1.43c0,0-14.8-11.14-1.25,2.5c0,0-16.22-8.65-1.34,2.32c0,0-12.12-4.9,0.45,2.32c0,0,4.81,3.03,8.11,3.03
				L316.7,294.45z"/>
			<path class="st1" d="M313.95,263.25c0,0,19.26,0.36,27.81,9.27c8.56,8.91,18.08,32.36,12.38,34.5
				c-5.71,2.14-38.05-0.62-38.05-4.9s0.71-8.56,0.71-8.56l22.63,0.45l-10.86-12.21L313.95,263.25z"/>
			<path class="st1" d="M295.84,263.25c0,0-19.26,0.36-27.81,9.27c-8.56,8.91-20.32,32.45-14.62,34.59
				c5.71,2.14,40.29-0.71,40.29-4.99s-0.71-8.56-0.71-8.56l-21.75-0.36l9.98-11.41L295.84,263.25z"/>
			<path class="st1" d="M293.61,267.22l2.39-2.94l-0.17-6.02c0,0,21.21-1.2,21.08-0.8c-0.13,0.4-0.88,7.35-0.88,7.35L293.61,267.22z
				"/>
			<path class="st15" d="M290.94,223c0,0-6.23,23.89,0.59,32.14c6.82,8.25,27.84,8.88,31.8-10.27c3.66-17.74-5.45-26.94-5.45-26.94"
				/>
			<path class="st15" d="M321.05,235.02c0,0,3.57-3.33,6.21-1.98c4.75,2.43-0.01,12.81-4.31,11.86
				C318.66,243.95,321.05,235.02,321.05,235.02z"/>
			<path class="st3" d="M328.9,214.78c-1.99-4.16-7.06-2.06-7.06-2.06c0.19-3.35-5.25-9.51-13.38-9.53
				c-8.13-0.02-16.16,9.13-21.95,7.87c0,0,1.49,1.15,3.96,2.56c-5.55,1.43-9.85,1.85-9.85,1.85c7.79,11.75,22.28,9.56,22.28,9.56
				l-5.85,2.35c10.06,0.31,19.16-3.53,19.16-3.53c0.51,7.36,3.66,12.07,3.66,12.07l-0.36,5.54l2.31,0.94l0.11-4.91
				c1.43-6.31,5.33-4.43,5.33-4.43S330.89,218.94,328.9,214.78z"/>
			<g>
				<path class="st3" d="M291.43,236.26c0,0,0.11,0.13,0.26,0.37c0.08,0.11,0.16,0.28,0.28,0.41c0.1,0.13,0.22,0.27,0.35,0.43
					c0.15,0.14,0.27,0.31,0.44,0.44c0.15,0.14,0.31,0.28,0.49,0.39c0.16,0.13,0.35,0.2,0.52,0.29c0.18,0.08,0.35,0.13,0.53,0.17
					c0.17,0.02,0.34,0.05,0.51,0.03c0.17-0.02,0.35-0.02,0.51-0.09c0.18-0.04,0.35-0.14,0.52-0.22c0.17-0.09,0.33-0.23,0.5-0.33
					c0.28-0.27,0.58-0.51,0.75-0.72c0.19-0.2,0.33-0.31,0.33-0.31s0.04,0.16,0.06,0.45c0,0.14,0.04,0.33,0,0.53
					c-0.03,0.2-0.07,0.44-0.14,0.69c-0.11,0.24-0.2,0.52-0.39,0.78c-0.2,0.26-0.42,0.53-0.74,0.73c-0.15,0.12-0.32,0.21-0.5,0.28
					c-0.18,0.08-0.37,0.17-0.57,0.19c-0.4,0.1-0.82,0.07-1.23,0.02l-0.59-0.18c-0.19-0.07-0.35-0.18-0.52-0.28
					c-0.18-0.09-0.31-0.23-0.45-0.35c-0.15-0.12-0.27-0.25-0.37-0.39c-0.23-0.27-0.39-0.57-0.51-0.85
					c-0.14-0.28-0.16-0.57-0.22-0.82c-0.05-0.26-0.03-0.51-0.03-0.72c-0.01-0.21,0.06-0.36,0.09-0.5
					C291.37,236.42,291.43,236.26,291.43,236.26z"/>
			</g>
			<g>
				<path class="st3" d="M307.13,238.61c0,0,0.11,0.13,0.26,0.37c0.08,0.11,0.16,0.28,0.28,0.41c0.1,0.13,0.22,0.27,0.35,0.43
					c0.15,0.14,0.27,0.31,0.44,0.44c0.15,0.14,0.31,0.28,0.49,0.39c0.16,0.13,0.35,0.2,0.52,0.29c0.18,0.08,0.35,0.13,0.53,0.17
					c0.17,0.02,0.34,0.05,0.51,0.03c0.17-0.02,0.35-0.02,0.51-0.09c0.18-0.04,0.35-0.14,0.52-0.22c0.17-0.09,0.33-0.23,0.5-0.33
					c0.28-0.27,0.58-0.51,0.75-0.72c0.19-0.2,0.33-0.31,0.33-0.31s0.04,0.16,0.06,0.45c0,0.14,0.04,0.33,0,0.53
					c-0.03,0.2-0.07,0.44-0.14,0.69c-0.11,0.24-0.2,0.52-0.39,0.78c-0.2,0.26-0.42,0.53-0.74,0.73c-0.15,0.12-0.32,0.21-0.5,0.28
					c-0.18,0.08-0.37,0.17-0.57,0.19c-0.4,0.1-0.82,0.07-1.23,0.02l-0.59-0.18c-0.19-0.07-0.35-0.18-0.52-0.28
					c-0.18-0.09-0.31-0.23-0.45-0.35c-0.15-0.12-0.27-0.25-0.37-0.39c-0.23-0.27-0.39-0.57-0.51-0.85
					c-0.14-0.28-0.16-0.57-0.22-0.82c-0.05-0.26-0.03-0.51-0.03-0.72c-0.01-0.21,0.06-0.36,0.09-0.5
					C307.07,238.77,307.13,238.61,307.13,238.61z"/>
			</g>
			<g>
				<path class="st3" d="M290.8,231.26c0,0,0.07-0.19,0.26-0.45c0.18-0.27,0.48-0.61,0.89-0.94c0.42-0.32,0.95-0.63,1.59-0.82
					c0.63-0.2,1.35-0.29,2.08-0.22c0.73,0.07,1.46,0.29,2.05,0.65c0.31,0.16,0.57,0.38,0.8,0.59c0.24,0.2,0.43,0.43,0.58,0.67
					c0.32,0.45,0.47,0.89,0.54,1.21c0.08,0.31,0.09,0.51,0.09,0.51s-0.21-0.01-0.51-0.06c-0.15-0.03-0.33-0.05-0.51-0.09
					c-0.19-0.04-0.42-0.04-0.62-0.08c-0.21-0.04-0.43-0.07-0.66-0.09c-0.22-0.03-0.44-0.07-0.67-0.08
					c-0.12-0.01-0.23-0.03-0.34-0.05c-0.11-0.01-0.23-0.01-0.35-0.03c-0.23-0.03-0.46-0.05-0.69-0.07
					c-0.23-0.05-0.48-0.03-0.71-0.08c-0.24-0.01-0.48-0.05-0.73-0.07c-0.49-0.05-0.98-0.11-1.43-0.18
					c-0.45-0.07-0.86-0.15-1.16-0.21C290.99,231.31,290.8,231.26,290.8,231.26z"/>
			</g>
			<g>
				<path class="st3" d="M306.04,230.11c0,0,0.07-0.19,0.26-0.45c0.18-0.27,0.48-0.61,0.89-0.94c0.42-0.32,0.95-0.63,1.59-0.82
					c0.63-0.2,1.35-0.29,2.08-0.22c0.73,0.07,1.46,0.29,2.05,0.65c0.31,0.16,0.57,0.38,0.8,0.59c0.24,0.2,0.43,0.43,0.58,0.67
					c0.32,0.45,0.47,0.89,0.54,1.21c0.08,0.31,0.09,0.51,0.09,0.51s-0.21-0.01-0.51-0.06c-0.15-0.03-0.33-0.05-0.51-0.09
					c-0.19-0.04-0.42-0.04-0.62-0.08c-0.21-0.04-0.43-0.07-0.66-0.09c-0.22-0.03-0.44-0.07-0.67-0.08
					c-0.12-0.01-0.23-0.03-0.34-0.05c-0.11-0.01-0.23-0.01-0.35-0.03c-0.23-0.03-0.46-0.05-0.69-0.07
					c-0.23-0.05-0.48-0.03-0.71-0.08c-0.24-0.01-0.48-0.05-0.73-0.07c-0.49-0.05-0.98-0.11-1.43-0.18
					c-0.45-0.07-0.86-0.15-1.16-0.21C306.24,230.16,306.04,230.11,306.04,230.11z"/>
			</g>
			<g>
				<path class="st3" d="M300.48,238.01c-0.38,1.67-0.93,3.27-1.52,4.86c-0.6,1.58-1.25,3.14-1.98,4.66l-0.19-0.56
					c1.24,0.78,2.46,1.58,3.62,2.52c-1.4-0.48-2.73-1.1-4.05-1.74l-0.34-0.16l0.14-0.4c0.57-1.59,1.23-3.15,1.93-4.68
					C298.8,240.97,299.56,239.46,300.48,238.01z"/>
			</g>
			<g>
				<path class="st3" d="M300.35,252.85c0,0,0.18,0,0.48,0.03c0.3,0,0.74,0.11,1.24,0.09c0.25,0,0.51,0,0.79,0.01
					c0.27,0.03,0.57-0.05,0.88-0.05c0.3-0.03,0.62-0.03,0.92-0.11c0.31-0.06,0.62-0.12,0.94-0.18c0.3-0.1,0.61-0.2,0.9-0.3
					c0.31-0.08,0.57-0.24,0.84-0.37c0.26-0.15,0.56-0.22,0.77-0.4c0.22-0.16,0.45-0.31,0.66-0.44c0.43-0.26,0.69-0.59,0.94-0.77
					c0.24-0.19,0.38-0.3,0.38-0.3s-0.07,0.16-0.21,0.43c-0.08,0.14-0.17,0.3-0.27,0.49c-0.11,0.19-0.22,0.41-0.42,0.59
					c-0.18,0.2-0.38,0.41-0.6,0.63c-0.21,0.24-0.5,0.39-0.78,0.58c-0.29,0.17-0.57,0.4-0.92,0.5c-0.34,0.12-0.68,0.25-1.02,0.37
					c-0.36,0.06-0.71,0.11-1.07,0.17c-0.35,0.08-0.7,0.03-1.04,0.03c-0.34-0.02-0.66,0-0.96-0.09c-0.31-0.06-0.59-0.13-0.85-0.2
					c-0.52-0.11-0.88-0.36-1.16-0.47C300.5,252.94,300.35,252.85,300.35,252.85z"/>
			</g>
		</g>
	</g>
</g>
</svg>
