<?xml version="1.0" encoding="utf-8"?>
<!-- Generator: Adobe Illustrator 24.1.3, SVG Export Plug-In . SVG Version: 6.00 Build 0)  -->
<svg version="1.1" xmlns="http://www.w3.org/2000/svg" xmlns:xlink="http://www.w3.org/1999/xlink" x="0px" y="0px"
	 viewBox="0 0 750 500" style="enable-background:new 0 0 750 500;" xml:space="preserve">
<style type="text/css">
	.st0{opacity:0.41;fill:#B4D3AF;}
	.st1{fill:#FAFAFA;}
	.st2{fill:#E0E0E0;}
	.st3{display:none;}
	.st4{display:inline;}
	.st5{fill:#F5F5F5;}
	.st6{fill:#518A49;}
	.st7{fill:#455A64;}
	.st8{fill:#FFFFFF;}
	.st9{opacity:0.4;}
	.st10{opacity:0.2;}
	.st11{fill:#263238;}
	.st12{fill:#FF725E;}
</style>
<g id="Background_Complete">
	<path class="st0" d="M317.01,194.93c53.83,15.97,154.31-79.26,214.97-9.54s75.09,213.73,71.64,229.95
		c-3.45,16.22-321.43,178.61-490.31,15.58c0,0-192.51-375.34,89.27-351.51"/>
	<g>
		<g>
			<g>
				<rect x="457.61" y="441.62" class="st1" width="24.33" height="6.44"/>
			</g>
		</g>
		<g>
			<g>
				<g>
					<path class="st2" d="M471.65,454.84c0,0,0-0.04-0.01-0.12c0-0.09,0-0.19-0.01-0.33c0-0.3-0.01-0.73-0.02-1.27
						c-0.01-1.11-0.02-2.71-0.04-4.72l0.08,0.08c-5.55,0.01-14.39,0.03-24.32,0.05c0.05-0.06-0.13,0.12,0.12-0.12v0v0v0.01v0.01
						v0.03v0.05v0.1v0.21v0.41c0,0.27,0,0.55,0,0.82c0,0.55,0,1.09,0,1.62c0,1.07,0,2.13,0,3.17l-0.12-0.12
						c6.93,0.02,12.99,0.04,17.34,0.06c2.17,0.01,3.9,0.03,5.12,0.03c0.59,0.01,1.05,0.01,1.38,0.02c0.15,0,0.27,0.01,0.36,0.01
						C471.6,454.83,471.65,454.83,471.65,454.84c0,0-0.04,0.01-0.11,0.01c-0.09,0-0.2,0-0.35,0.01c-0.32,0-0.78,0.01-1.36,0.02
						c-1.21,0.01-2.94,0.02-5.09,0.03c-4.37,0.01-10.46,0.03-17.42,0.06l-0.12,0l0-0.12c0-1.03,0-2.09,0-3.17c0-0.54,0-1.08,0-1.62
						c0-0.27,0-0.55,0-0.82v-0.41v-0.21v-0.1v-0.05v-0.03v-0.01v-0.01v0v0c0.25-0.25,0.07-0.07,0.13-0.12
						c9.94,0.02,18.77,0.04,24.32,0.05l0.08,0l0,0.08c-0.02,2.03-0.03,3.65-0.04,4.77c-0.01,0.53-0.01,0.95-0.02,1.25
						c0,0.13-0.01,0.23-0.01,0.32C471.66,454.8,471.65,454.84,471.65,454.84z"/>
				</g>
			</g>
		</g>
	</g>
	<g>
		<g>
			<g>
				<rect x="-10.8" y="256.52" class="st1" width="24.33" height="6.44"/>
			</g>
		</g>
		<g>
			<g>
				<g>
					<path class="st2" d="M3.24,269.73c0,0,0-0.04-0.01-0.12c0-0.09,0-0.19-0.01-0.33c0-0.3-0.01-0.73-0.02-1.27
						c-0.01-1.11-0.02-2.71-0.04-4.72l0.08,0.08c-5.55,0.01-14.39,0.03-24.32,0.05c0.05-0.06-0.13,0.12,0.12-0.12v0v0v0.01v0.01
						v0.03v0.05v0.1v0.21v0.41c0,0.27,0,0.55,0,0.82c0,0.55,0,1.09,0,1.62c0,1.07,0,2.13,0,3.17l-0.12-0.12
						c6.93,0.02,12.99,0.04,17.34,0.06c2.17,0.01,3.9,0.03,5.12,0.03c0.59,0.01,1.05,0.01,1.38,0.02c0.15,0,0.27,0.01,0.36,0.01
						C3.19,269.73,3.24,269.73,3.24,269.73c0,0-0.04,0.01-0.11,0.01c-0.09,0-0.2,0-0.35,0.01c-0.32,0-0.78,0.01-1.36,0.02
						c-1.21,0.01-2.94,0.02-5.09,0.03c-4.37,0.01-10.46,0.03-17.42,0.06l-0.12,0l0-0.12c0-1.03,0-2.09,0-3.17c0-0.54,0-1.08,0-1.62
						c0-0.27,0-0.55,0-0.82v-0.41v-0.21v-0.1v-0.05v-0.03v-0.01v-0.01v0v0c0.25-0.25,0.07-0.07,0.13-0.12
						c9.94,0.02,18.77,0.04,24.32,0.05l0.08,0l0,0.08c-0.02,2.03-0.03,3.65-0.04,4.77c-0.01,0.53-0.01,0.95-0.02,1.25
						c0,0.13-0.01,0.23-0.01,0.32C3.24,269.7,3.24,269.74,3.24,269.73z"/>
				</g>
			</g>
		</g>
	</g>
	<g>
		<g>
			<g>
				<g>
					<path class="st2" d="M487.19,236.01c0,0-0.01-0.04-0.01-0.12c0-0.09,0-0.19-0.01-0.33c0-0.3-0.01-0.73-0.02-1.27
						c-0.01-1.11-0.02-2.71-0.04-4.72l0.08,0.08c-5.55,0.01-14.39,0.03-24.32,0.05c0.05-0.06-0.13,0.12,0.12-0.12v0v0v0.01v0.01
						v0.03v0.05v0.1v0.21v0.41c0,0.27,0,0.55,0,0.82c0,0.55,0,1.09,0,1.62c0,1.07,0,2.13,0,3.17l-0.12-0.12
						c6.93,0.02,12.99,0.04,17.34,0.06c2.17,0.01,3.9,0.03,5.12,0.03c0.59,0.01,1.05,0.01,1.38,0.02c0.15,0,0.27,0.01,0.36,0.01
						C487.14,236.01,487.19,236.01,487.19,236.01c0,0-0.04,0.01-0.11,0.01c-0.09,0-0.2,0-0.35,0.01c-0.32,0-0.78,0.01-1.36,0.02
						c-1.21,0.01-2.94,0.02-5.09,0.03c-4.37,0.01-10.46,0.03-17.42,0.06l-0.12,0l0-0.12c0-1.03,0-2.09,0-3.17c0-0.54,0-1.08,0-1.62
						c0-0.27,0-0.55,0-0.82v-0.41v-0.21v-0.1v-0.05v-0.03v-0.01v-0.01v0v0c0.25-0.25,0.07-0.07,0.13-0.12
						c9.94,0.02,18.77,0.04,24.32,0.05l0.08,0l0,0.08c-0.02,2.03-0.03,3.65-0.04,4.77c-0.01,0.53-0.01,0.95-0.02,1.25
						c0,0.13-0.01,0.23-0.01,0.32C487.19,235.98,487.19,236.02,487.19,236.01z"/>
				</g>
			</g>
		</g>
		<g>
			<g>
				<g>
					<path class="st2" d="M490.49,229.58c0,0-0.01-0.04-0.01-0.12c0-0.09-0.01-0.2-0.01-0.34c-0.01-0.32-0.01-0.75-0.02-1.29
						c-0.01-1.13-0.03-2.72-0.05-4.68l0.09,0.09c-3.79,0.01-8.94,0.02-14.61,0.03c-0.11,0.11,0.15-0.15,0.12-0.12v0v0v0.01v0.01
						v0.03v0.05v0.11v0.21l0,0.42c0,0.28,0,0.56,0,0.83c0,0.55,0,1.1,0,1.64c0,1.08,0,2.12,0,3.12l-0.12-0.12
						c4.22,0.02,7.85,0.04,10.46,0.06c1.28,0.01,2.31,0.02,3.05,0.03c0.34,0.01,0.61,0.01,0.82,0.01
						C490.38,229.57,490.48,229.57,490.49,229.58c0,0-0.09,0.01-0.27,0.01c-0.2,0-0.46,0.01-0.8,0.01
						c-0.73,0.01-1.75,0.02-3.02,0.03c-2.62,0.01-6.28,0.03-10.54,0.06l-0.12,0l0-0.12c0-1,0-2.04,0-3.12c0-0.54,0-1.08,0-1.64
						c0-0.28,0-0.55,0-0.83l0-0.42v-0.21v-0.11v-0.05v-0.03v-0.01v-0.01v0v0c-0.03,0.03,0.24-0.24,0.13-0.12
						c5.68,0.01,10.83,0.03,14.61,0.03l0.09,0l0,0.09c-0.02,1.98-0.04,3.59-0.05,4.74c-0.01,0.53-0.02,0.96-0.02,1.27
						C490.5,229.44,490.49,229.59,490.49,229.58z"/>
				</g>
			</g>
		</g>
	</g>
</g>
<g id="Background_Simple" class="st3">
	<g class="st4">
		<path class="st5" d="M260.05,75.43l0.67-1.97c5.67-16.56,19.78-28.89,36.93-31.53c2.2-0.34,4.43-0.52,6.67-0.53
			c16.1-0.08,32.03,8.62,40.83,22.3c5.18,8.04,8.3,17.93,16.01,23.52c10.04,7.28,23.78,4.57,35.72,1.56
			c11.94-3.01,25.7-5.69,35.7,1.64c6.27,4.59,9.63,12.33,10.9,20.04c3.35,20.41-6.76,41.52-22.67,54.4
			c-15.91,12.88-36.78,18.29-57.21,18.64c-28.62,0.48-58-8.98-78.8-28.98C264.02,134.52,253.06,103.47,260.05,75.43z"/>
	</g>
	<g class="st4">
		<circle class="st5" cx="191.68" cy="85" r="27.46"/>
	</g>
</g>
<g id="Floor">
	<path class="st6" d="M986.84,169.98c-14.85,55.51-29.7,111.03-44.56,166.54h44.56V169.98z"/>
	<path class="st6" d="M1051.69,169.98c14.85,55.51,29.7,111.03,44.56,166.54h-44.56V169.98z"/>
	<g>
		<g>
			<path class="st6" d="M981.15,349.67v42.01h-13.17V375.3h-12.52v16.37h-13.17v-42.01h13.17v15.13h12.52v-15.13H981.15z"/>
			<path class="st6" d="M999.96,349.67v23.67c0,1.94,0.42,3.47,1.28,4.6c0.85,1.13,2.22,1.69,4.12,1.69s3.3-0.56,4.21-1.69
				c0.91-1.13,1.36-2.66,1.36-4.6v-23.67h13.11v23.67c0,4-0.83,7.41-2.49,10.23c-1.66,2.83-3.94,4.95-6.82,6.38
				c-2.89,1.42-6.11,2.14-9.67,2.14c-3.56,0-6.71-0.71-9.46-2.14c-2.75-1.42-4.89-3.54-6.44-6.35c-1.54-2.81-2.31-6.23-2.31-10.26
				v-23.67H999.96z"/>
			<path class="st6" d="M1062.25,371.29c-1.23,2.16-3.04,3.87-5.43,5.13c-2.39,1.27-5.29,1.9-8.69,1.9h-5.22v13.35h-13.17v-42.01
				h18.39c5.14,0,9.09,1.31,11.84,3.92c2.75,2.61,4.12,6.11,4.12,10.5C1064.09,366.73,1063.48,369.14,1062.25,371.29z
				 M1050.74,364.08c0-2.57-1.36-3.86-4.09-3.86h-3.74v7.71h3.74C1049.38,367.94,1050.74,366.65,1050.74,364.08z"/>
			<path class="st6" d="M1081.41,360.17v5.16h13.05v9.91h-13.05v5.93h14.83v10.5h-28v-42.01h28v10.5H1081.41z"/>
		</g>
	</g>
	<rect x="1004.71" y="246.96" class="st6" width="29.11" height="34.52"/>
</g>
<g id="Device">
	<g>
		<g>
			<g>
				<g>
					<g>
						<g>
							<g>
								<g>
									<g>
										<g>
											<g>
												<path class="st7" d="M435.27,414.22l-108.54-0.06c-13.05-0.01-23.63-10.15-23.63-22.67l0.05-260.84
													c0-12.52,10.6-22.67,23.66-22.66l108.54,0.06c13.05,0.01,23.63,10.15,23.63,22.67l-0.05,260.84
													C458.92,404.08,448.33,414.23,435.27,414.22z"/>
											</g>
										</g>
									</g>
								</g>
							</g>
						</g>
						<g>
							<g>
								<path class="st8" d="M435.23,117.28l-21.04-0.01l-61.46-0.03l-7.4,0l-18.42-0.01c-9.15,0-16.57,7.1-16.57,15.87l-0.05,254.6
									c0,8.76,7.41,15.87,16.55,15.88l108.33,0.06c9.15,0.01,16.57-7.1,16.57-15.87l0.05-254.6
									C451.79,124.39,444.38,117.29,435.23,117.28z"/>
							</g>
						</g>
					</g>
				</g>
			</g>
		</g>
		<g>
			<g>
				<path class="st6" d="M363.84,327.62c-0.81,0.82-1.97,1.34-3.5,1.57v2.26h-2.44v-2.17c-1.02-0.07-1.98-0.24-2.88-0.52
					c-0.91-0.28-1.66-0.62-2.26-1.03l1.32-2.97c0.64,0.42,1.38,0.76,2.21,1.02c0.84,0.26,1.67,0.39,2.48,0.39
					c1.54,0,2.32-0.39,2.32-1.16c0-0.41-0.22-0.71-0.66-0.9c-0.44-0.2-1.15-0.4-2.12-0.62c-1.07-0.23-1.96-0.48-2.68-0.74
					c-0.72-0.26-1.33-0.69-1.85-1.27c-0.51-0.58-0.77-1.37-0.77-2.36c0-1.17,0.42-2.16,1.26-3c0.84-0.83,2.05-1.34,3.64-1.53v-2.24
					h2.44v2.19c0.77,0.07,1.51,0.2,2.22,0.41c0.71,0.2,1.34,0.47,1.9,0.79l-1.24,2.99c-1.36-0.73-2.67-1.1-3.94-1.1
					c-0.8,0-1.38,0.12-1.75,0.36c-0.37,0.24-0.55,0.55-0.55,0.92s0.22,0.66,0.65,0.85c0.43,0.19,1.13,0.39,2.09,0.59
					c1.08,0.23,1.98,0.48,2.69,0.74c0.71,0.26,1.33,0.68,1.85,1.26c0.52,0.58,0.78,1.36,0.78,2.35
					C365.05,325.82,364.65,326.8,363.84,327.62z"/>
			</g>
			<g>
				<path class="st6" d="M380.34,327.62c-0.81,0.82-1.97,1.34-3.5,1.57v2.26h-2.44v-2.17c-1.02-0.07-1.98-0.24-2.88-0.52
					c-0.91-0.28-1.66-0.62-2.26-1.03l1.32-2.97c0.64,0.42,1.38,0.76,2.21,1.02c0.84,0.26,1.67,0.39,2.48,0.39
					c1.54,0,2.32-0.39,2.32-1.16c0-0.41-0.22-0.71-0.66-0.9c-0.44-0.2-1.15-0.4-2.12-0.62c-1.07-0.23-1.96-0.48-2.68-0.74
					c-0.72-0.26-1.33-0.69-1.85-1.27c-0.51-0.58-0.77-1.37-0.77-2.36c0-1.17,0.42-2.16,1.26-3c0.84-0.83,2.05-1.34,3.64-1.53v-2.24
					h2.44v2.19c0.77,0.07,1.51,0.2,2.22,0.41c0.71,0.2,1.34,0.47,1.9,0.79l-1.24,2.99c-1.36-0.73-2.67-1.1-3.94-1.1
					c-0.8,0-1.38,0.12-1.75,0.36c-0.37,0.24-0.55,0.55-0.55,0.92s0.22,0.66,0.65,0.85c0.43,0.19,1.13,0.39,2.09,0.59
					c1.08,0.23,1.98,0.48,2.69,0.74c0.71,0.26,1.33,0.68,1.85,1.26c0.52,0.58,0.78,1.36,0.78,2.35
					C381.55,325.82,381.15,326.8,380.34,327.62z"/>
			</g>
			<g>
				<path class="st6" d="M396.84,327.62c-0.81,0.82-1.97,1.34-3.5,1.57v2.26h-2.44v-2.17c-1.02-0.07-1.98-0.24-2.88-0.52
					c-0.91-0.28-1.66-0.62-2.26-1.03l1.32-2.97c0.64,0.42,1.38,0.76,2.21,1.02c0.84,0.26,1.67,0.39,2.48,0.39
					c1.54,0,2.32-0.39,2.32-1.16c0-0.41-0.22-0.71-0.66-0.9c-0.44-0.2-1.15-0.4-2.12-0.62c-1.07-0.23-1.96-0.48-2.68-0.74
					c-0.72-0.26-1.34-0.69-1.85-1.27c-0.51-0.58-0.77-1.37-0.77-2.36c0-1.17,0.42-2.16,1.26-3c0.84-0.83,2.05-1.34,3.64-1.53v-2.24
					h2.44v2.19c0.77,0.07,1.51,0.2,2.22,0.41c0.71,0.2,1.34,0.47,1.9,0.79l-1.24,2.99c-1.36-0.73-2.67-1.1-3.94-1.1
					c-0.8,0-1.38,0.12-1.75,0.36c-0.37,0.24-0.55,0.55-0.55,0.92s0.22,0.66,0.65,0.85c0.43,0.19,1.13,0.39,2.09,0.59
					c1.08,0.23,1.98,0.48,2.69,0.74c0.71,0.26,1.33,0.68,1.85,1.26c0.52,0.58,0.78,1.36,0.78,2.35
					C398.05,325.82,397.65,326.8,396.84,327.62z"/>
			</g>
			<g>
				<path class="st6" d="M413.34,327.62c-0.81,0.82-1.97,1.34-3.5,1.57v2.26h-2.44v-2.17c-1.02-0.07-1.98-0.24-2.88-0.52
					c-0.91-0.28-1.66-0.62-2.26-1.03l1.32-2.97c0.64,0.42,1.38,0.76,2.21,1.02c0.84,0.26,1.67,0.39,2.48,0.39
					c1.54,0,2.32-0.39,2.32-1.16c0-0.41-0.22-0.71-0.66-0.9c-0.44-0.2-1.15-0.4-2.12-0.62c-1.07-0.23-1.96-0.48-2.68-0.74
					c-0.72-0.26-1.33-0.69-1.85-1.27c-0.51-0.58-0.77-1.37-0.77-2.36c0-1.17,0.42-2.16,1.26-3c0.84-0.83,2.05-1.34,3.64-1.53v-2.24
					h2.44v2.19c0.77,0.07,1.51,0.2,2.22,0.41c0.71,0.2,1.34,0.47,1.9,0.79l-1.24,2.99c-1.36-0.73-2.67-1.1-3.94-1.1
					c-0.8,0-1.38,0.12-1.75,0.36c-0.37,0.24-0.55,0.55-0.55,0.92s0.22,0.66,0.65,0.85c0.43,0.19,1.13,0.39,2.09,0.59
					c1.08,0.23,1.98,0.48,2.69,0.74c0.71,0.26,1.33,0.68,1.85,1.26c0.52,0.58,0.78,1.36,0.78,2.35
					C414.55,325.82,414.15,326.8,413.34,327.62z"/>
			</g>
		</g>
		<g>
			<path class="st2" d="M423.48,157.43h-80.43c-2.43,0-4.4-1.97-4.4-4.4v-0.23c0-2.43,1.97-4.4,4.4-4.4h80.43
				c2.43,0,4.4,1.97,4.4,4.4v0.23C427.87,155.46,425.9,157.43,423.48,157.43z"/>
		</g>
		<g>
			<path class="st2" d="M427.54,262.93h-87.82c-2.43,0-4.4-1.97-4.4-4.4v-0.23c0-2.43,1.97-4.4,4.4-4.4h87.82
				c2.43,0,4.4,1.97,4.4,4.4v0.23C431.93,260.97,429.97,262.93,427.54,262.93z"/>
		</g>
		<g>
			<path class="st2" d="M427.54,280.01h-87.82c-2.43,0-4.4-1.97-4.4-4.4v-0.23c0-2.43,1.97-4.4,4.4-4.4h87.82
				c2.43,0,4.4,1.97,4.4,4.4v0.23C431.93,278.04,429.97,280.01,427.54,280.01z"/>
		</g>
		<g>
			<path class="st2" d="M427.54,297.09h-87.82c-2.43,0-4.4-1.97-4.4-4.4v-0.23c0-2.43,1.97-4.4,4.4-4.4h87.82
				c2.43,0,4.4,1.97,4.4,4.4v0.23C431.93,295.12,429.97,297.09,427.54,297.09z"/>
		</g>
		<g>
			<g>
				<g>
					<path class="st6" d="M428.54,382.11h-86.22c-1.87,0-3.39-1.52-3.39-3.39v-23.71c0-1.87,1.52-3.39,3.39-3.39h86.22
						c1.87,0,3.39,1.52,3.39,3.39v23.71C431.93,380.59,430.42,382.11,428.54,382.11z"/>
				</g>
			</g>
			<g>
				<path class="st8" d="M367.85,368.62h-1.81v3.11h-3.31v-11.72h5.36c1.06,0,1.98,0.18,2.76,0.53c0.78,0.35,1.38,0.85,1.81,1.51
					c0.42,0.65,0.64,1.42,0.64,2.3c0,0.85-0.2,1.59-0.59,2.22c-0.4,0.63-0.96,1.12-1.7,1.48l2.53,3.68h-3.55L367.85,368.62z
					 M369.42,363.08c-0.35-0.3-0.86-0.45-1.54-0.45h-1.84v3.43h1.84c0.68,0,1.19-0.15,1.54-0.44c0.35-0.3,0.52-0.72,0.52-1.26
					S369.76,363.38,369.42,363.08z"/>
				<path class="st8" d="M384.52,369.17v2.56h-9.41v-11.72h9.19v2.56h-5.91v1.98h5.21v2.48h-5.21v2.14H384.52z"/>
				<path class="st8" d="M397.51,360.02v11.72h-2.73l-5.17-6.24v6.24h-3.25v-11.72h2.73l5.17,6.24v-6.24H397.51z"/>
				<path class="st8" d="M402.34,362.65h-3.6v-2.63h10.5v2.63h-3.58v9.09h-3.31V362.65z"/>
			</g>
		</g>
		<g>
			<path class="st6" d="M352.2,142.09c-0.73-0.39-1.3-0.93-1.72-1.62c-0.42-0.69-0.63-1.48-0.63-2.35c0-0.88,0.21-1.66,0.63-2.35
				c0.42-0.69,0.99-1.23,1.72-1.62c0.73-0.39,1.55-0.58,2.47-0.58c0.8,0,1.52,0.14,2.17,0.43c0.64,0.28,1.18,0.69,1.6,1.23
				l-1.58,1.43c-0.57-0.68-1.26-1.03-2.07-1.03c-0.48,0-0.9,0.1-1.27,0.31c-0.37,0.21-0.66,0.5-0.86,0.88
				c-0.21,0.38-0.31,0.82-0.31,1.31c0,0.49,0.1,0.93,0.31,1.31c0.2,0.38,0.49,0.67,0.86,0.88c0.37,0.21,0.79,0.31,1.27,0.31
				c0.81,0,1.5-0.34,2.07-1.03l1.58,1.43c-0.43,0.53-0.96,0.94-1.6,1.23c-0.64,0.28-1.37,0.43-2.17,0.43
				C353.75,142.67,352.93,142.47,352.2,142.09z"/>
			<path class="st6" d="M365.26,140.79h-3.71l-0.69,1.7h-2.53l3.87-8.77h2.44l3.88,8.77h-2.58L365.26,140.79z M364.54,138.96
				l-1.13-2.8l-1.13,2.8H364.54z"/>
			<path class="st6" d="M373.07,140.16h-1.35v2.33h-2.48v-8.77h4.01c0.79,0,1.48,0.13,2.07,0.39c0.58,0.26,1.04,0.64,1.35,1.13
				c0.32,0.49,0.48,1.06,0.48,1.72c0,0.63-0.15,1.19-0.44,1.66c-0.3,0.47-0.72,0.84-1.27,1.11l1.89,2.75h-2.65L373.07,140.16z
				 M374.24,136.02c-0.26-0.23-0.64-0.34-1.15-0.34h-1.38v2.57h1.38c0.51,0,0.89-0.11,1.15-0.33c0.26-0.22,0.39-0.54,0.39-0.95
				C374.63,136.56,374.5,136.24,374.24,136.02z"/>
			<path class="st6" d="M388.68,142.49l-2-2.82c-0.23,0.02-0.46,0.04-0.7,0.04h-2.35v2.78h-0.93v-8.77h3.28c1.12,0,2,0.27,2.63,0.8
				c0.63,0.53,0.95,1.27,0.95,2.2c0,0.68-0.17,1.26-0.52,1.73c-0.35,0.47-0.84,0.81-1.48,1.02l2.14,3.01H388.68z M387.94,138.35
				c0.46-0.38,0.69-0.92,0.69-1.62c0-0.71-0.23-1.25-0.69-1.63c-0.46-0.38-1.12-0.57-1.99-0.57h-2.33v4.39h2.33
				C386.82,138.92,387.48,138.73,387.94,138.35z"/>
			<path class="st6" d="M397.95,141.69v0.8h-6.2v-8.77h6.01v0.8h-5.08v3.12h4.53v0.79h-4.53v3.26H397.95z"/>
			<path class="st6" d="M407.45,133.73v8.77h-0.76l-5.63-7.11v7.11h-0.93v-8.77h0.76l5.65,7.11v-7.11H407.45z"/>
			<path class="st6" d="M412.01,134.53h-3.08v-0.8h7.09v0.8h-3.08v7.96h-0.93V134.53z"/>
		</g>
	</g>
	<g>
		<path class="st8" d="M78.79,461.95c-3.56,0-6.56-0.06-9.56,0.02c-2.47,0.06-4,1.58-3.98,3.75c0.02,2.16,1.57,3.59,4.04,3.71
			c0.53,0.03,1.07,0.01,1.61,0.01c78.68,0,157.37,0,236.05,0c0.89,0,1.81,0.09,2.67-0.11c1.86-0.44,2.94-1.68,2.95-3.62
			c0.01-1.95-1.07-3.19-2.92-3.64c-0.85-0.21-1.77-0.12-2.66-0.12c-14.1-0.01-28.19,0-42.29,0c-0.92,0-1.83,0-3.14,0
			c13.01-13.57,11.19-31.62,1.09-42.17c-10.28-10.74-26.65-12.29-38.45-3.51c-7.36,5.47-11.53,12.81-12.16,21.96
			c-0.63,9.21,2.99,16.91,9.54,23.58c-34.47,0-68.49,0-102.97,0c6.37-6.47,9.51-13.93,9.22-22.62c-0.29-8.86-3.99-16.2-10.81-21.84
			c-11.97-9.9-29.01-8.83-39.73,2.33C66.95,430.43,65.16,448.26,78.79,461.95z"/>
		<path class="st6" d="M51.84,371.99c1.21-1.15,2.28-2.52,3.66-3.4c8.66-5.5,18.14-8.59,28.37-9.49c0.93-0.08,2.16-1.09,2.58-1.99
			c4.91-10.39,9.75-20.81,14.47-31.3c1.19-2.64,2.8-3.71,5.74-3.68c11.15,0.14,22.31,0.06,33.46,0.06c5.08,0,5.96,0.86,5.96,5.84
			c0,21.24,0,42.47,0,63.71c0,0.97,0,1.94,0,3.09c19.28,0,38.41,0,57.68,0c0-2.86,0-5.68,0-8.92c-0.89,0-1.82,0-2.76,0
			c-9.1,0-18.2,0.02-27.31,0c-8.53-0.02-13.69-5.17-13.69-13.64c-0.01-29.09-0.04-58.18,0.06-87.27c0.01-2.39-0.73-3.41-2.95-4.14
			c-4.14-1.37-8.16-3.08-12.22-4.69c-3.48-1.38-4.47-3.14-3.98-6.85c0.29-2.21,0.54-4.43,0.8-6.64c0.41-3.41,2.07-4.65,5.47-4
			c10.24,1.96,20.48,3.93,30.72,5.9c0.7,0.13,1.4,0.32,2.1,0.38c6.17,0.52,11.17,3.13,15.78,7.36c7.28,6.69,15.07,12.84,22.71,19.15
			c0.89,0.74,2.16,1.28,3.31,1.42c16.2,1.97,32.4,3.84,48.6,5.78c14.78,1.77,29.56,3.49,44.31,5.44
			c8.03,1.06,11.26,5.07,11.26,13.21c0.01,18.2,0,36.41,0,54.61c0,8.99-5.05,13.99-14.14,14c-10.98,0.01-21.95,0-32.93,0.01
			c-0.43,0-0.87,0.05-1.48,0.08c0,2.96,0,5.84,0,9.02c4.04,0,8.03,0,12.01,0c6.34,0,12.67-0.02,19.01,0.01
			c3.41,0.01,4.66,1.27,4.67,4.7c0.02,9.37,0.02,18.74,0,28.11c-0.01,3.21-1.23,4.63-4.18,4.64c-10.26,0.05-20.52,0.02-30.84,0.02
			c-6.24-18.84-18.64-30.25-39.03-29.16c-17.99,0.97-28.88,11.93-33.8,29.08c-23.36,0-46.73,0-70.15,0
			c-6.35-19.01-18.93-30.43-39.57-29.05c-17.59,1.18-28.34,11.98-33.22,29.09c-3.49-0.41-7.45,1.44-10.5-2.11c0-6.6,0-13.21,0-19.81
			c5.26,0,10.52,0.02,15.79-0.01c3.24-0.02,4.53-1.31,4.55-4.55c0.03-5.89,0.03-11.77,0-17.66c-0.02-3.24-1.3-4.52-4.55-4.55
			c-5.26-0.03-10.52-0.01-15.79-0.01C51.84,379.84,51.84,375.91,51.84,371.99z M117.24,366.63c3.74,0,7.48,0.02,11.23-0.01
			c3.45-0.02,4.73-1.25,4.75-4.61c0.03-7.31,0.03-14.61,0-21.92c-0.01-3.21-1.33-4.48-4.58-4.51c-4.54-0.03-9.09,0.06-13.63-0.03
			c-2.57-0.05-4.17,0.98-5.09,3.4c-2.73,7.24-5.58,14.43-8.32,21.67c-1.37,3.62,0.27,5.95,4.16,6
			C109.58,366.67,113.41,366.63,117.24,366.63z M196.94,341.99c0-7.67,0.01-15.34-0.01-23.01c-0.01-3.12-1.35-4.81-3.75-4.81
			c-2.39,0-3.74,1.69-3.74,4.82c-0.01,15.34-0.01,30.68,0,46.02c0,3.12,1.36,4.81,3.75,4.81c2.39,0,3.73-1.7,3.74-4.82
			C196.95,357.33,196.94,349.66,196.94,341.99z M223.18,342.24c0-7.76,0.01-15.52-0.01-23.28c-0.01-3.1-1.37-4.8-3.77-4.78
			c-2.39,0.02-3.71,1.71-3.72,4.84c-0.01,15.34-0.01,30.68,0,46.02c0,3.1,1.38,4.8,3.77,4.79c2.39-0.02,3.71-1.71,3.71-4.84
			C223.19,357.4,223.18,349.82,223.18,342.24z M242.46,341.73c0,7.76-0.01,15.52,0.01,23.28c0.01,3.12,1.35,4.81,3.74,4.81
			c2.39,0,3.74-1.69,3.74-4.81c0.01-15.34,0.01-30.68,0-46.02c0-3.12-1.35-4.81-3.74-4.81c-2.39,0-3.74,1.69-3.74,4.81
			C242.44,326.57,242.46,334.15,242.46,341.73z M276.19,342.27c0-7.76,0.01-15.52-0.01-23.28c-0.01-3.12-1.35-4.81-3.74-4.81
			c-2.39,0-3.74,1.69-3.75,4.81c-0.01,15.34-0.01,30.68,0,46.02c0,3.12,1.35,4.82,3.74,4.82c2.39,0,3.74-1.69,3.74-4.81
			C276.2,357.43,276.19,349.85,276.19,342.27z M224.37,394.87c2.59,0,4.87,0,7.21,0c0-3.02,0-5.9,0-8.77c-2.51,0-4.85,0-7.21,0
			C224.37,389.1,224.37,391.91,224.37,394.87z M256.26,386.05c-2.59,0-4.87,0-7.21,0c0,3.02,0,5.9,0,8.77c2.51,0,4.85,0,7.21,0
			C256.26,391.82,256.26,389,256.26,386.05z"/>
		<path class="st6" d="M51.84,391.26c4.16,0,8.32,0,12.67,0c0,3.91,0,7.67,0,11.78c-4.21,0-8.44,0-12.67,0
			C51.84,399.11,51.84,395.19,51.84,391.26z"/>
		<path class="st6" d="M78.79,461.95c-13.62-13.69-11.84-31.52-1.5-42.28c10.71-11.16,27.76-12.23,39.73-2.33
			c6.82,5.64,10.51,12.97,10.81,21.84c0.29,8.69-2.85,16.15-9.22,22.62c34.48,0,68.5,0,102.97,0c-6.55-6.66-10.17-14.36-9.54-23.58
			c0.63-9.15,4.8-16.48,12.16-21.96c11.81-8.78,28.18-7.23,38.45,3.51c10.1,10.56,11.92,28.6-1.09,42.17c1.31,0,2.22,0,3.14,0
			c14.1,0,28.19,0,42.29,0c0.89,0,1.82-0.09,2.66,0.12c1.85,0.45,2.93,1.69,2.92,3.64c-0.01,1.94-1.09,3.19-2.95,3.62
			c-0.85,0.2-1.77,0.11-2.67,0.11c-78.68,0-157.37,0-236.05,0c-0.54,0-1.07,0.02-1.61-0.01c-2.48-0.13-4.02-1.55-4.04-3.71
			c-0.02-2.17,1.52-3.69,3.98-3.75C72.22,461.89,75.22,461.95,78.79,461.95z M257.44,439.96c-0.04-8.6-7.55-16.07-16.12-16.03
			c-8.55,0.03-16.01,7.58-15.98,16.17c0.02,9.05,7.14,16.02,16.26,15.94C250.55,455.96,257.48,448.93,257.44,439.96z M114.48,440.07
			c0-8.61-7.46-16.12-16.03-16.14c-8.56-0.01-16.1,7.53-16.08,16.09c0.02,8.56,7.55,16.03,16.15,16.02
			C107.47,456.03,114.47,449.03,114.48,440.07z"/>
		<path class="st8" d="M117.24,366.63c-3.83,0-7.66,0.04-11.49-0.01c-3.89-0.05-5.53-2.38-4.16-6c2.74-7.24,5.59-14.43,8.32-21.67
			c0.91-2.42,2.51-3.45,5.09-3.4c4.54,0.09,9.09,0,13.63,0.03c3.26,0.02,4.57,1.3,4.58,4.51c0.03,7.31,0.03,14.61,0,21.92
			c-0.01,3.37-1.29,4.59-4.75,4.61C124.73,366.65,120.98,366.63,117.24,366.63z M110.29,358.97c5.37,0,10.31,0,15.27,0
			c0-5.35,0-10.54,0-15.9c-2.64,0-5.12-0.08-7.59,0.05c-0.62,0.03-1.53,0.58-1.76,1.12C114.19,349.06,112.3,353.92,110.29,358.97z"
			/>
		<path class="st8" d="M196.94,341.99c0,7.67,0.01,15.34-0.01,23.01c-0.01,3.12-1.35,4.81-3.74,4.82c-2.39,0-3.75-1.69-3.75-4.81
			c-0.01-15.34-0.01-30.68,0-46.02c0-3.12,1.35-4.81,3.74-4.82c2.39,0,3.74,1.69,3.75,4.81
			C196.95,326.65,196.94,334.32,196.94,341.99z"/>
		<path class="st8" d="M224.37,394.87c0-2.95,0-5.77,0-8.77c2.36,0,4.7,0,7.21,0c0,2.87,0,5.75,0,8.77
			C229.24,394.87,226.96,394.87,224.37,394.87z"/>
		<path class="st8" d="M256.26,386.05c0,2.95,0,5.77,0,8.77c-2.36,0-4.7,0-7.21,0c0-2.87,0-5.75,0-8.77
			C251.39,386.05,253.67,386.05,256.26,386.05z"/>
		<path class="st8" d="M257.44,439.96c0.05,8.96-6.88,15.99-15.85,16.08c-9.12,0.09-16.24-6.89-16.26-15.94
			c-0.02-8.6,7.43-16.14,15.98-16.17C249.88,423.9,257.39,431.37,257.44,439.96z M241.25,431.43c-4.81,0.06-8.53,3.95-8.43,8.82
			c0.1,4.67,3.96,8.36,8.68,8.29c4.72-0.06,8.46-3.86,8.42-8.55C249.9,435.11,246.1,431.37,241.25,431.43z"/>
		<path class="st8" d="M98.46,448.54c4.69,0.02,8.51-3.78,8.51-8.47c0-4.78-3.69-8.6-8.35-8.64c-4.45-0.04-8.78,4.27-8.77,8.72
			C89.88,444.81,93.69,448.52,98.46,448.54z"/>
		<path class="st6" d="M110.29,358.97c2.01-5.06,3.91-9.92,5.92-14.73c0.23-0.54,1.14-1.09,1.76-1.12c2.47-0.13,4.95-0.05,7.59-0.05
			c0,5.36,0,10.55,0,15.9C120.59,358.97,115.66,358.97,110.29,358.97z"/>
		<path class="st6" d="M241.25,431.43c4.85-0.06,8.64,3.68,8.68,8.56c0.04,4.69-3.7,8.49-8.42,8.55c-4.73,0.06-8.59-3.62-8.68-8.29
			C232.73,435.38,236.44,431.49,241.25,431.43z"/>
		<path class="st6" d="M98.46,448.54c-4.77-0.02-8.58-3.73-8.6-8.39c-0.02-4.45,4.32-8.76,8.77-8.72c4.66,0.04,8.35,3.86,8.35,8.64
			C106.97,444.76,103.16,448.56,98.46,448.54z"/>
	</g>
</g>
<g id="Car">
	<g>
		<g>
			<g>
				<rect x="962.84" y="21.19" class="st2" width="503.33" height="68.39"/>
			</g>
		</g>
		<g class="st9">
			<g>
				<rect x="962.84" y="21.19" width="503.33" height="68.39"/>
			</g>
		</g>
		<g>
			<g>
				<path class="st2" d="M1495.22,17.14c-14.3-8.85-51.42-22.73-61.72-23.91c-6.24-0.72-34.01-4.54-34.01-4.54l-9-0.72
					c0,0-95.7-47.44-110.92-53.32c-23.57-9.11-73.39-17.03-126.21-10.52c0,0-70.58,6.46-86.27,11
					c-15.69,4.54-91.58,28.21-91.58,28.21s-33.27,3.5-32.75,4.78c0,0,0.46,2.15,3.23,4.78v21.28c0,0-3.69,5.02-4.61,7.41
					c-0.92,2.39-3,21.28-3,21.28s-9.95,23.67-9.95,29.89c0,6.22,18.02,30.13,22.4,33.71c4.38,3.59,39.78,8.81,39.78,8.81l-0.06-17.9
					c0.93-27.25,22.15-49.05,48.21-49.05c26.06,0,47.27,21.8,48.21,49.05l0.11,23.19h272.27h3.85l-0.19-17.21
					c-0.1-1.36-0.17-2.73-0.17-4.11c0-28.12,21.6-50.92,48.25-50.92c26.65,0,48.25,22.8,48.25,50.92c0,1.39-0.07,2.75-0.17,4.11
					h0.98v17.21h31.83c0,0,25.83-19.84,25.14-29.89V42.41c0-3.76-1.36-7.37-3.83-10.13C1509.7,28.27,1503.61,22.33,1495.22,17.14z"
					/>
			</g>
		</g>
		<g class="st10">
			<g>
				<path d="M1517.13,50.61l-20.37-7.53l-2.42,11.48l-32.53-1.79c0,0-14.32-28.35-43.6-30.84c-25.07-2.14-44.98,10.78-44.98,10.78
					l-143.25-14.73c0,0-72.66-2.87-100.69-2.51c-28.03,0.36-52.73,21.47-52.73,21.47s-8.27-12.44-37.58-12.72
					c-29.31-0.28-41.54,17.56-41.54,17.56c-20.66-2.8-40.58-11.32-57.14-24.43l-1.43,1.19c-0.3,2.55-0.5,4.34-0.5,4.34
					s-9.95,23.67-9.95,29.89c0,6.22,18.02,30.13,22.4,33.71c4.38,3.59,39.78,8.81,39.78,8.81l-0.06-17.9
					c0.93-27.25,22.15-49.05,48.21-49.05c26.06,0,47.27,21.8,48.21,49.05l0.11,23.19h272.27h3.85l-0.19-17.21
					c-0.1-1.36-0.17-2.73-0.17-4.11c0-28.12,21.6-50.92,48.25-50.92c26.65,0,48.25,22.8,48.25,50.92c0,1.39-0.07,2.75-0.17,4.11
					h0.98v17.21h31.83c0,0,25.83-19.84,25.14-29.89V50.61L1517.13,50.61z"/>
			</g>
		</g>
		<g>
			<g>
				<path class="st11" d="M1025.8-35.11c-2.46,1.83-1.49,5.83,1.51,6.25l24.27,3.36l137.91,15.76l168.15,9.67
					c2.7,0.16,5.38-1.04,6.88-3.37c1.43-2.22,1.97-5.31-1.56-8.83c-7.06-7.03-38.28-25.2-45.61-28.78
					c-7.33-3.58-58.76-35.56-135.53-31.19c-23.24,0.84-67.84,7.72-125.47,15.54c-1.23,0.17-2.41,0.65-3.42,1.4L1025.8-35.11z"/>
			</g>
		</g>
		<g>
			<g>
				<path class="st7" d="M1054.48-28.08c0.34-1.07,12.76-25.38,15.17-26.81c2.41-1.43,102.75-14.65,104.13-12.87
					c1.38,1.79,4.83,52.9,4.83,52.9L1054.48-28.08z"/>
			</g>
		</g>
		<g>
			<g>
				<polygon class="st11" points="1092.71,-58.6 1091.84,-22.93 1097.02,-22.93 1097.02,-59.19 				"/>
			</g>
		</g>
		<g>
			<g>
				<g>
					<path class="st11" d="M1333.85-31.82c0,0,0.09,0.18,0.25,0.54c0.17,0.37,0.4,0.91,0.71,1.62c0.3,0.72,0.73,1.59,1.13,2.67
						c0.41,1.08,0.88,2.33,1.41,3.74c1.99,5.7,4.39,14.31,5.89,25.52c1.52,11.2,2.15,24.98,1.23,40.67
						c-0.45,7.85-1.28,16.17-2.56,24.88c-0.65,4.35-1.39,8.8-2.33,13.32c-0.25,1.12-0.44,2.28-0.89,3.4
						c-0.44,1.1-0.99,2.14-1.57,3.16c-1.17,2.04-2.48,4.01-3.88,5.95l-0.08,0.11l-0.13,0c-33.41-0.63-72.46-1.37-113.98-2.16
						c-21.55-0.51-42.43-1.01-62.21-1.48c-9.89-0.2-19.51-0.41-28.8-0.47c-1.16,0-2.32-0.02-3.46,0c-1.14,0.02-2.29,0.02-3.46-0.04
						c-2.31-0.18-4.55-0.87-6.58-1.92c-2.03-1.05-3.85-2.44-5.46-4.01c-1.62-1.57-3.04-3.29-4.24-5.19l0.01,0.02
						c-10.62-15.16-20.22-29.17-28.61-41.67c-4.18-6.26-8.09-12.13-11.61-17.62c-3.53-5.48-6.73-10.56-9.44-15.26
						c-1.36-2.34-2.61-4.6-3.56-6.84c-0.23-0.56-0.45-1.12-0.67-1.67c-0.22-0.55-0.34-1.12-0.51-1.67
						c-0.14-0.55-0.35-1.08-0.44-1.63c-0.1-0.54-0.2-1.08-0.29-1.6c-0.72-4.23-0.11-7.92,0.69-10.72c0.83-2.82,1.92-4.8,2.72-6.07
						c0.81-1.27,1.34-1.83,1.34-1.83s-0.11,0.16-0.34,0.46c-0.22,0.31-0.54,0.78-0.94,1.41c-0.77,1.28-1.84,3.26-2.64,6.07
						c-0.77,2.79-1.35,6.45-0.62,10.63c0.1,0.52,0.2,1.05,0.3,1.59c0.09,0.54,0.29,1.06,0.44,1.61c0.17,0.54,0.29,1.11,0.52,1.65
						c0.22,0.54,0.44,1.09,0.67,1.65c0.96,2.21,2.21,4.46,3.58,6.79c2.72,4.68,5.93,9.74,9.48,15.21
						c3.53,5.48,7.46,11.33,11.65,17.59c8.42,12.48,18.04,26.46,28.68,41.61l0,0l0.01,0.02c2.34,3.63,5.57,6.91,9.5,8.99
						c1.97,1.02,4.14,1.69,6.38,1.86c1.11,0.06,2.26,0.06,3.41,0.03c1.15-0.02,2.31,0,3.47,0c9.3,0.06,18.91,0.25,28.8,0.45
						c19.78,0.46,40.66,0.95,62.21,1.46c41.52,0.81,80.57,1.58,113.98,2.23l-0.21,0.1c1.38-1.92,2.7-3.88,3.86-5.89
						c0.57-1.01,1.12-2.03,1.54-3.09c0.42-1.04,0.62-2.19,0.87-3.31c0.94-4.5,1.69-8.95,2.35-13.29c1.29-8.69,2.13-17,2.6-24.83
						c0.95-15.66,0.37-29.42-1.11-40.6c-1.45-11.2-3.8-19.8-5.74-25.51c-0.52-1.42-0.97-2.67-1.37-3.75
						c-0.39-1.08-0.8-1.96-1.09-2.68c-0.29-0.71-0.52-1.26-0.68-1.63C1333.91-31.63,1333.85-31.82,1333.85-31.82z"/>
				</g>
			</g>
		</g>
		<g>
			<g>
				<g>
					<path class="st11" d="M1191.59-9.63c0.02-0.01,0.13,0.34,0.29,1.01c0.16,0.67,0.35,1.67,0.56,2.96
						c0.41,2.58,0.83,6.35,1.11,11.02c0.6,9.34,0.36,22.26,0.18,36.51c-0.22,14.26-0.52,27.16-0.78,36.5
						c-0.14,4.63-0.26,8.39-0.34,11.06c-0.05,1.26-0.09,2.27-0.12,3.01c-0.02,0.31-0.03,0.57-0.05,0.78
						c-0.01,0.18-0.03,0.27-0.04,0.27c-0.01,0-0.02-0.09-0.02-0.27c0-0.21-0.01-0.47-0.01-0.78c0-0.74,0.01-1.74,0.01-3.01
						c0.04-2.67,0.09-6.43,0.15-11.06c0.16-9.39,0.37-22.27,0.6-36.5c0.18-14.25,0.49-27.16-0.01-36.48
						c-0.23-4.66-0.59-8.42-0.92-11.01c-0.17-1.29-0.33-2.29-0.45-2.97c-0.06-0.31-0.1-0.56-0.14-0.77
						C1191.6-9.53,1191.58-9.62,1191.59-9.63z"/>
				</g>
			</g>
		</g>
		<g>
			<g>
				<path class="st7" d="M1192.74-68.76l10.29,53.9l109.72,8.08l16.9-23.75c0,0-42.51-25.07-79.86-32.63
					C1211.9-70.83,1192.74-68.76,1192.74-68.76z"/>
			</g>
		</g>
		<g class="st10">
			<g>
				<path d="M1106.47,55.78c0,0,51.25,22.33,60.57,24.44c9.32,2.1,159.5,3.31,159.5,3.31l3.11-6.94l-156.74-1.08
					C1172.9,75.51,1109.93,51.12,1106.47,55.78z"/>
			</g>
		</g>
		<g>
			<g>
				<g>
					<path class="st11" d="M1076.57,36.94c-0.01,0.01-0.09-0.08-0.27-0.25c-0.17-0.18-0.44-0.42-0.79-0.75
						c-0.72-0.63-1.81-1.52-3.3-2.55c-1.51-1-3.41-2.11-5.72-3.21c-2.33-1.05-5.03-2.11-8.11-2.99c-3.09-0.83-6.51-1.63-10.25-2.05
						c-1.86-0.29-3.8-0.38-5.8-0.55c-1-0.09-2.01-0.05-3.04-0.08c-1.03,0-2.07-0.07-3.12,0.03c-8.42,0.34-17.64,2.6-26.32,7.2
						c-3.7,1.95-7.19,4.21-10.18,6.77l-0.24,0.21l-0.18-0.26c-4.89-7-9.43-13.61-13.38-19.69c-3.95-6.07-7.28-11.61-9.99-16.26
						c-2.71-4.66-4.82-8.43-6.26-11.02c-0.7-1.28-1.25-2.28-1.64-2.99c-0.17-0.32-0.31-0.58-0.41-0.78
						c-0.09-0.18-0.13-0.27-0.12-0.28c0.01,0,0.07,0.08,0.17,0.25c0.12,0.2,0.27,0.44,0.46,0.75c0.41,0.7,0.99,1.69,1.72,2.94
						c1.52,2.6,3.7,6.31,6.41,10.93c2.75,4.62,6.12,10.13,10.09,16.17c3.97,6.05,8.53,12.64,13.43,19.63l-0.42-0.05
						c3.06-2.63,6.56-4.89,10.3-6.87c8.76-4.64,18.07-6.9,26.57-7.22c1.06-0.1,2.11-0.02,3.15-0.02c1.04,0.03,2.06,0,3.06,0.09
						c2,0.18,3.96,0.28,5.83,0.58c3.76,0.45,7.2,1.27,10.3,2.14c3.1,0.91,5.81,2.01,8.14,3.09c2.31,1.14,4.21,2.29,5.71,3.32
						c1.48,1.06,2.56,1.99,3.25,2.65c0.34,0.34,0.6,0.6,0.76,0.8C1076.5,36.83,1076.58,36.94,1076.57,36.94z"/>
				</g>
			</g>
		</g>
		<g>
			<g>
				<g>
					<path class="st11" d="M945.42,65.35c-0.04,0.01-0.19-0.6-0.42-1.7c-0.23-1.1-0.55-2.71-0.91-4.69
						c-0.73-3.97-1.63-9.48-2.5-15.58c-0.87-6.1-1.53-11.65-1.94-15.66c-0.21-2.01-0.35-3.64-0.44-4.77
						c-0.08-1.13-0.11-1.75-0.07-1.76c0.04,0,0.14,0.61,0.3,1.73c0.16,1.23,0.37,2.82,0.62,4.74c0.51,4,1.24,9.53,2.11,15.63
						c0.87,6.09,1.71,11.6,2.33,15.59c0.29,1.91,0.54,3.5,0.73,4.72C945.39,64.72,945.46,65.34,945.42,65.35z"/>
				</g>
			</g>
		</g>
		<g>
			<g>
				<g>
					<path class="st11" d="M991.59,69.36c0,0.02-0.2,0.04-0.59,0.05c-0.45,0-1.01,0.01-1.69,0.01c-1.46,0-3.58-0.04-6.2-0.14
						c-5.23-0.18-12.46-0.61-20.41-1.42c-7.95-0.82-15.12-1.87-20.29-2.76c-2.58-0.44-4.67-0.83-6.1-1.13
						c-0.66-0.14-1.21-0.26-1.65-0.35c-0.38-0.09-0.57-0.14-0.57-0.16s0.21-0.01,0.59,0.04c0.45,0.06,1,0.14,1.67,0.24
						c1.53,0.23,3.61,0.55,6.13,0.94c5.18,0.78,12.34,1.76,20.28,2.58c7.94,0.81,15.15,1.31,20.37,1.6
						c2.55,0.14,4.64,0.25,6.19,0.33c0.68,0.04,1.23,0.08,1.68,0.1C991.39,69.31,991.59,69.34,991.59,69.36z"/>
				</g>
			</g>
		</g>
		<g>
			<g>
				<path class="st8" d="M1496.76,43.08c0,0-6.34-15.22-6.16-15.73c0.98-2.73,4.62-10.21,4.62-10.21s2.98,1.7,6.6,4.39
					c4.03,3,8.9,7.21,12.28,11.08c1.95,2.24,3.03,5.15,3.04,8.17l0.01,12.75L1496.76,43.08z"/>
			</g>
		</g>
		<g>
			<g>
				<g>
					<path class="st11" d="M1358.71-27.44c0.12,0.12-1.3,1.87-2.94,4.11c-1.65,2.23-2.91,4.11-3.05,4.02
						c-0.13-0.08,0.92-2.13,2.59-4.39C1356.97-25.97,1358.6-27.55,1358.71-27.44z"/>
				</g>
			</g>
		</g>
		<g>
			<g>
				<path class="st12" d="M946-27.09c0,0,48.06,4.08,47.53,5.18C993-20.82,946-5.81,946-5.81V-27.09z"/>
			</g>
		</g>
		<g>
			<g>
				<g>
					<path class="st11" d="M945.85-5.2c-0.16,0-0.29-4.88-0.3-10.9c0-6.02,0.13-10.9,0.29-10.9c0.16,0,0.29,4.88,0.3,10.9
						C946.14-10.08,946.01-5.2,945.85-5.2z"/>
				</g>
			</g>
		</g>
		<g>
			<g>
				<g>
					<path class="st11" d="M1461.81,52.77c0,0-0.09-0.14-0.25-0.43c-0.17-0.28-0.4-0.71-0.75-1.26c-0.65-1.11-1.71-2.7-3.15-4.72
						c-1.49-1.97-3.33-4.41-5.81-6.97c-2.45-2.57-5.42-5.4-9.14-7.99c-3.7-2.59-8.03-5.17-13.17-6.84
						c-5.1-1.74-10.87-2.62-17.05-2.71c-6.17-0.13-12.76,0.48-19.45,2.16c-3.35,0.81-6.72,1.93-10.04,3.39
						c-3.31,1.45-6.63,3.2-9.6,5.51l-0.09,0.07l-0.1-0.01c-22.07-2.26-46.94-4.81-73.15-7.49c-24.11-2.49-47.08-4.86-67.97-7.01
						c-0.65-0.07-1.3-0.14-1.95-0.2c-0.65-0.04-1.3-0.07-1.94-0.11c-1.29-0.06-2.58-0.13-3.85-0.19c-2.55-0.12-5.07-0.23-7.56-0.34
						c-4.97-0.18-9.79-0.36-14.46-0.54c-9.33-0.3-18.02-0.48-25.96-0.6c-15.87-0.24-28.72-0.26-37.6-0.31
						c-4.43-0.03-7.87-0.05-10.22-0.06c-1.16-0.01-2.04-0.02-2.66-0.03c-0.6-0.01-0.91-0.03-0.91-0.03s0.31-0.02,0.91-0.03
						c0.62-0.01,1.5-0.02,2.66-0.03c2.35-0.01,5.8-0.03,10.22-0.05c8.88-0.02,21.73-0.06,37.61,0.12
						c7.94,0.09,16.64,0.25,25.97,0.52c4.67,0.14,9.49,0.31,14.46,0.51c2.49,0.11,5.01,0.22,7.56,0.33
						c1.28,0.06,2.57,0.12,3.86,0.19c0.65,0.03,1.3,0.07,1.95,0.1c0.65,0.07,1.3,0.13,1.95,0.2c20.9,2.14,43.87,4.49,67.98,6.97
						c26.22,2.71,51.08,5.27,73.16,7.55l-0.19,0.06c3.07-2.37,6.39-4.11,9.74-5.58c3.35-1.46,6.75-2.58,10.12-3.39
						c6.75-1.67,13.37-2.27,19.57-2.12c6.2,0.1,12.04,1.02,17.17,2.79c5.17,1.7,9.52,4.32,13.22,6.94c3.73,2.62,6.7,5.48,9.14,8.08
						c2.47,2.58,4.3,5.05,5.77,7.04c1.42,2.04,2.45,3.65,3.09,4.78C1461.54,52.15,1461.81,52.77,1461.81,52.77z"/>
				</g>
			</g>
		</g>
		<g>
			<g>
				<g>
					<path class="st11" d="M1326.54,83.53c0,0-0.19,0.02-0.57,0.02c-0.4,0-0.96,0-1.68,0c-1.5-0.02-3.67-0.04-6.45-0.08
						c-5.63-0.09-13.73-0.23-23.73-0.4c-20.06-0.39-47.73-0.94-78.3-1.53c-15.29-0.33-29.86-0.64-43.11-0.92
						c-0.83-0.02-1.65-0.04-2.47-0.05c-0.81-0.03-1.63,0-2.46-0.13c-1.67-0.2-3.14-0.98-4.58-1.56c-2.91-1.22-5.75-2.36-8.49-3.46
						c-5.5-2.18-10.65-4.14-15.35-5.94c-9.41-3.58-17-6.53-22.21-8.69c-2.6-1.07-4.62-1.93-5.98-2.53
						c-0.66-0.29-1.17-0.52-1.54-0.69c-0.35-0.16-0.52-0.25-0.52-0.25s0.19,0.06,0.54,0.2c0.37,0.15,0.89,0.36,1.56,0.63
						c1.4,0.56,3.42,1.38,6.01,2.42c5.23,2.09,12.84,4.98,22.27,8.5c4.71,1.77,9.87,3.71,15.38,5.87c2.75,1.09,5.6,2.22,8.51,3.44
						c1.47,0.59,2.89,1.33,4.46,1.51c0.77,0.11,1.58,0.09,2.4,0.11c0.82,0.02,1.64,0.03,2.47,0.05c13.25,0.27,27.82,0.56,43.11,0.87
						c30.56,0.67,58.23,1.27,78.29,1.71c10,0.25,18.1,0.45,23.73,0.59c2.78,0.08,4.95,0.15,6.45,0.19c0.72,0.03,1.28,0.05,1.68,0.06
						C1326.34,83.5,1326.54,83.53,1326.54,83.53z"/>
				</g>
			</g>
		</g>
		<g>
			<g>
				<g>
					<path class="st2" d="M1313.84-30.91c-2.07,4.39-4.33,10.89-3.91,17.63c0.27,4.39,3.76,7.83,8.01,7.86l19.76,0.15
						c2.91,0.02,5.55-2.1,5.93-5.09c0.12-0.98,0.01-2.03-0.5-3.12c-2.05-4.34-3.77-3.52-3.77-3.52s-5.98-12.8-15.08-17.65
						C1320.47-36.68,1315.72-34.9,1313.84-30.91z"/>
				</g>
			</g>
		</g>
		<g>
			<g>
				<g>
					<g>
						<path class="st11" d="M1334.31-5.29c0.03,0.08,0.78-0.15,1.79-0.9c0.97-0.75,2.34-2.04,2.87-4.03c0.5-1.94,0.4-3.71,0.4-4.95
							c-0.02-1.26-0.08-2.03-0.18-2.04c-0.09,0-0.2,0.77-0.31,2.02c-0.12,1.25-0.11,3-0.58,4.77c-0.45,1.76-1.66,3.02-2.51,3.83
							C1334.91-5.77,1334.26-5.39,1334.31-5.29z"/>
					</g>
				</g>
			</g>
		</g>
		<g>
			<g>
				<g>
					<g>
						<path class="st8" d="M1335.8-19.7c0.07-0.03-0.27-1.09-1.1-2.65c-0.83-1.57-2.21-3.62-4.08-5.55
							c-1.88-1.93-3.87-3.34-5.39-4.19c-1.52-0.85-2.54-1.2-2.57-1.12c-0.11,0.2,3.82,2,7.48,5.81
							C1333.83-23.64,1335.6-19.58,1335.8-19.7z"/>
					</g>
				</g>
			</g>
		</g>
		<g>
			<g>
				<g>
					<path class="st7" d="M1183.27-72.33c0.02,0,0.08,0.21,0.17,0.62c0.1,0.48,0.22,1.08,0.36,1.81c0.3,1.57,0.72,3.85,1.21,6.67
						c0.98,5.64,2.26,13.45,3.5,22.1c1.24,8.65,2.19,16.52,2.67,22.23c0.14,1.43,0.22,2.72,0.28,3.86c0.07,1.14,0.13,2.12,0.14,2.92
						c0.01,0.75,0.02,1.36,0.02,1.85c0,0.42-0.01,0.64-0.03,0.64c-0.02,0-0.05-0.22-0.09-0.64c-0.03-0.49-0.08-1.1-0.13-1.84
						c-0.04-0.8-0.13-1.77-0.23-2.91c-0.1-1.13-0.21-2.42-0.37-3.84c-0.59-5.69-1.6-13.54-2.84-22.18
						c-1.24-8.64-2.46-16.46-3.33-22.11c-0.42-2.77-0.77-5.03-1.02-6.7c-0.1-0.74-0.19-1.34-0.26-1.83
						C1183.27-72.1,1183.25-72.32,1183.27-72.33z"/>
				</g>
			</g>
		</g>
		<g class="st10">
			<g>
				<path d="M946-5.81l23.77-14.61l0.69-4.44c9.23,0.95,20.42,1.85,23.08,2.95C993.53-21.17,964.3-11.57,946-5.81z"/>
			</g>
		</g>
		<g class="st10">
			<g>
				<path d="M1490.6,27.35l12.7,11.18l13.84,2.25l0.01,12.75l-20.39-10.45C1494.25,37.02,1491.96,31.35,1490.6,27.35z"/>
			</g>
		</g>
		<g>
			<g>
				<g>
					<path class="st11" d="M1490.46,27.35c0,0.01-0.11-0.03-0.32-0.12c-0.24-0.1-0.54-0.23-0.92-0.39
						c-0.84-0.37-2.02-0.89-3.52-1.56c-3.09-1.37-7.51-3.33-12.94-5.74c-5.47-2.4-11.99-5.25-19.3-8.23
						c-3.66-1.45-7.51-3.04-11.59-4.25c-2.05-0.53-4.2-0.86-6.38-1.25c-2.18-0.36-4.39-0.72-6.63-1.09
						c-17.93-2.84-34.19-5.23-45.95-7.02c-5.85-0.89-10.6-1.62-13.93-2.12c-1.61-0.26-2.88-0.46-3.78-0.6
						c-0.4-0.07-0.73-0.13-0.98-0.17c-0.22-0.04-0.33-0.07-0.33-0.08c0-0.01,0.12,0,0.34,0.02c0.26,0.03,0.58,0.07,0.99,0.11
						c0.91,0.12,2.18,0.28,3.8,0.49c3.34,0.46,8.09,1.12,13.95,1.93c11.78,1.68,28.04,4.01,45.98,6.85
						c2.24,0.37,4.45,0.73,6.63,1.09c2.18,0.39,4.33,0.72,6.43,1.27c4.14,1.24,7.97,2.83,11.64,4.3c7.3,3.02,13.81,5.91,19.26,8.36
						c5.45,2.46,9.84,4.49,12.87,5.92c1.48,0.71,2.64,1.26,3.48,1.66c0.37,0.18,0.67,0.33,0.9,0.45
						C1490.36,27.28,1490.46,27.34,1490.46,27.35z"/>
				</g>
			</g>
		</g>
		<g>
			<g>
				<g>
					<g>
						<g>
							<g>
								<g>
									<g>
										<g>
											<g>
												<g>
													<g>
														<g>
															<ellipse class="st11" cx="1038.5" cy="81.02" rx="44.97" ry="46.61"/>
														</g>
													</g>
												</g>
											</g>
										</g>
									</g>
								</g>
							</g>
						</g>
					</g>
				</g>
			</g>
			<g>
				<g>
					<g>
						<g>
							<g>
								<g>
									<g>
										<g>
											<g>
												<g>
													<g>
														<g>
															<path class="st11" d="M993.55,80.23c0,0.04-0.01,0.08-0.01,0.12c-0.36,25.74,19.48,46.9,44.31,47.27
																c24.83,0.37,45.25-20.19,45.61-45.93c0-0.04,0-0.08,0-0.12L993.55,80.23z"/>
														</g>
													</g>
												</g>
											</g>
										</g>
									</g>
								</g>
							</g>
						</g>
					</g>
				</g>
			</g>
			<g>
				<g>
					<g>
						<g>
							<g>
								<g>
									<g>
										<g>
											<g>
												<g>
													<g>
														<g>
															<path class="st1" d="M1006.93,80.55c-0.25,18.07,13.68,32.93,31.11,33.19c17.43,0.26,31.77-14.18,32.02-32.25
																c0.25-18.07-13.68-32.93-31.11-33.19C1021.52,48.04,1007.18,62.48,1006.93,80.55z"/>
														</g>
													</g>
												</g>
											</g>
										</g>
									</g>
								</g>
							</g>
						</g>
					</g>
				</g>
			</g>
			<g>
				<g>
					<g>
						<g>
							<g>
								<g>
									<g>
										<g>
											<g>
												<g>
													<g>
														<g>
															<path class="st2" d="M1038.95,48.3c-17.43-0.26-31.77,14.18-32.02,32.25l63.13,0.94
																C1070.31,63.42,1056.39,48.56,1038.95,48.3z"/>
														</g>
													</g>
												</g>
											</g>
										</g>
									</g>
								</g>
							</g>
						</g>
					</g>
				</g>
			</g>
			<g>
				<g>
					<g>
						<g>
							<g>
								<g>
									<g>
										<g>
											<g>
												<g>
													<g>
														<g>
															<path class="st11" d="M1019.27,80.73c-0.15,11.01,8.33,20.06,18.95,20.22c10.62,0.16,19.35-8.64,19.51-19.64
																c0.15-11.01-8.33-20.06-18.95-20.22C1028.16,60.93,1019.42,69.72,1019.27,80.73z"/>
														</g>
													</g>
												</g>
											</g>
										</g>
									</g>
								</g>
							</g>
						</g>
					</g>
				</g>
			</g>
		</g>
		<g>
			<g>
				<g>
					<g>
						<g>
							<g>
								<g>
									<g>
										<g>
											<g>
												<g>
													<g>
														<g>
															<ellipse class="st11" cx="1410.62" cy="81.02" rx="44.97" ry="46.61"/>
														</g>
													</g>
												</g>
											</g>
										</g>
									</g>
								</g>
							</g>
						</g>
					</g>
				</g>
			</g>
			<g>
				<g>
					<g>
						<g>
							<g>
								<g>
									<g>
										<g>
											<g>
												<g>
													<g>
														<g>
															<path class="st11" d="M1365.67,80.23c0,0.04-0.01,0.08-0.01,0.12c-0.36,25.74,19.48,46.9,44.31,47.27
																c24.83,0.37,45.25-20.19,45.61-45.93c0-0.04,0-0.08,0-0.12L1365.67,80.23z"/>
														</g>
													</g>
												</g>
											</g>
										</g>
									</g>
								</g>
							</g>
						</g>
					</g>
				</g>
			</g>
			<g>
				<g>
					<g>
						<g>
							<g>
								<g>
									<g>
										<g>
											<g>
												<g>
													<g>
														<g>
															<path class="st1" d="M1379.05,80.55c-0.25,18.07,13.68,32.93,31.11,33.19c17.43,0.26,31.77-14.18,32.02-32.25
																c0.25-18.07-13.68-32.93-31.11-33.19C1393.64,48.04,1379.3,62.48,1379.05,80.55z"/>
														</g>
													</g>
												</g>
											</g>
										</g>
									</g>
								</g>
							</g>
						</g>
					</g>
				</g>
			</g>
			<g>
				<g>
					<g>
						<g>
							<g>
								<g>
									<g>
										<g>
											<g>
												<g>
													<g>
														<g>
															<path class="st2" d="M1411.07,48.3c-17.43-0.26-31.77,14.18-32.02,32.25l63.13,0.94
																C1442.43,63.42,1428.51,48.56,1411.07,48.3z"/>
														</g>
													</g>
												</g>
											</g>
										</g>
									</g>
								</g>
							</g>
						</g>
					</g>
				</g>
			</g>
			<g>
				<g>
					<g>
						<g>
							<g>
								<g>
									<g>
										<g>
											<g>
												<g>
													<g>
														<g>
															<path class="st11" d="M1391.39,80.73c-0.15,11.01,8.33,20.06,18.95,20.22c10.62,0.16,19.35-8.64,19.51-19.64
																c0.15-11.01-8.33-20.06-18.95-20.22C1400.28,60.93,1391.54,69.72,1391.39,80.73z"/>
														</g>
													</g>
												</g>
											</g>
										</g>
									</g>
								</g>
							</g>
						</g>
					</g>
				</g>
			</g>
		</g>
		<g>
			<g>
				<g>
					<g>
						<path class="st8" d="M1240.8-23.9c-0.07-0.15,8.26-4.66,18.6-10.08c10.35-5.42,18.8-9.69,18.87-9.54
							c0.07,0.15-8.26,4.66-18.61,10.08C1249.33-28.02,1240.88-23.75,1240.8-23.9z"/>
					</g>
				</g>
			</g>
			<g>
				<g>
					<g>
						<path class="st8" d="M1229.2-25.08c-0.08-0.15,7.84-4.61,17.67-9.97c9.83-5.36,17.87-9.58,17.94-9.43
							c0.08,0.15-7.83,4.61-17.67,9.97C1237.31-29.15,1229.28-24.93,1229.2-25.08z"/>
					</g>
				</g>
			</g>
			<g>
				<g>
					<g>
						<path class="st8" d="M1113.28-27.08c-0.01-0.04,0.57-0.31,1.62-0.75c1.16-0.48,2.67-1.11,4.5-1.86
							c3.89-1.61,9.09-3.76,14.83-6.14c5.72-2.44,10.89-4.65,14.77-6.31c1.82-0.78,3.32-1.42,4.48-1.91
							c1.06-0.44,1.65-0.67,1.67-0.63c0.02,0.04-0.55,0.34-1.58,0.85c-1.03,0.51-2.54,1.23-4.4,2.09
							c-3.73,1.73-8.93,4.04-14.71,6.48c-5.78,2.43-11.06,4.52-14.9,5.98c-1.92,0.73-3.48,1.3-4.56,1.68
							C1113.9-27.23,1113.29-27.04,1113.28-27.08z"/>
					</g>
				</g>
			</g>
			<g>
				<g>
					<g>
						<path class="st8" d="M1123.99-39.86c-0.07-0.15,4.24-2.31,9.63-4.81c5.38-2.5,9.8-4.41,9.87-4.26
							c0.07,0.15-4.24,2.31-9.63,4.81C1128.48-41.62,1124.06-39.71,1123.99-39.86z"/>
					</g>
				</g>
			</g>
		</g>
		<g>
			<g>
				<g>
					<path class="st11" d="M1517.14,53.53c-0.04,0-0.08-0.65-0.12-1.83c-0.03-1.29-0.06-2.97-0.1-5c-0.05-2.1,0-4.66-0.12-7.39
						c-0.23-2.73-2.18-5.22-4.1-7.69c-1.94-2.47-4.27-4.39-6.36-6.13c-2.12-1.72-4.08-3.19-5.74-4.41
						c-1.61-1.16-2.94-2.12-3.96-2.85c-0.94-0.67-1.45-1.05-1.43-1.09c0.02-0.04,0.58,0.28,1.55,0.89c0.98,0.61,2.37,1.52,4.07,2.7
						c1.7,1.18,3.69,2.61,5.84,4.32c2.12,1.73,4.49,3.65,6.48,6.19c0.99,1.25,1.93,2.5,2.71,3.82c0.79,1.3,1.36,2.75,1.47,4.2
						c0.1,2.84,0,5.32,0,7.45c-0.04,2.03-0.07,3.71-0.09,5C1517.22,52.88,1517.19,53.53,1517.14,53.53z"/>
				</g>
			</g>
		</g>
	</g>
</g>
<g id="_Icon">
	<g>
		<g>
			<path class="st6" d="M391.19,171.84c0-6.25-5.65-11.18-12.12-9.97c-4.07,0.76-7.32,4.09-8.03,8.17
				c-0.45,2.55,0.08,4.95,1.24,6.93h-0.01l0.03,0.04c0.39,0.66,0.88,1.13,1.37,1.81l5.9,7.81c0.73,0.97,2.19,0.97,2.93,0l5.8-7.68
				c0,0,1.08-1.29,1.47-1.95l0.02-0.03h0C390.67,175.47,391.19,173.72,391.19,171.84z M381.04,176.27c-2.47,0-4.47-2-4.47-4.47
				c0-2.47,2-4.47,4.47-4.47c2.47,0,4.47,2,4.47,4.47C385.5,174.26,383.5,176.27,381.04,176.27z"/>
		</g>
	</g>
</g>
<g id="Speech_Bubble">
	<g>
		<g>
			<g>
				<g>
					<g>
						<g>
							<path class="st6" d="M239.92,234.21l6.36,1.13c2.28,2.58,5.29,4.58,8.82,5.65c10.18,3.08,20.92-2.69,24-12.88
								c3.08-10.19-2.67-20.95-12.85-24.02c-10.18-3.08-20.92,2.69-24,12.88c-1.29,4.26-1.03,8.61,0.45,12.46l-0.01-0.01
								L239.92,234.21z"/>
						</g>
					</g>
					<g>
						<g>
							<g>
								<path class="st6" d="M239.92,234.21c0,0,0.07-0.11,0.2-0.32c0.13-0.22,0.31-0.52,0.55-0.92c0.48-0.81,1.18-1.99,2.09-3.52
									l-0.12,0.01c0,0,0,0.01,0.01,0.01c0.02,0.03,0.07,0.04,0.1,0.02c0.03-0.02,0.04-0.05,0.02-0.08
									c-0.84-2.26-1.57-5.47-1.07-9.28c0.12-0.95,0.33-1.92,0.62-2.91c0.34-0.97,0.65-2,1.17-2.98c0.96-1.98,2.32-3.93,4.13-5.62
									c1.8-1.69,4.03-3.1,6.56-4.02c2.53-0.92,5.36-1.34,8.25-1.09c2.88,0.28,5.78,1.23,8.37,2.84c2.61,1.59,4.83,3.91,6.42,6.67
									c3.14,5.38,3.27,12,0.96,17.14c-1.13,2.59-2.8,4.83-4.76,6.59c-1.96,1.76-4.21,3.05-6.5,3.84c-4.6,1.6-9.23,1.25-12.78-0.05
									c-3.59-1.29-6.15-3.41-7.8-5.25c-0.01-0.01-0.03-0.02-0.04-0.02c-2.05-0.34-3.63-0.61-4.71-0.79
									c-0.53-0.09-0.94-0.15-1.23-0.2C240.07,234.23,239.92,234.21,239.92,234.21s0.13,0.03,0.39,0.08
									c0.28,0.05,0.68,0.13,1.2,0.23c1.09,0.21,2.68,0.5,4.75,0.89l-0.04-0.02c1.64,1.88,4.2,4.04,7.83,5.37
									c3.58,1.34,8.28,1.72,12.95,0.11c2.32-0.8,4.61-2.1,6.61-3.88c2-1.78,3.7-4.07,4.85-6.7c2.36-5.23,2.23-11.98-0.97-17.45
									l-0.62-1.04c-0.23-0.33-0.47-0.65-0.71-0.97c-0.45-0.67-1.02-1.23-1.54-1.83c-0.26-0.3-0.58-0.54-0.86-0.82
									c-0.3-0.26-0.56-0.55-0.89-0.78c-0.64-0.46-1.23-0.98-1.91-1.35c-2.64-1.64-5.6-2.6-8.52-2.88
									c-2.93-0.25-5.82,0.18-8.38,1.13c-2.57,0.94-4.83,2.39-6.65,4.11c-1.82,1.72-3.2,3.7-4.16,5.72
									c-0.52,0.99-0.83,2.04-1.17,3.02c-0.29,1-0.49,1.99-0.61,2.95c-0.48,3.85,0.29,7.1,1.16,9.36l0.12-0.07
									c0,0-0.01-0.01-0.01-0.01c-0.02-0.03-0.07-0.04-0.1-0.02c-0.01,0.01-0.02,0.01-0.02,0.02c-0.88,1.56-1.56,2.77-2.03,3.6
									c-0.22,0.39-0.39,0.7-0.51,0.92C239.97,234.11,239.92,234.21,239.92,234.21z"/>
							</g>
						</g>
					</g>
				</g>
			</g>
		</g>
		<g>
			<g>
				<g>
					<polygon class="st8" points="261.26,230.44 251.81,224.13 254.02,220.83 260.35,225.07 268.23,214.64 271.4,217.03 					"/>
				</g>
			</g>
		</g>
	</g>
</g>
<g id="Character_2">
</g>
<g id="Character_1_00000031909722093910372330000005604865352490467212_">
</g>
</svg>
