<?xml version="1.0" encoding="utf-8"?>
<!-- Generator: Adobe Illustrator 24.2.0, SVG Export Plug-In . SVG Version: 6.00 Build 0)  -->
<svg version="1.1" id="Calque_1" xmlns="http://www.w3.org/2000/svg" xmlns:xlink="http://www.w3.org/1999/xlink" x="0px" y="0px"
	 viewBox="0 0 32 32" style="enable-background:new 0 0 32 32;" xml:space="preserve">
<style type="text/css">
	.st0{fill:none;stroke:#000000;stroke-width:0.4768;stroke-miterlimit:10;}
</style>
<circle class="st0" cx="16" cy="16" r="15.1"/>
<g>
	<path d="M25.4,9c-0.1,0.3-0.2,0.7-0.4,1c-0.5,1.2-1.3,2.3-2,3.4c-0.2,0.3-0.4,0.4-0.8,0.4c-2.8,0-5.6,0-8.4,0
		c-0.8,0-1.4,0.4-1.7,1.1c-0.5,0.9,0,2.2,1,2.5c0.2,0.1,0.5,0.1,0.7,0.1c1.2,0,2.4,0,3.5,0c0.8,0,1.5,0.3,2.1,0.9
		c0.7,0.8,0.8,1.7,0.4,2.7c-0.4,1-1.1,1.5-2.2,1.6c-0.2,0-0.4,0-0.6,0c-2.2,0-4.4,0-6.6,0c-0.1,0-0.2,0-0.3,0.2
		c-0.3,0.7-1,1.1-1.8,1c-0.7-0.1-1.3-0.6-1.6-1.2c-0.4-1.1,0.4-2.3,1.6-2.4c0.7-0.1,1.5,0.4,1.8,1.2c0,0.1,0.1,0.2,0.2,0.2
		c2.3,0,4.6,0,6.9,0c1,0,1.7-0.9,1.5-1.8c-0.1-0.7-0.7-1.2-1.4-1.2c-1.2,0-2.5,0-3.7,0c-1.1,0-2-0.5-2.6-1.4c-1.1-1.8,0-4.1,2.1-4.4
		c0.2,0,0.4,0,0.6,0c2.6,0,5.2,0,7.8,0c0.1,0,0.1,0,0.3,0c0-0.1-0.1-0.1-0.1-0.2c-0.5-0.8-1.1-1.6-1.5-2.5c-0.3-0.7-0.4-1.5-0.1-2.2
		c0.4-1.1,1.6-1.9,2.8-1.7c1.3,0.1,2.3,1,2.5,2.3c0,0,0,0.1,0,0.1C25.4,8.6,25.4,8.8,25.4,9z M22.7,11.9c0.6-0.9,1.2-1.8,1.5-2.7
		c0.1-0.3,0.1-0.5,0.1-0.8c-0.2-1-1.2-1.5-2.1-1.2c-0.8,0.3-1.2,1.2-1,1.9c0.2,0.7,0.6,1.3,1,2C22.3,11.4,22.5,11.6,22.7,11.9z
		 M9.3,22.1c0-0.4-0.3-0.7-0.7-0.7c-0.4,0-0.7,0.3-0.7,0.7c0,0.4,0.3,0.7,0.7,0.7C8.9,22.8,9.3,22.5,9.3,22.1z"/>
	<path d="M22.1,8.5c0-0.3,0.3-0.6,0.6-0.6c0.3,0,0.6,0.3,0.5,0.6c0,0.3-0.3,0.6-0.6,0.5C22.3,9.1,22.1,8.9,22.1,8.5z"/>
</g>
</svg>
