<?xml version="1.0" encoding="utf-8"?>
<!-- Generator: Adobe Illustrator 24.2.0, SVG Export Plug-In . SVG Version: 6.00 Build 0)  -->
<svg version="1.1" id="Calque_1" xmlns="http://www.w3.org/2000/svg" xmlns:xlink="http://www.w3.org/1999/xlink" x="0px" y="0px"
	 viewBox="0 0 32 32" style="enable-background:new 0 0 32 32;" xml:space="preserve">
<style type="text/css">
	.st0{fill:none;stroke:#000000;stroke-width:0.4768;stroke-miterlimit:10;}
</style>
<circle class="st0" cx="16" cy="16" r="15.1"/>
<g>
	<path d="M13.5,18.5c0.1,0,0.1,0,0.2,0c1.2,0,2.5,0,3.7,0c0.7,0,1.3,0.5,1.4,1.2c0.2,1-0.5,1.8-1.5,1.8c-2.3,0-4.6,0-6.9,0
		c-0.1,0-0.2,0-0.2-0.2c-0.3-0.7-1-1.2-1.8-1.2c-1.3,0.1-2,1.3-1.6,2.4c0.2,0.7,0.9,1.2,1.6,1.2c0.7,0.1,1.5-0.4,1.8-1
		c0.1-0.1,0.1-0.2,0.3-0.2c2.2,0,4.4,0,6.6,0c0.2,0,0.4,0,0.6,0c1-0.1,1.8-0.7,2.2-1.6c0.4-1,0.2-1.9-0.4-2.7
		c-0.5-0.6-1.2-0.9-2.1-0.9c-1.2,0-2.4,0-3.5,0c-0.1,0-0.1,0-0.2,0C13.5,17.8,13.5,18.1,13.5,18.5z M8.6,22.8
		c-0.4,0-0.7-0.3-0.7-0.7c0-0.4,0.3-0.7,0.7-0.7c0.4,0,0.7,0.3,0.7,0.7C9.3,22.5,8.9,22.8,8.6,22.8z"/>
	<path d="M14.7,12.7c-0.3,0-0.6,0-0.9,0c-0.2,0-0.4,0-0.6,0c-2,0.3-3.1,2.6-2.1,4.4c0.5,0.9,1.4,1.3,2.4,1.4c-0.1-0.4,0-0.7,0.1-1.1
		c-0.2,0-0.4,0-0.5-0.1c-1-0.3-1.5-1.6-1-2.5c0.4-0.7,0.9-1.1,1.7-1.1c0.3,0,0.7,0,1,0C14.8,13.4,14.8,13,14.7,12.7z"/>
	<path d="M25.3,8.3C25.1,7,24.2,6.1,22.9,6c-1.2-0.1-2.3,0.6-2.8,1.7c-0.3,0.8-0.2,1.5,0.1,2.2c0.4,0.9,0.9,1.7,1.5,2.5
		c0,0.1,0.1,0.1,0.1,0.2c-0.1,0-0.2,0-0.3,0c-2.3,0-4.6,0-6.9,0c0.1,0.4,0.1,0.7,0.1,1.1c2.5,0,4.9,0,7.4,0c0.4,0,0.6-0.1,0.8-0.4
		c0.8-1.1,1.5-2.2,2-3.4c0.1-0.3,0.2-0.7,0.4-1c0-0.2,0-0.4,0-0.6C25.4,8.4,25.3,8.3,25.3,8.3z M24.2,9.2c-0.4,1-0.9,1.8-1.5,2.7
		c-0.2-0.3-0.4-0.5-0.5-0.8c-0.4-0.6-0.8-1.3-1-2c-0.3-0.8,0.2-1.7,1-1.9C23,6.9,24,7.4,24.2,8.3C24.3,8.6,24.3,8.9,24.2,9.2z"/>
	<path d="M22.1,8.5c0-0.3,0.3-0.6,0.6-0.6c0.3,0,0.6,0.3,0.5,0.6c0,0.3-0.3,0.6-0.6,0.5C22.3,9.1,22.1,8.9,22.1,8.5z"/>
</g>
<g>
	<path d="M13.4,9c1.4,0,2.9,0,4.3,0c0,0,0,0,0.1,0c0.5,0.1,0.9,0.3,1,0.8c0.1,0.2,0.1,0.4,0.1,0.6c0,1.6,0,3.2,0,4.9c0,0,0,0,0,0.1
		c0,0.2-0.1,0.4-0.3,0.4c-0.1,0-0.1,0-0.2,0.1c0,0.2,0,0.3,0,0.5c0,0.3-0.2,0.5-0.5,0.5c-0.3,0-0.6-0.1-0.6-0.5c0-0.2,0-0.3,0-0.5
		c0,0,0-0.1,0-0.1c-1.2,0-2.5,0-3.7,0c0,0,0,0.1,0,0.1c0,0.2,0,0.3,0,0.5c0,0.2-0.2,0.4-0.4,0.4c-0.3,0-0.5-0.1-0.6-0.4
		c0-0.1,0-0.1,0-0.2c0-0.2,0-0.3,0-0.5c-0.3,0-0.5-0.2-0.5-0.5c0-1.6,0-3.3,0-4.9c0-0.1,0-0.2,0-0.2c0.1-0.6,0.4-0.9,1-1.1
		C13.1,9,13.2,9,13.4,9z M15.4,10.5c-0.8,0-1.6,0-2.3,0c-0.1,0-0.1,0-0.2,0c-0.2,0.1-0.4,0.2-0.4,0.5c0,0.5,0,1,0,1.6
		c0,0.3,0.2,0.5,0.6,0.5c1.6,0,3.1,0,4.7,0c0.1,0,0.1,0,0.2,0c0.2-0.1,0.4-0.3,0.4-0.5c0-0.5,0-1,0-1.6c0-0.3-0.1-0.5-0.4-0.5
		c-0.1,0-0.1,0-0.2,0C17,10.5,16.2,10.5,15.4,10.5z M15.4,10c0.6,0,1.1,0,1.7,0c0,0,0,0,0.1,0c0.1,0,0.1,0,0.1-0.1
		c0-0.1,0-0.1-0.1-0.1c0,0-0.1,0-0.1,0c-1.1,0-2.2,0-3.3,0c0,0-0.1,0-0.1,0c-0.1,0-0.1,0.1-0.1,0.1c0,0.1,0.1,0.1,0.2,0.1
		C14.3,10,14.8,10,15.4,10z M17.3,14.8c0,0.3,0.2,0.5,0.5,0.5c0.3,0,0.5-0.2,0.5-0.5c0-0.3-0.2-0.5-0.5-0.5
		C17.5,14.2,17.3,14.5,17.3,14.8z M13.6,14.8c0-0.3-0.2-0.5-0.5-0.5c-0.3,0-0.5,0.2-0.5,0.5c0,0.3,0.2,0.5,0.5,0.5
		C13.3,15.3,13.6,15.1,13.6,14.8z"/>
</g>
</svg>
