<?xml version="1.0" encoding="utf-8"?>
<!-- Generator: Adobe Illustrator 24.2.0, SVG Export Plug-In . SVG Version: 6.00 Build 0)  -->
<svg version="1.1" id="Calque_1" xmlns="http://www.w3.org/2000/svg" xmlns:xlink="http://www.w3.org/1999/xlink" x="0px" y="0px"
	 viewBox="0 0 32 32" style="enable-background:new 0 0 32 32;" xml:space="preserve">
<style type="text/css">
	.st0{fill:none;stroke:#000000;stroke-width:0.4768;stroke-miterlimit:10;}
	.st1{fill:#FFFFFF;}
</style>
<circle class="st0" cx="16" cy="16" r="15.1"/>
<g>
	<g>
		<path d="M16.2,23.3c-4.2,0-7.7-3.5-7.7-7.7c0-4.2,3.5-7.7,7.7-7.7c4.2,0,7.6,3.4,7.7,7.6c0.4,0,0.8,0,1.2-0.1
			c-0.1-4.8-4.1-8.7-8.9-8.7c-4.9,0-8.9,4-9,8.9c0,4.9,4,9,8.9,9c1.4,0,2.7-0.3,3.8-0.9c-0.3-0.3-0.6-0.6-0.9-0.9
			C18.2,23.1,17.3,23.3,16.2,23.3z"/>
		<path d="M15.6,13.9c0-0.7,0-1.5,0-2.2c0-0.4,0.3-0.7,0.6-0.7c0.4,0,0.6,0.3,0.6,0.7c0,1.3,0,2.6,0,3.8c0,0.1,0,0.2,0.2,0.3
			c0.8,0.5,1.6,1,2.5,1.5c0.2,0.1,0.3,0.3,0.4,0.5c0,0.3,0,0.5-0.3,0.6c-0.2,0.1-0.4,0.2-0.7,0c-0.4-0.3-0.9-0.5-1.3-0.8
			c-0.5-0.3-1.1-0.6-1.6-1c-0.3-0.2-0.4-0.4-0.4-0.7C15.6,15.3,15.6,14.6,15.6,13.9z"/>
	</g>
	<g>
		<path class="st1" d="M25.3,25.1c0.3-0.1,0.6-0.2,0.8-0.3c0,0,0,0,0-0.1c-0.3-0.9-0.6-1.7-1-2.6c0,0,0-0.1-0.1-0.1
			c-0.3-0.2-0.5-0.4-0.8-0.6c-0.1-0.1-0.1-0.1-0.1-0.2c0.1-0.3,0.1-0.6,0.2-0.9c0-0.2,0.1-0.5,0.1-0.7c0.6,0.7,1.4,1.1,2.4,1.1
			c0-0.3,0-0.5,0-0.8c0-0.1,0-0.1-0.1-0.1c-0.2,0-0.5-0.1-0.7-0.2c-0.5-0.2-0.9-0.5-1.1-1.1c0-0.1-0.1-0.2-0.1-0.3
			c-0.3-0.6-1.1-0.9-1.7-0.5c-0.4,0.3-0.8,0.6-1.2,0.9c-0.1,0.1-0.2,0.1-0.2,0.2c-0.3,0.4-0.6,0.9-0.9,1.3c0.2,0.2,0.5,0.3,0.7,0.5
			c0,0,0.1-0.1,0.1-0.1c0.3-0.4,0.5-0.8,0.8-1.1c0.1-0.1,0.2-0.2,0.3-0.3c0,0.4-0.1,0.8-0.2,1.1c-0.1,0.4,0,0.8,0.4,1
			c0.5,0.4,0.9,0.8,1.4,1.2c0,0,0.1,0.1,0.1,0.1c0.2,0.6,0.4,1.1,0.6,1.7C25.1,24.7,25.2,24.9,25.3,25.1z M21.8,25
			c0.5-0.6,0.9-1.1,1.4-1.7c0,0,0,0,0-0.1c0.1-0.2,0.2-0.4,0.3-0.6c0,0,0-0.1,0-0.1c-0.1-0.1-0.3-0.2-0.4-0.3
			c-0.1-0.1-0.2-0.2-0.3-0.3c-0.1,0.3-0.2,0.6-0.3,0.9c0,0.1,0,0.1-0.1,0.1c-0.3,0.3-0.5,0.6-0.8,1c-0.2,0.2-0.3,0.4-0.5,0.6
			C21.3,24.6,21.5,24.8,21.8,25z M24.5,17.4c0.5,0,0.9-0.4,0.9-0.9c0-0.5-0.4-0.9-0.8-0.9c-0.5,0-0.9,0.4-0.9,0.9
			C23.6,17,24,17.4,24.5,17.4z"/>
		<path d="M25.3,25.1c-0.1-0.2-0.2-0.5-0.3-0.7c-0.2-0.6-0.4-1.1-0.6-1.7c0,0-0.1-0.1-0.1-0.1c-0.5-0.4-0.9-0.8-1.4-1.2
			c-0.3-0.3-0.5-0.6-0.4-1c0.1-0.4,0.1-0.7,0.2-1.1c-0.1,0.1-0.2,0.2-0.3,0.3c-0.3,0.4-0.6,0.8-0.8,1.1c0,0-0.1,0.1-0.1,0.1
			c-0.2-0.2-0.5-0.3-0.7-0.5c0.3-0.4,0.6-0.9,0.9-1.3c0.1-0.1,0.1-0.2,0.2-0.2c0.4-0.3,0.8-0.6,1.2-0.9c0.6-0.5,1.4-0.2,1.7,0.5
			c0,0.1,0.1,0.2,0.1,0.3c0.2,0.5,0.6,0.8,1.1,1.1c0.2,0.1,0.5,0.2,0.7,0.2c0.1,0,0.1,0,0.1,0.1c0,0.3,0,0.5,0,0.8
			c-1,0-1.8-0.4-2.4-1.1c0,0.3-0.1,0.5-0.1,0.7c-0.1,0.3-0.1,0.6-0.2,0.9c0,0.1,0,0.2,0.1,0.2c0.3,0.2,0.5,0.4,0.8,0.6
			c0,0,0.1,0.1,0.1,0.1c0.3,0.9,0.6,1.7,1,2.6c0,0,0,0,0,0.1C25.9,24.9,25.6,25,25.3,25.1z"/>
		<path d="M21.8,25c-0.2-0.2-0.5-0.4-0.7-0.6c0.2-0.2,0.3-0.4,0.5-0.6c0.3-0.3,0.5-0.6,0.8-1c0,0,0.1-0.1,0.1-0.1
			c0.1-0.3,0.2-0.6,0.3-0.9c0.1,0.1,0.2,0.2,0.3,0.3c0.1,0.1,0.3,0.2,0.4,0.3c0,0,0,0.1,0,0.1c-0.1,0.2-0.2,0.4-0.3,0.6
			c0,0,0,0,0,0.1C22.7,23.8,22.2,24.4,21.8,25z"/>
		<path d="M24.5,17.4c-0.5,0-0.9-0.4-0.9-0.9c0-0.5,0.4-0.9,0.9-0.9c0.5,0,0.9,0.4,0.8,0.9C25.4,17,25,17.4,24.5,17.4z"/>
	</g>
</g>
</svg>
