<?xml version="1.0" encoding="utf-8"?>
<!-- Generator: Adobe Illustrator 24.2.0, SVG Export Plug-In . SVG Version: 6.00 Build 0)  -->
<svg version="1.1" id="Calque_1" xmlns="http://www.w3.org/2000/svg" xmlns:xlink="http://www.w3.org/1999/xlink" x="0px" y="0px"
	 viewBox="0 0 32 32" style="enable-background:new 0 0 32 32;" xml:space="preserve">
<style type="text/css">
	.st0{fill:none;stroke:#000000;stroke-width:0.4768;stroke-miterlimit:10;}
	.st1{fill:#FFFFFF;}
</style>
<circle class="st0" cx="16" cy="16" r="15.1"/>
<g>
	<path d="M8.2,22c0-4,0-8.1,0-12.1c0,0,0,0,0-0.1C8.4,9.3,8.7,9,9.2,9c0.3,0,0.6,0,1,0c0.2,0,0.4,0,0.5,0c0,0.3,0,0.5,0,0.7
		c0,0.5,0.2,0.8,0.6,1c0.1,0,0.1,0.1,0.1,0.1c0.1,0.1,0.1,0.2,0.3,0.2c0.1,0,0.2-0.1,0.2-0.3c0-0.1,0-0.3,0-0.4c0-0.2,0-0.3-0.2-0.3
		c-0.2-0.1-0.2,0-0.3,0.2c-0.2-0.1-0.3-0.3-0.3-0.4c0-0.3,0-0.7,0-1c0-0.5,0.4-1,0.9-1c0.5-0.1,1,0.3,1.1,0.8c0,0.2,0,0.3,0,0.5
		c1.8,0,3.6,0,5.3,0c0,0.3,0,0.5,0,0.7c0,0.5,0.2,0.8,0.6,1c0.1,0,0.1,0.1,0.1,0.1c0.1,0.1,0.1,0.2,0.3,0.2c0.1,0,0.2-0.1,0.2-0.3
		c0-0.1,0-0.3,0-0.4c0-0.2,0-0.3-0.2-0.3c-0.2-0.1-0.2,0-0.3,0.2c-0.2-0.1-0.3-0.2-0.3-0.4c0-0.3,0-0.7,0-1c0-0.5,0.4-1,0.9-1
		c0.5-0.1,1,0.3,1.1,0.8c0,0.2,0,0.3,0,0.5c0.3,0,0.7,0,1,0c0.6,0,1,0.4,1,1c0,3.9,0,7.8,0,11.7c0,0.6-0.4,1-1,1c-4.3,0-8.7,0-13,0
		c-0.4,0-0.8-0.3-1-0.7C8.2,22.1,8.2,22,8.2,22z M8.7,12.1c0,0.1,0,0.1,0,0.2c0,3.1,0,6.3,0,9.4c0,0.4,0.2,0.6,0.6,0.6
		c4.3,0,8.5,0,12.8,0c0.4,0,0.6-0.2,0.6-0.6c0-3.1,0-6.3,0-9.4c0-0.1,0-0.1,0-0.2C18,12.1,13.4,12.1,8.7,12.1z M12.8,9
		c0-0.3,0-0.5-0.3-0.7c-0.2-0.1-0.4-0.1-0.5,0c-0.2,0.2-0.2,0.4-0.2,0.6C12.1,9,12.4,9,12.8,9z M20.7,9c0-0.3,0-0.5-0.2-0.7
		c-0.2-0.1-0.4-0.1-0.5,0c-0.2,0.2-0.2,0.4-0.2,0.7C20,9,20.3,9,20.7,9z"/>
	<path class="st1" d="M23.7,10.1c0,0.8,0,1.7,0,2.5c0.3,0,0.5,0,0.8,0c0-0.6,0-1.1,0-1.6C24.5,10.6,24.1,10.2,23.7,10.1z"/>
	<path d="M10.5,24.1c-0.3-0.1-0.5-0.2-0.6-0.4c-0.1-0.1-0.1-0.2-0.2-0.3c0.1,0,0.2,0,0.2,0c4.1,0,8.1,0,12.2,0
		c0.7,0,1.3-0.4,1.5-1.1c0.1-0.2,0.1-0.4,0.1-0.6c0-2.8,0-5.6,0-8.3c0-0.1,0-0.1,0-0.2c0.3,0,0.5,0,0.8,0c0,0.1,0,0.1,0,0.2
		c0,3.2,0,6.4,0,9.7c0,0.6-0.3,0.9-0.8,1.1c0,0,0,0,0,0C19.3,24.1,14.9,24.1,10.5,24.1z"/>
	<path d="M23.7,10.1c0.4,0.1,0.7,0.5,0.7,0.9c0,0.5,0,1.1,0,1.6c-0.3,0-0.5,0-0.8,0C23.7,11.8,23.7,10.9,23.7,10.1z"/>
	<path d="M10.7,15.2c-0.3,0-0.6,0-1,0c-0.2,0-0.3-0.1-0.3-0.3c0-0.5,0-1,0-1.5c0-0.2,0.1-0.3,0.3-0.3c0.7,0,1.3,0,2,0
		c0.2,0,0.3,0.1,0.3,0.3c0,0.5,0,1,0,1.5c0,0.2-0.1,0.3-0.3,0.3C11.4,15.2,11.1,15.2,10.7,15.2z"/>
	<path d="M17.4,13.1c0.3,0,0.6,0,1,0c0.2,0,0.3,0.1,0.3,0.3c0,0.5,0,1,0,1.4c0,0.2-0.1,0.3-0.3,0.3c-0.6,0-1.3,0-1.9,0
		c-0.2,0-0.3-0.1-0.3-0.3c0-0.5,0-1,0-1.4c0-0.2,0.1-0.3,0.3-0.3C16.7,13.1,17,13.1,17.4,13.1z"/>
	<path d="M20.7,15.2c-0.3,0-0.6,0-1,0c-0.2,0-0.3-0.1-0.3-0.3c0-0.5,0-1,0-1.5c0-0.2,0.1-0.3,0.3-0.3c0.7,0,1.3,0,2,0
		c0.2,0,0.3,0.1,0.3,0.3c0,0.5,0,1,0,1.5c0,0.2-0.1,0.3-0.3,0.3C21.3,15.2,21,15.2,20.7,15.2z"/>
	<path d="M10.7,18.2c-0.3,0-0.6,0-1,0c-0.2,0-0.3-0.1-0.3-0.3c0-0.5,0-1,0-1.4c0-0.2,0.1-0.3,0.3-0.3c0.7,0,1.3,0,2,0
		c0.2,0,0.3,0.1,0.3,0.3c0,0.5,0,1,0,1.4c0,0.2-0.1,0.3-0.3,0.3C11.4,18.2,11,18.2,10.7,18.2z"/>
	<path d="M14,16.2c0.3,0,0.6,0,1,0c0.2,0,0.3,0.1,0.3,0.3c0,0.5,0,1,0,1.4c0,0.2-0.1,0.3-0.3,0.3c-0.6,0-1.3,0-1.9,0
		c-0.2,0-0.3-0.1-0.3-0.3c0-0.5,0-0.9,0-1.4c0-0.2,0.1-0.3,0.3-0.3C13.4,16.2,13.7,16.2,14,16.2z"/>
	<path d="M17.4,18.2c-0.3,0-0.6,0-1,0c-0.2,0-0.3-0.1-0.3-0.3c0-0.5,0-1,0-1.4c0-0.2,0.1-0.3,0.3-0.3c0.7,0,1.3,0,2,0
		c0.2,0,0.3,0.1,0.3,0.3c0,0.5,0,1,0,1.4c0,0.2-0.1,0.3-0.3,0.3C18,18.2,17.7,18.2,17.4,18.2z"/>
	<path d="M20.7,18.2c-0.3,0-0.6,0-1,0c-0.2,0-0.3-0.1-0.3-0.3c0-0.5,0-1,0-1.5c0-0.2,0.1-0.3,0.3-0.3c0.7,0,1.3,0,2,0
		c0.2,0,0.3,0.1,0.3,0.3c0,0.5,0,1,0,1.5c0,0.2-0.1,0.3-0.3,0.3C21.3,18.2,21,18.2,20.7,18.2z"/>
	<path d="M10.7,21.3c-0.3,0-0.6,0-1,0c-0.2,0-0.3-0.1-0.3-0.3c0-0.5,0-1,0-1.4c0-0.2,0.1-0.3,0.3-0.3c0.7,0,1.3,0,2,0
		c0.2,0,0.3,0.1,0.3,0.3c0,0.5,0,1,0,1.4c0,0.2-0.1,0.3-0.3,0.3C11.4,21.3,11,21.3,10.7,21.3z"/>
	<path d="M14,21.3c-0.3,0-0.6,0-1,0c-0.2,0-0.3-0.1-0.3-0.3c0-0.5,0-1,0-1.4c0-0.2,0.1-0.3,0.3-0.3c0.6,0,1.3,0,1.9,0
		c0.2,0,0.3,0.1,0.3,0.3c0,0.5,0,0.9,0,1.4c0,0.2-0.1,0.3-0.3,0.3C14.7,21.3,14.4,21.3,14,21.3z"/>
	<path d="M17.4,21.3c-0.3,0-0.6,0-1,0c-0.2,0-0.3-0.1-0.3-0.3c0-0.5,0-0.9,0-1.4c0-0.2,0.1-0.3,0.3-0.3c0.6,0,1.3,0,1.9,0
		c0.2,0,0.3,0.1,0.3,0.3c0,0.5,0,0.9,0,1.4c0,0.2-0.1,0.3-0.3,0.3C18,21.3,17.7,21.3,17.4,21.3z"/>
	<path d="M20.7,19.2c0.3,0,0.7,0,1,0c0.2,0,0.3,0.1,0.3,0.3c0,0.5,0,1,0,1.5c0,0.2-0.1,0.3-0.3,0.3c-0.7,0-1.3,0-2,0
		c-0.2,0-0.3-0.1-0.3-0.3c0-0.5,0-1,0-1.5c0-0.2,0.1-0.3,0.3-0.3C20,19.2,20.3,19.2,20.7,19.2z"/>
	<path d="M13.8,14.5c0.3-0.4,0.7-0.8,1-1.2c0,0,0.1-0.1,0.1-0.1c0.1-0.1,0.3-0.1,0.4,0c0.1,0.1,0.1,0.2,0,0.4
		c-0.2,0.2-0.3,0.4-0.5,0.6c-0.2,0.3-0.5,0.6-0.7,0.9c-0.2,0.2-0.3,0.2-0.5,0c-0.2-0.2-0.4-0.4-0.7-0.7c-0.1-0.1-0.1-0.3,0-0.4
		c0.1-0.1,0.3-0.1,0.4,0C13.4,14.2,13.6,14.3,13.8,14.5z"/>
</g>
</svg>
