<?xml version="1.0" encoding="utf-8"?>
<!-- Generator: Adobe Illustrator 24.2.0, SVG Export Plug-In . SVG Version: 6.00 Build 0)  -->
<svg version="1.1" id="Calque_1" xmlns="http://www.w3.org/2000/svg" xmlns:xlink="http://www.w3.org/1999/xlink" x="0px" y="0px"
	 viewBox="0 0 32 32" style="enable-background:new 0 0 32 32;" xml:space="preserve">
<style type="text/css">
	.st0{fill:none;stroke:#000000;stroke-width:0.4768;stroke-miterlimit:10;}
	.st1{fill:#FFFFFF;}
</style>
<circle class="st0" cx="16" cy="16" r="15.1"/>
<g>
	<path class="st1" d="M13.9,21.3c1.7-0.1,3.3-0.1,5,0c0,0,0-0.1,0-0.1c-0.1-1-0.2-2.1-0.2-3.1c0-2.2,0-4.3,0-6.5c0-0.1,0-0.1,0-0.2
		c0.2,0,0.4,0,0.6,0c0,0.1,0,0.2,0,0.3c0,2.2,0,4.4,0,6.5c0,0.9,0.1,1.8,0.2,2.7c0,0.4,0.2,0.6,0.5,0.7c0.2,0,0.4,0.2,0.6,0.3
		c0.2-1.1,0.8-1.7,2-2c0.1,0,0.1-0.1,0.2-0.1c0.1-0.3,0.3-0.6,0.4-1c0.2-0.9,0.1-1.8-0.1-2.6c-0.2-0.9-0.4-1.8-0.6-2.7
		c-0.1-0.5-0.2-0.9-0.3-1.4c-0.1-0.4-0.5-0.7-0.9-0.6c0,0.6,0,1.3,0,1.9c-0.2,0-0.4,0-0.6,0c0-0.6,0-1.1,0-1.6c0-0.5-0.4-1-1-1
		c-2.2,0-4.4,0-6.5,0c-0.5,0-0.9,0.4-1,1c0,0.5,0,1,0,1.4c0,0.1,0,0.1,0,0.2c-0.2,0-0.4,0-0.6,0c0-0.6,0-1.3,0-1.9
		c-0.1,0-0.1,0-0.2,0c-0.4,0.1-0.7,0.4-0.8,0.8c-0.2,0.7-0.3,1.5-0.5,2.2c-0.3,1.2-0.5,2.4-0.5,3.7c0,0.6,0.2,1.1,0.5,1.6
		c0,0.1,0.1,0.1,0.2,0.1c0.9,0.2,1.5,0.7,1.8,1.5c0,0.1,0.1,0.3,0.1,0.4c0.3-0.1,0.7-0.3,1-0.4c0,0,0.1-0.1,0.1-0.1
		c0.2-1.1,0.3-2.1,0.2-3.2c0-2.1,0-4.3,0-6.4c0-0.1,0-0.2,0-0.2c0.2,0,0.4,0,0.7,0c0,0.1,0,0.1,0,0.2c0,2.1,0,4.2,0,6.4
		c0,0.5,0,1.1-0.1,1.6C14,20.2,13.9,20.7,13.9,21.3z M13.8,24.5c-0.1,0-0.2,0-0.2,0c-1.3,0.1-2.1-0.7-2-2c0-0.2,0-0.4,0-0.5
		c-0.1-0.8-0.8-1.3-1.6-1.3c-0.8,0-1.5,0.5-1.6,1.3c-0.1,0.4,0,0.8,0,1.2c0,1.1,0.9,2,2,2c4.1,0,8.2,0,12.3,0c0.9,0,1.7-0.6,1.9-1.4
		c0.2-0.6,0.1-1.2,0-1.8c-0.2-0.8-0.9-1.3-1.7-1.2c-0.7,0-1.4,0.6-1.5,1.3c0,0.3,0,0.6,0,0.8c0,0.2,0,0.4-0.1,0.6
		c-0.3,0.9-1.2,1.2-2.2,1.1c0-0.2,0-0.4,0-0.6c0.2,0,0.4,0,0.6,0c0.6,0,1-0.5,1-1c0-0.1,0-0.2-0.1-0.2c-0.7-0.4-1.4-0.7-2.3-0.7
		c-1.2,0-2.5,0-3.7,0c-0.8,0-1.6,0.3-2.3,0.7c-0.1,0-0.1,0.1-0.1,0.2c0,0.6,0.4,1,1,1c0.2,0,0.4,0,0.6,0
		C13.8,24.1,13.8,24.3,13.8,24.5z M16.4,6.3c-0.8,0-1.7,0-2.5,0c-0.3,0-0.4,0.1-0.4,0.4c0,0.6,0,1.2,0,1.8c0,0.3,0.1,0.4,0.4,0.4
		c1.7,0,3.4,0,5,0c0.3,0,0.4-0.1,0.4-0.4c0-0.6,0-1.2,0-1.8c0-0.3-0.1-0.4-0.4-0.4C18,6.3,17.2,6.3,16.4,6.3z M23.1,7.6
		c0.8,0.2,1.2,0.6,1.4,1.4c0.2-0.8,0.6-1.2,1.5-1.4c-0.8-0.2-1.3-0.6-1.5-1.5C24.3,7,23.9,7.4,23.1,7.6z M8.2,9.1
		c-0.2,0.8-0.6,1.2-1.5,1.4c0.8,0.2,1.3,0.6,1.5,1.5c0.2-0.8,0.6-1.3,1.5-1.5C8.9,10.3,8.4,9.9,8.2,9.1z M14.7,10.2
		c1.1,0,2.2,0,3.2,0c0-0.2,0-0.4,0-0.6c-1.1,0-2.2,0-3.2,0C14.7,9.8,14.7,10,14.7,10.2z"/>
	<path d="M13.9,21.3c0.1-0.5,0.1-1.1,0.1-1.6c0-0.5,0.1-1.1,0.1-1.6c0-2.1,0-4.2,0-6.4c0,0,0-0.1,0-0.2c-0.2,0-0.4,0-0.7,0
		c0,0.1,0,0.2,0,0.2c0,2.1,0,4.3,0,6.4c0,1.1-0.1,2.1-0.2,3.2c0,0.1,0,0.1-0.1,0.1c-0.3,0.1-0.6,0.3-1,0.4c0-0.1-0.1-0.3-0.1-0.4
		c-0.3-0.9-0.9-1.4-1.8-1.5c-0.1,0-0.2-0.1-0.2-0.1c-0.3-0.5-0.4-1-0.5-1.6c0-1.3,0.2-2.5,0.5-3.7c0.2-0.7,0.3-1.5,0.5-2.2
		c0.1-0.4,0.3-0.7,0.8-0.8c0.1,0,0.1,0,0.2,0c0,0.7,0,1.3,0,1.9c0.2,0,0.4,0,0.6,0c0-0.1,0-0.1,0-0.2c0-0.5,0-1,0-1.4
		c0-0.5,0.4-1,1-1c2.2,0,4.4,0,6.5,0c0.5,0,1,0.4,1,1c0,0.5,0,1.1,0,1.6c0.2,0,0.4,0,0.6,0c0-0.6,0-1.3,0-1.9
		c0.3-0.1,0.8,0.2,0.9,0.6c0.1,0.5,0.2,0.9,0.3,1.4c0.2,0.9,0.4,1.8,0.6,2.7c0.2,0.9,0.3,1.7,0.1,2.6c-0.1,0.3-0.2,0.6-0.4,1
		c0,0.1-0.1,0.1-0.2,0.1c-1.1,0.2-1.7,0.8-2,2c-0.2-0.1-0.4-0.2-0.6-0.3c-0.4-0.1-0.5-0.3-0.5-0.7c0-0.9-0.2-1.8-0.2-2.7
		c0-2.2,0-4.4,0-6.5c0-0.1,0-0.2,0-0.3c-0.2,0-0.4,0-0.6,0c0,0.1,0,0.1,0,0.2c0,2.2,0,4.3,0,6.5c0,1,0.1,2.1,0.2,3.1
		c0,0,0,0.1,0,0.1C17.2,21.2,15.5,21.2,13.9,21.3z"/>
	<path d="M13.8,24.5c0-0.2,0-0.4,0-0.7c-0.2,0-0.4,0-0.6,0c-0.6,0-1-0.4-1-1c0-0.1,0-0.2,0.1-0.2c0.7-0.5,1.4-0.7,2.3-0.7
		c1.2,0,2.5,0,3.7,0c0.8,0,1.6,0.3,2.3,0.7c0.1,0,0.1,0.1,0.1,0.2c0,0.6-0.4,1-1,1c-0.2,0-0.4,0-0.6,0c0,0.2,0,0.4,0,0.6
		c1,0.1,1.8-0.1,2.2-1.1c0.1-0.2,0.1-0.4,0.1-0.6c0-0.3,0-0.6,0-0.8c0.1-0.8,0.8-1.3,1.5-1.3c0.8,0,1.5,0.5,1.7,1.2
		c0.1,0.6,0.1,1.2,0,1.8c-0.2,0.9-1,1.4-1.9,1.4c-4.1,0-8.2,0-12.3,0c-1.1,0-2-0.9-2-2c0-0.4,0-0.8,0-1.2c0.1-0.8,0.8-1.3,1.6-1.3
		c0.8,0,1.4,0.6,1.6,1.3c0,0.2,0,0.4,0,0.5c-0.1,1.3,0.7,2.1,2,2C13.6,24.5,13.7,24.5,13.8,24.5z"/>
	<path d="M16.4,6.3c0.8,0,1.7,0,2.5,0c0.3,0,0.4,0.1,0.4,0.4c0,0.6,0,1.2,0,1.8c0,0.3-0.1,0.4-0.4,0.4c-1.7,0-3.4,0-5,0
		c-0.3,0-0.4-0.1-0.4-0.4c0-0.6,0-1.2,0-1.8c0-0.3,0.1-0.4,0.4-0.4C14.7,6.3,15.5,6.3,16.4,6.3z"/>
	<path d="M23.1,7.6c0.8-0.2,1.2-0.6,1.4-1.5c0.2,0.8,0.6,1.3,1.5,1.5c-0.8,0.2-1.3,0.6-1.5,1.4C24.3,8.2,23.9,7.8,23.1,7.6z"/>
	<path d="M8.2,9.1c0.2,0.8,0.6,1.2,1.5,1.4c-0.8,0.2-1.3,0.6-1.5,1.5c-0.2-0.8-0.6-1.3-1.5-1.5C7.6,10.3,8.1,9.9,8.2,9.1z"/>
	<path d="M14.7,10.2c0-0.2,0-0.4,0-0.6c1.1,0,2.1,0,3.2,0c0,0.2,0,0.4,0,0.6C16.9,10.2,15.8,10.2,14.7,10.2z"/>
</g>
</svg>
