<?xml version="1.0" encoding="utf-8"?>
<!-- Generator: Adobe Illustrator 24.2.0, SVG Export Plug-In . SVG Version: 6.00 Build 0)  -->
<svg version="1.1" id="Calque_1" xmlns="http://www.w3.org/2000/svg" xmlns:xlink="http://www.w3.org/1999/xlink" x="0px" y="0px"
	 viewBox="0 0 32 32" style="enable-background:new 0 0 32 32;" xml:space="preserve">
<style type="text/css">
	.st0{fill:none;stroke:#000000;stroke-width:0.4768;stroke-miterlimit:10;}
</style>
<circle class="st0" cx="16" cy="16" r="15.1"/>
<g>
	<g>
		<path d="M10.8,7.8c0.8,0,1.7,0,2.5,0c0-0.3,0-0.5,0-0.8c0-0.4,0.2-0.7,0.6-0.8c0.5-0.1,1,0.2,1,0.7c0,0.3,0,0.6,0,0.9
			c0.9,0,1.7,0,2.5,0c0-0.3,0-0.5,0-0.8c0-0.5,0.4-0.8,0.8-0.8c0.5,0,0.8,0.4,0.8,0.8c0,0.3,0,0.5,0,0.8c0.8,0,1.7,0,2.5,0
			c0-0.2,0-0.4,0-0.7c0-0.1,0-0.3,0.1-0.4c0.1-0.4,0.5-0.6,0.9-0.5c0.4,0,0.7,0.4,0.7,0.7c0,0.1,0,0.3,0,0.4c0,0.1,0,0.3,0,0.5
			c0.2,0,0.4,0,0.6,0c1,0,1.5,0.5,1.6,1.5c0,0.1,0,0.1,0,0.2c0,4.9,0,9.8,0,14.6c0,0.4-0.1,0.8-0.3,1.2c-0.2,0.3-0.6,0.5-1,0.5
			c-5.2,0-10.4,0-15.5,0c-0.8,0-1.3-0.6-1.4-1.2c0-0.1,0-0.3,0-0.4c0-4.9,0-9.8,0-14.7c0-0.4,0.1-0.8,0.3-1.2C7.8,8,8.1,7.8,8.5,7.8
			c0.2,0,0.4,0,0.6,0c0-0.3,0-0.5,0-0.8c0-0.5,0.3-0.9,0.8-0.9c0.5,0,0.8,0.4,0.8,0.9C10.8,7.3,10.8,7.5,10.8,7.8z M24.8,12
			c-5.7,0-11.3,0-17,0c0,0.1,0,0.2,0,0.2c0,3.4,0,6.7,0,10.1c0,0.1,0,0.2,0,0.3c0,0.7,0.5,1.1,1.2,1.1c4,0,7.9,0,11.9,0
			c0.5,0,0.7-0.2,0.8-0.5c0-0.1,0.1-0.2,0.1-0.3c0.2-0.8,0.2-1.6-0.1-2.3c-0.1-0.1-0.1-0.3,0.1-0.4c0.1-0.1,0.2-0.1,0.4,0
			c0.5,0.2,0.9,0.1,1.4-0.2c0.4-0.3,0.8-0.7,1-1.1c0.1-0.1,0.1-0.2,0.1-0.4c0-2.1,0-4.2,0-6.3C24.8,12.1,24.8,12.1,24.8,12z
			 M24.8,11.4c0-0.8,0-1.5,0-2.2c0-0.3-0.2-0.6-0.5-0.7c-0.3-0.1-0.6,0-1,0c0,0.3,0,0.6,0,0.9c0,0.3-0.2,0.5-0.4,0.6
			c-0.6,0.3-1.2-0.1-1.2-0.7c0-0.3,0-0.5,0-0.8c-0.8,0-1.7,0-2.5,0c0,0.3,0,0.5,0,0.8c0,0.5-0.4,0.9-0.8,0.9c-0.5,0-0.8-0.4-0.8-0.9
			c0-0.3,0-0.5,0-0.8c-0.9,0-1.7,0-2.5,0c0,0.3,0,0.6,0,0.9c0,0.3-0.3,0.6-0.6,0.7c-0.5,0.1-1-0.2-1.1-0.8c0-0.3,0-0.5,0-0.8
			c-0.8,0-1.7,0-2.5,0c0,0.3,0,0.5,0,0.8c0,0.5-0.4,0.9-0.8,0.9c-0.5,0-0.8-0.4-0.8-0.9c0-0.3,0-0.5,0-0.8c-0.2,0-0.4,0-0.6,0
			C8.3,8.4,8.1,8.5,8,8.8C8,8.9,7.9,9.1,7.9,9.3c0,0.7,0,1.3,0,2c0,0,0,0.1,0,0.1C13.5,11.4,19.2,11.4,24.8,11.4z M7.9,24
			c0,0.2,0,0.3,0,0.4c0.1,0.5,0.3,0.7,0.8,0.7c2.5,0,4.9,0,7.4,0c2.7,0,5.3,0,8,0c0.3,0,0.5-0.1,0.6-0.4c0.1-0.1,0.1-0.3,0.1-0.5
			c0-0.6,0-1.2,0-1.7c0-0.1,0-0.1,0-0.2c-0.1,0.1-0.1,0.1-0.1,0.2c-0.8,1.3-1.9,1.9-3.4,1.9c-4.1,0-8.1,0-12.2,0
			C8.7,24.4,8.3,24.3,7.9,24z M22.3,23.7c0.8-0.2,1.3-0.7,1.7-1.3c0.5-0.7,0.8-1.6,0.8-2.5c-0.6,0.7-1.3,1.1-2.2,1.1
			C22.8,21.8,22.8,22.7,22.3,23.7z M10.2,8.1c0-0.4,0-0.7,0-1.1c0-0.1,0-0.3-0.2-0.3C9.8,6.8,9.8,6.9,9.8,7c0,0.7,0,1.4,0,2.1
			c0,0.1,0,0.3,0.2,0.3c0.2,0,0.2-0.1,0.2-0.3C10.2,8.8,10.2,8.5,10.2,8.1z M18.5,8.1c0-0.3,0-0.7,0-1c0-0.1,0-0.3-0.2-0.3
			c-0.2,0-0.2,0.1-0.2,0.3c0,0.7,0,1.4,0,2.1c0,0.1,0,0.3,0.2,0.3c0.2,0,0.2-0.1,0.2-0.3C18.5,8.8,18.5,8.4,18.5,8.1z M14.3,8.1
			c0-0.4,0-0.7,0-1.1c0-0.1,0-0.2-0.2-0.2C14,6.8,14,6.9,14,7c0,0.7,0,1.4,0,2.2c0,0.1,0,0.2,0.2,0.2c0.2,0,0.2-0.1,0.2-0.2
			C14.3,8.8,14.3,8.5,14.3,8.1z M22.3,8.1c0,0.4,0,0.7,0,1.1c0,0.1,0,0.2,0.2,0.2c0.2,0,0.2-0.1,0.2-0.2c0-0.7,0-1.4,0-2.2
			c0-0.1,0-0.2-0.2-0.2c-0.2,0-0.2,0.1-0.2,0.3C22.3,7.4,22.3,7.7,22.3,8.1z"/>
		<path d="M7.9,24c0.4,0.3,0.8,0.4,1.2,0.4c4.1,0,8.1,0,12.2,0c1.6,0,2.6-0.7,3.4-1.9c0,0,0.1-0.1,0.1-0.2c0,0.1,0,0.2,0,0.2
			c0,0.6,0,1.2,0,1.7c0,0.2,0,0.3-0.1,0.5c-0.1,0.3-0.3,0.4-0.6,0.4c-2.7,0-5.3,0-8,0c-2.5,0-4.9,0-7.4,0c-0.5,0-0.7-0.2-0.8-0.7
			C7.9,24.3,7.9,24.2,7.9,24z"/>
	</g>
	<g>
		<path d="M12.8,15.2l-1.5,3.5h-0.7l0.5-1.1l-1-2.4h0.7l0.4,1.1l0.2,0.7l0.3-0.7l0.4-1.1H12.8z"/>
		<path d="M14.1,16.6c0,0.3,0.3,0.5,0.7,0.5c0.2,0,0.5-0.1,0.7-0.2l0.4,0.4c-0.3,0.3-0.7,0.4-1.1,0.4c-0.8,0-1.3-0.5-1.3-1.3
			c0-0.7,0.5-1.3,1.3-1.3c0.8,0,1.3,0.5,1.2,1.5H14.1z M15.4,16.1c0-0.3-0.3-0.5-0.6-0.5c-0.3,0-0.6,0.2-0.7,0.5H15.4z"/>
		<path d="M18.8,15.2h0.6v2.4h-0.6l0-0.4c-0.1,0.3-0.5,0.4-0.8,0.4c-0.7,0-1.3-0.4-1.3-1.3c0-0.8,0.6-1.3,1.3-1.3
			c0.3,0,0.6,0.2,0.8,0.4L18.8,15.2z M17.4,16.4c0,0.5,0.3,0.7,0.7,0.7c1,0,1-1.5,0-1.5C17.7,15.7,17.4,15.9,17.4,16.4z"/>
		<path d="M20.9,15.2l0,0.3c0.2-0.3,0.4-0.3,0.7-0.3c0.3,0,0.5,0.1,0.6,0.2L22,15.9c-0.1-0.1-0.2-0.2-0.4-0.2
			c-0.3,0-0.6,0.2-0.6,0.6v1.3h-0.6v-2.4H20.9z"/>
	</g>
</g>
</svg>
