<?xml version="1.0" encoding="utf-8"?>
<!-- Generator: Adobe Illustrator 24.2.0, SVG Export Plug-In . SVG Version: 6.00 Build 0)  -->
<svg version="1.1" id="Calque_1" xmlns="http://www.w3.org/2000/svg" xmlns:xlink="http://www.w3.org/1999/xlink" x="0px" y="0px"
	 viewBox="0 0 32 32" style="enable-background:new 0 0 32 32;" xml:space="preserve">
<style type="text/css">
	.st0{fill:none;stroke:#000000;stroke-width:0.4768;stroke-miterlimit:10;}
</style>
<circle class="st0" cx="16" cy="16" r="15.1"/>
<g>
	<path d="M6.9,16c0-5,4.1-9.1,9.1-9.1c5,0,9.1,4.1,9,9.1c0,5-4.1,9.1-9.1,9.1C11,25.1,6.9,21,6.9,16z M16,23.8
		c4.3,0,7.8-3.5,7.8-7.8c0-4.3-3.5-7.8-7.8-7.8c-4.3,0-7.8,3.5-7.8,7.8C8.2,20.3,11.7,23.8,16,23.8z"/>
	<path d="M15.4,14.3c0-0.7,0-1.5,0-2.2c0-0.4,0.3-0.7,0.6-0.7c0.4,0,0.6,0.3,0.6,0.7c0,1.3,0,2.6,0,3.9c0,0.1,0,0.2,0.1,0.3
		c0.8,0.5,1.7,1,2.5,1.5c0.3,0.2,0.4,0.5,0.3,0.8c-0.2,0.4-0.6,0.5-1,0.3c-0.7-0.4-1.4-0.9-2.1-1.3c-0.3-0.2-0.5-0.3-0.8-0.5
		c-0.2-0.1-0.4-0.3-0.4-0.6C15.4,15.7,15.4,15,15.4,14.3z"/>
</g>
</svg>
