<?xml version="1.0" encoding="utf-8"?>
<!-- Generator: Adobe Illustrator 24.2.0, SVG Export Plug-In . SVG Version: 6.00 Build 0)  -->
<svg version="1.1" id="Calque_1" xmlns="http://www.w3.org/2000/svg" xmlns:xlink="http://www.w3.org/1999/xlink" x="0px" y="0px"
	 viewBox="0 0 32 32" style="enable-background:new 0 0 32 32;" xml:space="preserve">
<style type="text/css">
	.st0{fill:none;stroke:#000000;stroke-width:0.4768;stroke-miterlimit:10;}
</style>
<circle class="st0" cx="16" cy="16" r="15.1"/>
<g>
	<path d="M26,7.9c-0.3,1.1-0.9,1.9-1.5,2.8c-0.1,0.1-0.1,0.2-0.2,0.2c-0.1,0.1-0.2,0.1-0.3,0c-0.3-0.4-0.6-0.9-0.9-1.3
		c-0.2-0.4-0.4-0.8-0.6-1.2c-0.2-0.5-0.2-1,0-1.5c0.3-0.5,0.7-0.9,1.3-1c0,0,0,0,0.1,0c0.1,0,0.3,0,0.4,0c0,0,0,0,0,0
		c0.8,0.1,1.3,0.6,1.5,1.4c0,0.1,0,0.1,0,0.2C26,7.6,26,7.8,26,7.9z M24.2,10.6c0.5-0.7,1-1.4,1.3-2.2c0.1-0.2,0.2-0.4,0.2-0.7
		c0-0.9-0.8-1.5-1.6-1.4c-0.9,0.1-1.6,1.1-1.2,2c0.3,0.6,0.6,1.2,0.9,1.7C23.9,10.1,24,10.3,24.2,10.6z"/>
	<path d="M3.1,18.4c0-1.1,0.9-2.1,2-2.2c1.2-0.1,2.4,0.8,2.4,2.1c0,0.3-0.1,0.7-0.2,1c-0.3,0.8-0.8,1.5-1.2,2.2
		c-0.2,0.3-0.4,0.6-0.6,0.9c-0.1,0.2-0.3,0.2-0.4,0c-0.6-0.9-1.2-1.8-1.7-2.8C3.2,19.3,3.1,18.9,3.1,18.4
		C3.1,18.5,3.1,18.5,3.1,18.4z M5.3,22c0.1-0.1,0.1-0.1,0.1-0.2C6,21,6.5,20.2,6.9,19.3c0.1-0.3,0.3-0.7,0.2-1
		c-0.2-1.2-1.4-1.9-2.5-1.5c-0.8,0.3-1.4,1.3-1,2.2c0.2,0.5,0.4,0.9,0.7,1.3C4.6,20.9,4.9,21.5,5.3,22z"/>
	<path d="M23.1,11.4C23.1,11.7,23,12,23,12.2c0,0,0,0,0,0.1c-0.7-0.1-1.4-0.3-2.2-0.4c-1.7-0.4-3.2,0.6-3.6,2.2
		c-0.1,0.3-0.1,0.6-0.1,0.8c0,1.1,0,2.3,0,3.4c-0.2,2.4-1.9,4.4-4.2,5c-0.4,0.1-0.8,0.1-1.2,0.2c-1.3,0-2.5,0-3.8,0c0,0-0.1,0-0.2,0
		c0-0.3,0-0.6,0-0.8c0.1,0,0.2,0,0.3,0c1.2,0,2.3,0,3.5,0c1.8,0,3.2-0.8,4.2-2.4c0.5-0.8,0.6-1.6,0.6-2.5c0-1.1,0-2.2,0-3.3
		c0.1-1.6,1.4-3.1,3-3.4c0.8-0.2,1.6,0,2.5,0.2C22.2,11.2,22.7,11.3,23.1,11.4z"/>
	<path d="M24.2,6.8c0.5,0,1,0.4,1,1c0,0.5-0.4,1-1,1c-0.5,0-1-0.4-1-1C23.2,7.2,23.6,6.8,24.2,6.8z M24.8,7.7c0-0.4-0.3-0.7-0.6-0.7
		c-0.4,0-0.7,0.3-0.7,0.7c0,0.4,0.3,0.6,0.6,0.6C24.5,8.4,24.8,8.1,24.8,7.7z"/>
	<path d="M4.1,18.5c0-0.7,0.6-1.2,1.2-1.2c0.7,0,1.2,0.6,1.2,1.2c0,0.7-0.6,1.2-1.2,1.2C4.6,19.7,4.1,19.1,4.1,18.5z M5.3,19.3
		c0.4,0,0.8-0.4,0.8-0.8c0-0.4-0.4-0.8-0.8-0.8c-0.4,0-0.8,0.4-0.8,0.8C4.5,18.9,4.9,19.3,5.3,19.3z"/>
</g>
</svg>
