<?xml version="1.0" encoding="utf-8"?>
<!-- Generator: Adobe Illustrator 24.2.0, SVG Export Plug-In . SVG Version: 6.00 Build 0)  -->
<svg version="1.1" id="Calque_1" xmlns="http://www.w3.org/2000/svg" xmlns:xlink="http://www.w3.org/1999/xlink" x="0px" y="0px"
	 viewBox="0 0 32 32" style="enable-background:new 0 0 32 32;" xml:space="preserve">
<style type="text/css">
	.st0{fill:none;stroke:#000000;stroke-width:0.4768;stroke-miterlimit:10;}
</style>
<circle class="st0" cx="16.4" cy="16" r="15.1"/>
<g>
	<path d="M4.9,13.9c0.1-0.3,0.2-0.7,0.5-1c0.5-0.7,1.1-0.9,2-0.9c2.4,0,4.9,0,7.3,0c3.5,0,6.9,0,10.4,0c0.8,0,1.5,0.3,1.9,0.9
		c0.3,0.4,0.5,0.8,0.5,1.3c0,1.2,0,2.3,0,3.5c0,1.2-1,2.4-2.3,2.4c-0.4,0-0.8,0-1.2,0c-5.5,0-11.1,0-16.6,0c-0.8,0-1.5-0.3-2-0.9
		c-0.2-0.3-0.3-0.7-0.5-1C4.9,16.7,4.9,15.3,4.9,13.9z M19.8,15.9C19.8,15.9,19.8,15.9,19.8,15.9c0-0.3,0-0.5,0-0.8
		c0-0.5-0.3-0.9-0.8-1c-0.2,0-0.5,0-0.7,0c-0.5,0.1-0.8,0.4-0.9,0.9c0,0.5,0,1.1,0,1.6c0,0.5,0.3,0.8,0.8,0.9c0.2,0,0.4,0.1,0.6,0
		c0.6-0.1,0.9-0.5,0.9-1.1C19.8,16.4,19.8,16.2,19.8,15.9z M22.5,15.9C22.5,15.9,22.5,15.9,22.5,15.9c0-0.3,0-0.5,0-0.8
		c0-0.5-0.3-0.8-0.7-0.9c-0.2,0-0.5-0.1-0.7,0c-0.5,0.1-0.9,0.4-0.9,1c0,0.5,0,1,0,1.5c0,0.5,0.3,0.8,0.8,0.9c0.2,0,0.4,0.1,0.6,0
		c0.6-0.1,0.9-0.4,1-1C22.5,16.4,22.5,16.2,22.5,15.9z M25.3,15.9C25.3,15.9,25.3,15.9,25.3,15.9c0-0.3,0-0.5,0-0.8
		c0-0.4-0.3-0.8-0.7-0.9c-0.2,0-0.5-0.1-0.7,0c-0.6,0.1-0.9,0.4-0.9,1c0,0.5,0,1,0,1.5c0,0.5,0.3,0.9,0.8,1c0.2,0,0.3,0,0.5,0
		c0.6,0,1-0.4,1-1C25.3,16.4,25.3,16.2,25.3,15.9z M8.7,15.4c-0.2-0.4-0.4-0.7-0.6-1.1c-0.1-0.2-0.3-0.2-0.5-0.1
		c-0.2,0.1-0.2,0.3-0.1,0.5c0.2,0.4,0.4,0.7,0.7,1.1c0.1,0.1,0.1,0.2,0,0.3c-0.2,0.4-0.5,0.7-0.7,1.1c-0.1,0.2-0.1,0.3,0.1,0.4
		c0.3,0.2,0.5,0.2,0.6-0.1c0.2-0.3,0.4-0.7,0.6-1c0.2,0.4,0.4,0.7,0.6,1.1c0.1,0.2,0.3,0.2,0.5,0.1c0.2-0.1,0.3-0.3,0.1-0.5
		c-0.2-0.3-0.4-0.7-0.6-1c-0.1-0.1-0.1-0.3,0-0.4c0.2-0.3,0.4-0.7,0.6-1c0.1-0.2,0.1-0.4-0.1-0.5c-0.2-0.1-0.4-0.1-0.6,0.1
		C9.1,14.7,8.9,15,8.7,15.4z M13.9,17c0.2-0.4,0.4-0.8,0.6-1.1c0.2-0.4,0.5-0.9,0.7-1.3c0.2-0.3,0.1-0.4-0.3-0.4c-0.5,0-1.1,0-1.6,0
		c-0.3,0-0.4,0.1-0.4,0.3c0,0.2,0.1,0.3,0.4,0.3c0.3,0,0.6,0,1,0c-0.1,0.1-0.1,0.2-0.1,0.2c-0.4,0.7-0.8,1.4-1.2,2.2
		c-0.2,0.3-0.1,0.4,0.3,0.5c0.6,0,1.2,0,1.8,0c0.2,0,0.4-0.1,0.4-0.3c0-0.2-0.1-0.3-0.4-0.3C14.7,17,14.3,17,13.9,17z M11.5,15.5
		c-0.2-0.4-0.4-0.8-0.6-1.1c-0.2-0.3-0.4-0.3-0.7-0.1c-0.1,0.1-0.1,0.2-0.1,0.3c0.1,0.2,0.2,0.4,0.3,0.5c0.5,0.7,0.8,1.4,0.6,2.2
		c0,0.2,0.1,0.3,0.4,0.3c0.3,0,0.4-0.1,0.4-0.3c0-0.3,0-0.6,0-1c0-0.1,0-0.2,0.1-0.3c0.3-0.5,0.6-1,0.8-1.4c0-0.1,0-0.2,0-0.3
		c-0.2-0.3-0.6-0.2-0.7,0.1C11.9,14.8,11.7,15.2,11.5,15.5z M10.3,18.3c-0.3,0-0.5,0.2-0.5,0.5c0,0.3,0.2,0.5,0.5,0.5
		c0.3,0,0.5-0.2,0.5-0.5C10.7,18.6,10.5,18.4,10.3,18.3z M22.1,18.3c-0.3,0-0.5,0.2-0.5,0.5c0,0.3,0.2,0.5,0.5,0.5
		c0.3,0,0.5-0.2,0.5-0.5C22.6,18.6,22.4,18.3,22.1,18.3z M10.3,12.7c-0.3,0-0.5,0.2-0.5,0.5c0,0.2,0.2,0.5,0.4,0.5
		c0.3,0,0.5-0.2,0.5-0.4C10.8,13,10.6,12.7,10.3,12.7z M22.1,13.7c0.3,0,0.5-0.2,0.5-0.5c0-0.3-0.2-0.5-0.5-0.5
		c-0.3,0-0.5,0.2-0.5,0.5C21.7,13.4,21.9,13.6,22.1,13.7z"/>
	<path d="M19.1,15.9c0,0.2,0,0.5,0,0.7c0,0.2-0.2,0.4-0.4,0.4c-0.2,0-0.4-0.1-0.4-0.4c0-0.5,0-1,0-1.5c0-0.2,0.2-0.4,0.4-0.4
		c0.3,0,0.4,0.1,0.4,0.4C19.1,15.4,19.1,15.7,19.1,15.9z"/>
	<path d="M21,15.9c0-0.2,0-0.5,0-0.7c0-0.2,0.2-0.4,0.4-0.4c0.2,0,0.4,0.1,0.4,0.3c0,0.5,0,1,0,1.5c0,0.2-0.2,0.4-0.4,0.4
		c-0.2,0-0.4-0.1-0.4-0.4C20.9,16.4,21,16.2,21,15.9z"/>
	<path d="M23.7,15.9c0-0.2,0-0.5,0-0.7c0-0.3,0.2-0.4,0.4-0.4c0.3,0,0.4,0.1,0.4,0.4c0,0.5,0,1,0,1.5c0,0.3-0.2,0.4-0.4,0.4
		c-0.2,0-0.4-0.1-0.4-0.4C23.7,16.4,23.7,16.2,23.7,15.9z"/>
</g>
</svg>
