<?xml version="1.0" encoding="utf-8"?>
<!-- Generator: Adobe Illustrator 24.2.0, SVG Export Plug-In . SVG Version: 6.00 Build 0)  -->
<svg version="1.1" id="Calque_1" xmlns="http://www.w3.org/2000/svg" xmlns:xlink="http://www.w3.org/1999/xlink" x="0px" y="0px"
	 viewBox="0 0 32 32" style="enable-background:new 0 0 32 32;" xml:space="preserve">
<style type="text/css">
	.st0{fill:none;stroke:#000000;stroke-width:0.4768;stroke-miterlimit:10;}
</style>
<g>
	<path d="M22.5,8c1-1,1.9-1.9,2.9-2.9c0.2,0.2,0.4,0.4,0.6,0.6c-0.9,0.9-1.9,1.9-2.9,2.9c0.1,0.1,0.1,0.1,0.2,0.2
		c0.5,0.5,1,1,1.5,1.5c0.9,0.9,0.9,2.2,0,3.1c-0.4,0.4-0.8,0.8-1.2,1.2c-0.1,0.1-0.1,0.2-0.2,0.3c-1.1,3.5-2.1,7.1-3.2,10.6
		c-0.4,1.3-1.5,1.9-2.8,1.5c-1.5-0.5-3.1-0.9-4.6-1.4c-0.2,0-0.3,0-0.4,0.1c-0.3,0.3-0.6,0.6-0.8,0.8c-0.8,0.7-2,0.8-2.9,0
		c-0.1,0-0.1-0.1-0.2-0.1c-1.3-1.3-2.6-2.6-3.9-3.9c-0.8-0.8-0.9-2-0.2-2.9c0.1-0.1,0.2-0.2,0.3-0.3c4.3-4.3,8.6-8.6,12.9-13
		c0.8-0.8,2-1,2.9-0.3c0.1,0.1,0.2,0.2,0.4,0.3C21.4,7,22,7.5,22.5,8z M21.9,8.7C21.8,8.6,21.8,8.6,21.9,8.7
		c-0.5-0.6-1.1-1.1-1.6-1.6c-0.7-0.7-1.4-0.7-2.1,0c-1.5,1.5-3,3-4.5,4.5c-2.8,2.8-5.6,5.6-8.4,8.4c-0.6,0.6-0.6,1.4,0,1.9
		c1.3,1.3,2.6,2.6,3.9,3.9c0.1,0.1,0.3,0.3,0.5,0.3c0.6,0.2,1,0,1.5-0.4c4.3-4.3,8.6-8.6,12.9-12.9c0.1-0.1,0.1-0.1,0.2-0.2
		c0.4-0.5,0.4-1.2,0-1.7c-0.6-0.6-1.2-1.1-1.7-1.7c-0.3,0.3-0.7,0.7-1,1c-0.2-0.2-0.4-0.4-0.6-0.6C21.2,9.3,21.5,9,21.9,8.7z"/>
	<path d="M19.1,15.1C19.1,15.1,19.1,15.1,19.1,15.1c-0.4,0.5-0.4,0.5-1,0.3c-0.7-0.2-1.4-0.3-2.1-0.5c0.6,0.6,1.1,1.1,1.6,1.6
		c-0.2,0.2-0.4,0.4-0.6,0.6c-1-1-2-2-3.1-3.1c0.1-0.1,0.3-0.2,0.4-0.4c0,0,0.1,0,0.2,0c0.8,0.2,1.7,0.4,2.5,0.6
		c-0.6-0.6-1.1-1.1-1.6-1.6c0.2-0.2,0.4-0.4,0.6-0.6C17.1,13,18.1,14.1,19.1,15.1z"/>
	<path d="M9.4,24.8c-1-1-2-2-3.1-3.1c0.4-0.3,0.7-0.7,1.1-1c0.7-0.5,1.8-0.1,2,0.8c0,0.1,0,0.2,0.1,0.2c0.6,0.1,1,0.4,1.2,1
		c0.1,0.4,0.1,0.8-0.2,1.1C10.1,24.1,9.7,24.4,9.4,24.8C9.4,24.8,9.4,24.8,9.4,24.8z M8.2,22.3c0.2-0.2,0.5-0.3,0.4-0.6
		c0-0.1-0.2-0.3-0.3-0.3c-0.3-0.1-0.5,0.2-0.7,0.4C7.8,21.9,8,22.1,8.2,22.3z M9.4,23.6c0.2-0.2,0.5-0.3,0.4-0.7
		c0-0.2-0.2-0.3-0.4-0.3c-0.3,0-0.4,0.2-0.6,0.4C9,23.2,9.2,23.4,9.4,23.6z"/>
	<path d="M11.7,20.1c0.5,0,1,0,1.5,0c0,0.3,0,0.5,0,0.9c-0.5,0-1,0-1.5,0c0,0,0,0,0,0.1c0.3,0.2,0.5,0.5,0.8,0.7
		c-0.2,0.2-0.4,0.4-0.6,0.6c-1-1-2-2-3-3c0.4-0.3,0.7-0.7,1.1-1c0.5-0.4,1.1-0.3,1.6,0.1c0.4,0.4,0.6,1,0.3,1.5
		C11.7,19.9,11.7,20,11.7,20.1z M10,19.3c0.2,0.2,0.3,0.3,0.5,0.5c0,0,0.1,0,0.1,0.1c0.6-0.4,0.5-0.7,0.3-0.9
		C10.6,18.8,10.4,18.9,10,19.3z"/>
	<path d="M19.8,14.4c-1-1-2-2-3-3c0.6-0.7,1.3-1.1,2.2-0.9c0.9,0.2,1.5,0.8,1.7,1.7C20.8,13.1,20.5,13.8,19.8,14.4z M18,11.4
		c0.6,0.6,1.1,1.1,1.7,1.7c0.2-0.5,0.1-1-0.3-1.4C19,11.3,18.5,11.2,18,11.4z"/>
	<path d="M14.6,19.7c-0.3,0.1-0.5,0.3-0.8,0.4c0-0.1-0.1-0.1-0.1-0.2c-0.6-1.2-1.2-2.4-1.8-3.6c-0.1-0.1-0.1-0.2,0-0.3
		c0.4-0.4,0.4-0.4,0.9-0.1c1.1,0.6,2.1,1.1,3.2,1.7c0.1,0,0.1,0.1,0.2,0.1c-0.1,0.3-0.3,0.5-0.4,0.8c-0.3-0.2-0.6-0.3-0.9-0.5
		c-0.2,0.2-0.5,0.5-0.7,0.7c0,0,0,0.2,0,0.2C14.4,19.2,14.5,19.5,14.6,19.7z M13.4,17.2C13.4,17.2,13.4,17.2,13.4,17.2
		c0.1,0.3,0.2,0.5,0.3,0.7c0.1-0.1,0.3-0.2,0.4-0.3C13.9,17.4,13.7,17.3,13.4,17.2z"/>
</g>
<circle class="st0" cx="16" cy="16.1" r="15.1"/>
</svg>
