<?xml version="1.0" encoding="utf-8"?>
<!-- Generator: Adobe Illustrator 24.2.0, SVG Export Plug-In . SVG Version: 6.00 Build 0)  -->
<svg version="1.1" id="Calque_1" xmlns="http://www.w3.org/2000/svg" xmlns:xlink="http://www.w3.org/1999/xlink" x="0px" y="0px"
	 viewBox="0 0 32 32" style="enable-background:new 0 0 32 32;" xml:space="preserve">
<style type="text/css">
	.st0{fill:none;stroke:#000000;stroke-width:0.4768;stroke-miterlimit:10;}
</style>
<circle class="st0" cx="16" cy="16.1" r="15.1"/>
<g>
	<path d="M7.6,16.5c0-0.3,0.1-0.5,0.1-0.8c0.4-2,1.6-3.4,3.4-4.2c0.1-0.1,0.2-0.1,0.2-0.3c-0.1-1.2,1-2.1,2.1-1.6
		c0.6,0.2,1.1,0.7,1.3,1.3c0,0.1,0.1,0.1,0.2,0.2c0.3,0,0.5,0.1,0.8,0.2c0-0.2,0-0.4,0.1-0.6c0.1-0.5,0.4-0.8,0.9-0.8
		c0.5-0.1,0.9,0.1,1.2,0.5c0.3,0.5,0.4,1.1,0.1,1.6c0,0.1-0.1,0.2-0.1,0.3c0.2,0.2,0.5,0.4,0.8,0.6c0.1-0.2,0.3-0.4,0.4-0.6
		c0.2-0.3,0.3-0.3,0.6-0.1c0,0,0,0,0.1,0.1c0.3-0.4,0.6-0.9,0.9-1.3c1.1-1.5,2.1-3,3.2-4.5c0.3-0.4,0.6-0.5,1-0.2
		c0.1,0.1,0.2,0.2,0.4,0.3c0.4,0.3,0.4,0.6,0.2,0.9c-1.1,1.6-2.3,3.2-3.4,4.8c-0.2,0.3-0.5,0.6-0.7,1c0.2,0.3,0.2,0.3,0,0.6
		c-0.1,0.1-0.1,0.2-0.2,0.3c-0.2,0.2-0.3,0.5-0.2,0.8c0,0.1,0,0.2,0,0.3c-0.1,0.2,0,0.4,0,0.5c0.3,0.7,0.4,1.4,0.3,2.1
		c-0.2,1-0.9,1.7-1.9,1.9c-0.4,0.1-0.8,0.1-1.2,0.1c-0.8,0.1-1.4,0.5-1.8,1.1c-0.2,0.3-0.4,0.6-0.6,0.9c-0.7,1.1-1.7,1.6-2.9,1.5
		c-1.7-0.1-2.9-0.9-3.9-2.2c-0.7-1-1-2.1-1.2-3.3c0-0.1,0-0.1,0-0.2C7.6,17.3,7.6,16.9,7.6,16.5z M14.9,11.6c0.1,0.7,0,1.4-0.1,2.1
		c0,0.2-0.1,0.3-0.3,0.3c-0.2,0-0.2-0.1-0.3-0.2c-0.2-0.3-0.3-0.6-0.5-0.9c-0.2-0.3-0.5-0.4-0.8-0.5c-0.4-0.1-0.9-0.2-1.2-0.5
		c0,0-0.1,0-0.1,0c-1.3,0.6-2.4,1.4-2.9,2.8c-0.7,1.7-0.6,3.5,0.1,5.2c0.7,1.6,1.9,2.7,3.7,2.9c1.1,0.1,2-0.3,2.6-1.2
		c0.1-0.2,0.2-0.4,0.4-0.6c0.4-0.7,1-1.3,1.8-1.6c0.5-0.2,1.1-0.2,1.6-0.3c0.8-0.1,1.3-0.4,1.6-1.1c0.2-0.4,0.2-0.9,0.1-1.4
		c0-0.2-0.1-0.4-0.2-0.6c-0.1,0.1-0.2,0.3-0.4,0.3c-0.6,0.5-1.2,0.8-2,0.9c-0.1,0-0.2,0-0.2,0.1c-0.3,0.8-0.9,1.2-1.8,1.2
		c-1,0-1.8-0.7-2-1.6c-0.2-0.9,0.4-1.9,1.3-2.2c0.5-0.2,1-0.1,1.5,0.1c0.4-0.6,0.7-1.2,1.3-1.7c-0.2-0.1-0.4-0.3-0.5-0.4
		c-0.4,0.3-0.8,0.6-1.2,0.8c-0.1,0.1-0.2,0.1-0.4,0c-0.1-0.1-0.1-0.2-0.1-0.3c0-0.1,0.1-0.2,0.1-0.3c0.1-0.2,0.1-0.5,0.2-0.7
		c0-0.1-0.1-0.2-0.1-0.3C15.7,11.8,15.3,11.7,14.9,11.6z M24.3,6.5c-1.4,2-2.8,3.9-4.2,5.9c0.2,0.1,0.4,0.3,0.6,0.4
		c1.4-2,2.8-3.9,4.2-5.9C24.7,6.8,24.5,6.6,24.3,6.5z M19.3,16.1c0.1-0.1,0.1-0.1,0.2-0.1c0.3-0.3,0.6-0.5,0.7-0.9
		c0.1-0.3,0-0.4-0.2-0.6c-0.4-0.3-0.9-0.6-1.3-0.9c-0.2-0.1-0.2-0.1-0.4,0c0,0-0.1,0.1-0.1,0.1c-0.3,0.4-0.6,0.8-0.8,1.2
		c0,0,0,0.1,0,0.2c0.2,0.1,0.4,0.2,0.5,0.2C18.5,15.5,19,15.6,19.3,16.1z M14.4,12.8C14.4,12.8,14.4,12.8,14.4,12.8
		c0-0.4,0-0.8,0-1.1c-0.1-0.7-0.4-1.2-1-1.5c-0.7-0.3-1.3,0-1.5,0.7c-0.1,0.3,0.1,0.6,0.4,0.8c0.2,0.1,0.4,0.1,0.6,0.2
		C13.5,11.9,14,12.2,14.4,12.8C14.3,12.7,14.4,12.8,14.4,12.8z M16.4,15.2c-0.7-0.3-1.6,0.1-1.8,0.8c-0.3,0.7,0.1,1.6,0.9,1.9
		c0.7,0.2,1.5-0.1,1.7-0.7c-0.1,0-0.2,0-0.3,0c-0.7-0.1-1.2-0.5-1.6-1c-0.1-0.1-0.1-0.2-0.1-0.3c0-0.1,0.2-0.2,0.2-0.2
		C15.9,15.8,16.2,15.5,16.4,15.2z M16.8,12.6c0.3-0.3,0.6-0.6,0.8-1c0.1-0.3,0.1-0.6-0.1-0.9c-0.2-0.3-0.5-0.4-0.8-0.3
		c-0.3,0.1-0.4,0.5-0.3,0.8c0.1,0.2,0.1,0.3,0.2,0.4c0.2,0.2,0.2,0.5,0.2,0.8C16.8,12.4,16.8,12.5,16.8,12.6z M17,15.5
		c-0.3,0.2-0.6,0.5-0.8,0.7c0.7,0.6,2,0.6,2.7,0.1C18.6,16.1,18.3,16,18,16C17.6,15.9,17.3,15.8,17,15.5z M19.1,13.1
		c0.4,0.3,0.8,0.6,1.3,0.9c0.1-0.2,0.3-0.4,0.4-0.6c-0.4-0.3-0.8-0.6-1.3-0.9C19.3,12.8,19.2,13,19.1,13.1z"/>
	<path d="M24.3,6.5c0.2,0.1,0.4,0.3,0.6,0.4c-1.4,2-2.8,3.9-4.2,5.9c-0.2-0.1-0.4-0.3-0.6-0.4C21.6,10.4,23,8.5,24.3,6.5z"/>
	<path d="M19.3,16.1c-0.4-0.5-0.9-0.6-1.4-0.7c-0.2,0-0.4-0.1-0.5-0.2c0,0-0.1-0.1,0-0.2c0.3-0.4,0.5-0.8,0.8-1.2
		c0,0,0.1-0.1,0.1-0.1c0.2-0.2,0.2-0.2,0.4,0c0.4,0.3,0.9,0.6,1.3,0.9c0.2,0.2,0.3,0.3,0.2,0.6c-0.1,0.4-0.4,0.7-0.7,0.9
		C19.5,16,19.4,16.1,19.3,16.1z"/>
	<path d="M17,15.5c0.3,0.3,0.6,0.4,1,0.4c0.3,0,0.6,0.2,0.8,0.4c-0.7,0.4-2,0.5-2.7-0.1C16.4,16,16.7,15.8,17,15.5z"/>
	<path d="M19.1,13.1c0.1-0.2,0.2-0.4,0.4-0.6c0.4,0.3,0.8,0.6,1.3,0.9c-0.1,0.2-0.2,0.4-0.4,0.6C19.9,13.7,19.5,13.4,19.1,13.1z"/>
	<path d="M11.4,13.4c0.7,0,1.2,0.6,1.2,1.2c0,0.7-0.6,1.2-1.3,1.2c-0.7,0-1.2-0.6-1.2-1.3C10.1,13.9,10.7,13.4,11.4,13.4z M12,14.6
		c0-0.4-0.3-0.7-0.7-0.7c-0.4,0-0.7,0.3-0.7,0.7c0,0.4,0.3,0.7,0.7,0.7C11.7,15.3,12,15,12,14.6z"/>
	<path d="M10.5,16.4c0.7,0,1.2,0.5,1.2,1.2c0,0.7-0.6,1.2-1.3,1.2c-0.7,0-1.2-0.6-1.2-1.3C9.2,16.9,9.8,16.4,10.5,16.4z M10.5,16.9
		c-0.4,0-0.7,0.3-0.7,0.7c0,0.4,0.3,0.7,0.7,0.7c0.4,0,0.7-0.3,0.7-0.7C11.1,17.2,10.8,16.9,10.5,16.9z"/>
	<path d="M12.2,21.6c-0.7,0-1.2-0.5-1.3-1.2c0-0.7,0.5-1.3,1.2-1.3c0.7,0,1.3,0.5,1.3,1.2C13.4,21,12.9,21.6,12.2,21.6z M12.9,20.4
		c0-0.4-0.3-0.7-0.7-0.7c-0.4,0-0.7,0.3-0.7,0.7c0,0.4,0.3,0.7,0.7,0.7C12.6,21,12.9,20.7,12.9,20.4z"/>
	<path d="M12,14.6c0,0.4-0.3,0.7-0.7,0.7c-0.4,0-0.7-0.3-0.7-0.7c0-0.4,0.3-0.7,0.7-0.7C11.7,13.9,12,14.2,12,14.6z"/>
	<path d="M10.5,16.9c0.4,0,0.7,0.3,0.7,0.7c0,0.4-0.3,0.7-0.7,0.7c-0.4,0-0.7-0.3-0.7-0.7C9.8,17.3,10.1,16.9,10.5,16.9z"/>
	<path d="M12.9,20.4c0,0.4-0.3,0.7-0.7,0.7c-0.4,0-0.7-0.3-0.7-0.7c0-0.4,0.3-0.7,0.7-0.7C12.6,19.7,12.9,20,12.9,20.4z"/>
</g>
</svg>
