<?xml version="1.0" encoding="utf-8"?>
<!-- Generator: Adobe Illustrator 24.2.0, SVG Export Plug-In . SVG Version: 6.00 Build 0)  -->
<svg version="1.1" id="Calque_1" xmlns="http://www.w3.org/2000/svg" xmlns:xlink="http://www.w3.org/1999/xlink" x="0px" y="0px"
	 viewBox="0 0 32 32" style="enable-background:new 0 0 32 32;" xml:space="preserve">
<style type="text/css">
	.st0{fill:none;stroke:#000000;stroke-width:0.4768;stroke-miterlimit:10;}
</style>
<circle class="st0" cx="16.4" cy="16" r="15.1"/>
<g>
	<path d="M10.7,18.4C10.6,18.4,10.6,18.4,10.7,18.4c-0.5,0-0.8,0-1.2,0c0,0.1,0,0.3,0,0.4c0,0.3-0.2,0.4-0.4,0.4c-0.5,0-1.1,0-1.6,0
		c-0.3,0-0.4-0.2-0.4-0.4c0-1.1,0-2.1,0-3.2c0-0.3,0.2-0.4,0.4-0.4c0.5,0,1,0,1.6,0c0.3,0,0.4,0.2,0.4,0.4c0,0.1,0,0.2,0,0.3
		c0.4,0,0.8,0,1.2,0c0-0.1,0-0.3,0-0.4c0-0.3,0-0.5,0-0.8c0-0.2,0.1-0.3,0.2-0.4c0.8-0.4,1.6-0.8,2.4-1.2c0.1,0,0.2,0,0.3,0
		c0.2,0,0.5,0,0.7,0c0-0.5,0-1.1,0-1.6c-0.1,0-0.3,0-0.4,0c-0.2,0-0.4-0.2-0.4-0.4c0-0.5,0-1.1,0-1.6c0-0.2,0.2-0.4,0.4-0.4
		c1.1,0,2.2,0,3.2,0c0.2,0,0.4,0.2,0.4,0.4c0,0.5,0,1.1,0,1.6c0,0.3-0.2,0.4-0.4,0.4c-0.1,0-0.2,0-0.4,0c0,0.5,0,1.1,0,1.6
		c0.2,0,0.5,0,0.7,0c0.1,0,0.3,0,0.4,0.1c0.7,0.3,1.4,0.7,2.1,1c0.1,0,0.2,0.1,0.3,0.1c0.4,0,0.9,0,1.3,0c0.3,0,0.4,0.2,0.4,0.4
		c0,0.2,0,0.5,0,0.8c0.4,0,0.8,0,1.2,0c0-0.1,0-0.3,0-0.4c0-0.2,0.2-0.4,0.4-0.4c0.5,0,1.1,0,1.6,0c0.2,0,0.4,0.2,0.4,0.4
		c0,1.3,0,2.7,0,4c0,0.3-0.2,0.4-0.4,0.4c-0.5,0-1.1,0-1.6,0c-0.3,0-0.4-0.2-0.4-0.4c0-0.1,0-0.2,0-0.4c-0.4,0-0.8,0-1.2,0
		c0,0.3,0,0.5,0,0.8c0,0.3-0.2,0.4-0.4,0.4c-0.2,0-0.3,0-0.5,0c-0.7-0.1-1.3,0.1-2,0.5c-0.4,0.2-0.9,0.4-1.3,0.7
		c-0.1,0.1-0.3,0.1-0.4,0.1c-1.3,0-2.6,0-3.8,0c-0.1,0-0.3,0-0.4-0.1c-0.8-0.4-1.5-0.8-2.3-1.1c-0.2-0.1-0.3-0.3-0.3-0.5
		C10.7,19.2,10.7,18.8,10.7,18.4z M21.2,19.2c0-1.4,0-2.7,0-4.1c-0.4,0-0.7,0-1.1,0c-0.2,0-0.3,0-0.5-0.1c-0.7-0.3-1.4-0.7-2.1-1
		c-0.1,0-0.2-0.1-0.3-0.1c-1.2,0-2.4,0-3.5,0c-0.1,0-0.2,0-0.3,0.1c-0.6,0.3-1.2,0.6-1.9,0.9c-0.1,0.1-0.1,0.1-0.1,0.2
		c0,1.3,0,2.7,0,4c0,0.1,0,0.2,0.1,0.2c0.6,0.3,1.2,0.6,1.8,0.9c0.1,0,0.2,0.1,0.3,0.1c1.2,0,2.3,0,3.5,0c0.1,0,0.2,0,0.3-0.1
		c0.7-0.3,1.4-0.7,2.1-1c0.1-0.1,0.3-0.1,0.5-0.1C20.5,19.2,20.8,19.2,21.2,19.2z M24,18.8c0.3,0,0.5,0,0.8,0c0-1.1,0-2.1,0-3.2
		c-0.3,0-0.5,0-0.8,0C24,16.7,24,17.7,24,18.8z M16.7,9.9c-0.8,0-1.6,0-2.4,0c0,0.3,0,0.5,0,0.8c0.8,0,1.6,0,2.4,0
		C16.7,10.4,16.7,10.2,16.7,9.9z M7.8,16c0,0.8,0,1.6,0,2.4c0.3,0,0.5,0,0.8,0c0-0.8,0-1.6,0-2.4C8.4,16,8.1,16,7.8,16z M22,16.4
		c0,0.5,0,1.1,0,1.6c0.4,0,0.8,0,1.2,0c0-0.5,0-1.1,0-1.6C22.8,16.4,22.4,16.4,22,16.4z M15.1,11.5c0,0.5,0,1.1,0,1.6
		c0.3,0,0.5,0,0.8,0c0-0.5,0-1.1,0-1.6C15.6,11.5,15.4,11.5,15.1,11.5z M9.5,16.8c0,0.3,0,0.5,0,0.8c0.4,0,0.8,0,1.2,0
		c0-0.3,0-0.5,0-0.8C10.2,16.8,9.9,16.8,9.5,16.8z"/>
	<path d="M22.8,9.1c-0.7,0-1.2-0.5-1.2-1.2c0-0.7,0.5-1.2,1.2-1.2c0.7,0,1.2,0.5,1.2,1.2C24,8.6,23.5,9.1,22.8,9.1z M23.2,7.9
		c0-0.2-0.2-0.4-0.4-0.4c-0.2,0-0.4,0.2-0.4,0.4c0,0.2,0.2,0.4,0.4,0.4C23,8.3,23.2,8.1,23.2,7.9z"/>
	<path d="M10.2,23.7c-0.7,0-1.2-0.5-1.2-1.2c0-0.7,0.5-1.2,1.2-1.2c0.7,0,1.2,0.5,1.2,1.2C11.5,23.2,10.9,23.7,10.2,23.7z
		 M10.2,22.9c0.2,0,0.4-0.2,0.4-0.4c0-0.2-0.2-0.4-0.4-0.4c-0.2,0-0.4,0.2-0.4,0.4C9.8,22.7,10,22.9,10.2,22.9z"/>
	<path d="M15.5,19.2c-0.5,0-1,0-1.5,0c-0.3,0-0.5-0.1-0.5-0.4c0-0.3,0.2-0.4,0.5-0.4c1,0,2.1,0,3.1,0c0.3,0,0.5,0.2,0.5,0.4
		c0,0.3-0.2,0.4-0.5,0.4C16.5,19.2,16,19.2,15.5,19.2z"/>
</g>
</svg>
