<?xml version="1.0" encoding="utf-8"?>
<!-- Generator: Adobe Illustrator 24.2.0, SVG Export Plug-In . SVG Version: 6.00 Build 0)  -->
<svg version="1.1" id="Calque_1" xmlns="http://www.w3.org/2000/svg" xmlns:xlink="http://www.w3.org/1999/xlink" x="0px" y="0px"
	 viewBox="0 0 32 32" style="enable-background:new 0 0 32 32;" xml:space="preserve">
<style type="text/css">
	.st0{fill:none;stroke:#000000;stroke-width:0.4768;stroke-miterlimit:10;}
</style>
<circle class="st0" cx="16" cy="16" r="15.1"/>
<g>
	<path d="M9.3,20.8c-0.1,0-0.2,0-0.3,0c0-0.1,0-0.1,0-0.2c0-3,0-6.1,0-9.1c0-0.1,0-0.2,0.1-0.2c0.2,0,0.2,0.1,0.2,0.2
		c0,1.4,0,2.7,0,4.1c0,0.3,0,0.3,0.3,0.3c2.2,0,4.3,0,6.5,0c0.3,0,0.3,0,0.3-0.3c0-1.4,0-2.7,0-4.1c0-0.1,0-0.2,0.2-0.2
		c0.1,0,0.2,0,0.2,0.2c0,0.3,0,0.5,0,0.8c0,1.1,0,2.3,0,3.4c0,0.2,0.1,0.3,0.3,0.3c2.2,0,4.4,0,6.5,0c0.2,0,0.3-0.1,0.3-0.3
		c0-1.4,0-2.7,0-4.1c0-0.1,0-0.2,0.1-0.2c0.2,0,0.2,0,0.2,0.2c0,1.4,0,2.8,0,4.2c0,0.1,0,0.2,0,0.3c0,0.2-0.1,0.3-0.3,0.3
		c-0.1,0-0.1,0-0.2,0c-2.2,0-4.5,0-6.7,0c-0.1,0-0.2,0-0.3,0c0,1.5,0,3.1,0,4.6c-0.1,0-0.2,0-0.4,0c0-0.1,0-0.2,0-0.3
		c0-1.4,0-2.7,0-4.1c0-0.2-0.1-0.3-0.3-0.3c-2.2,0-4.4,0-6.5,0c-0.2,0-0.3,0.1-0.3,0.3c0,1.4,0,2.7,0,4.1
		C9.3,20.6,9.3,20.7,9.3,20.8z"/>
	<path d="M24.1,21.6c0.1,0.2,0.1,0.3,0.2,0.4c0.3,0.5,0.5,1,0.8,1.5c0,0.1,0.1,0.1,0.1,0.2c0,0.1,0,0.2,0,0.3
		c-0.1,0.1-0.2,0-0.3-0.1c-0.2-0.3-0.3-0.6-0.5-0.9c-0.2-0.4-0.4-0.7-0.6-1.1c-0.1-0.2-0.2-0.2-0.4-0.2c-0.5,0-0.4,0-0.4,0.4
		c0,0.6,0,1.1,0,1.7c0,0.1,0,0.3-0.2,0.3c-0.2,0-0.2-0.1-0.2-0.3c0-1.5,0-3.1,0-4.6c0-0.2,0-0.3,0.3-0.3c0.3,0,0.6,0,0.9,0
		c0.6,0,1.2,0.5,1.3,1.1c0.1,0.6-0.2,1.3-0.8,1.6C24.3,21.6,24.2,21.6,24.1,21.6z M23.6,19.2c-0.2,0-0.3,0-0.4,0
		c-0.1,0-0.2,0-0.2,0.2c0,0.6,0,1.1,0,1.7c0,0.1,0.1,0.2,0.2,0.2c0.2,0,0.4,0,0.6,0c0.4,0,0.7-0.2,0.9-0.6c0.2-0.4,0.2-0.7-0.1-1.1
		C24.3,19.3,23.9,19.2,23.6,19.2z"/>
	<path d="M7.9,9.5c0-0.7,0.5-1.2,1.2-1.2c0.7,0,1.2,0.6,1.2,1.2c0,0.7-0.5,1.2-1.2,1.2C8.5,10.8,7.9,10.2,7.9,9.5z"/>
	<path d="M16.5,8.3c0.7,0,1.2,0.6,1.2,1.2c0,0.7-0.6,1.2-1.2,1.2c-0.7,0-1.2-0.6-1.2-1.2C15.3,8.9,15.8,8.3,16.5,8.3z"/>
	<path d="M22.7,9.5c0-0.7,0.6-1.2,1.2-1.2c0.7,0,1.2,0.6,1.2,1.2c0,0.7-0.5,1.2-1.2,1.2C23.2,10.8,22.7,10.2,22.7,9.5z"/>
	<path d="M16.5,23.7c-0.7,0-1.2-0.6-1.2-1.2c0-0.7,0.5-1.2,1.2-1.2c0.7,0,1.2,0.5,1.2,1.2C17.7,23.1,17.2,23.7,16.5,23.7z"/>
	<path d="M9.1,23.7c-0.7,0-1.2-0.6-1.2-1.2c0-0.7,0.6-1.2,1.2-1.2c0.7,0,1.2,0.6,1.2,1.2C10.3,23.1,9.8,23.7,9.1,23.7z"/>
</g>
</svg>
